<svg width="4000" height="4000" viewBox="0 0 4000 4000" fill="none" xmlns="http://www.w3.org/2000/svg">
<path d="M2.90065 5.80131C4.50264 5.80131 5.80131 4.50264 5.80131 2.90065C5.80131 1.29867 4.50264 0 2.90065 0C1.29867 0 0 1.29867 0 2.90065C0 4.50264 1.29867 5.80131 2.90065 5.80131Z" fill="#ACACAC"/>
<path d="M269.181 5.80131C270.783 5.80131 272.082 4.50264 272.082 2.90065C272.082 1.29867 270.783 0 269.181 0C267.579 0 266.28 1.29867 266.28 2.90065C266.28 4.50264 267.579 5.80131 269.181 5.80131Z" fill="#ACACAC"/>
<path d="M535.46 5.80131C537.062 5.80131 538.361 4.50264 538.361 2.90065C538.361 1.29867 537.062 0 535.46 0C533.858 0 532.56 1.29867 532.56 2.90065C532.56 4.50264 533.858 5.80131 535.46 5.80131Z" fill="#ACACAC"/>
<path d="M801.74 5.80131C803.342 5.80131 804.641 4.50264 804.641 2.90065C804.641 1.29867 803.342 0 801.74 0C800.139 0 798.84 1.29867 798.84 2.90065C798.84 4.50264 800.139 5.80131 801.74 5.80131Z" fill="#ACACAC"/>
<path d="M1068.02 5.80131C1069.62 5.80131 1070.92 4.50264 1070.92 2.90065C1070.92 1.29867 1069.62 0 1068.02 0C1066.42 0 1065.12 1.29867 1065.12 2.90065C1065.12 4.50264 1066.42 5.80131 1068.02 5.80131Z" fill="#ACACAC"/>
<path d="M1334.3 5.80131C1335.9 5.80131 1337.2 4.50264 1337.2 2.90065C1337.2 1.29867 1335.9 0 1334.3 0C1332.7 0 1331.4 1.29867 1331.4 2.90065C1331.4 4.50264 1332.7 5.80131 1334.3 5.80131Z" fill="#ACACAC"/>
<path d="M1600.58 5.80131C1602.18 5.80131 1603.48 4.50264 1603.48 2.90065C1603.48 1.29867 1602.18 0 1600.58 0C1598.98 0 1597.68 1.29867 1597.68 2.90065C1597.68 4.50264 1598.98 5.80131 1600.58 5.80131Z" fill="#ACACAC"/>
<path d="M1866.86 5.80131C1868.46 5.80131 1869.76 4.50264 1869.76 2.90065C1869.76 1.29867 1868.46 0 1866.86 0C1865.26 0 1863.96 1.29867 1863.96 2.90065C1863.96 4.50264 1865.26 5.80131 1866.86 5.80131Z" fill="#ACACAC"/>
<path d="M2133.14 5.80131C2134.74 5.80131 2136.04 4.50264 2136.04 2.90065C2136.04 1.29867 2134.74 0 2133.14 0C2131.54 0 2130.24 1.29867 2130.24 2.90065C2130.24 4.50264 2131.54 5.80131 2133.14 5.80131Z" fill="#ACACAC"/>
<path d="M2399.42 5.80131C2401.02 5.80131 2402.32 4.50264 2402.32 2.90065C2402.32 1.29867 2401.02 0 2399.42 0C2397.82 0 2396.52 1.29867 2396.52 2.90065C2396.52 4.50264 2397.82 5.80131 2399.42 5.80131Z" fill="#ACACAC"/>
<path d="M2665.7 5.80131C2667.3 5.80131 2668.6 4.50264 2668.6 2.90065C2668.6 1.29867 2667.3 0 2665.7 0C2664.1 0 2662.8 1.29867 2662.8 2.90065C2662.8 4.50264 2664.1 5.80131 2665.7 5.80131Z" fill="#ACACAC"/>
<path d="M2931.98 5.80131C2933.58 5.80131 2934.88 4.50264 2934.88 2.90065C2934.88 1.29867 2933.58 0 2931.98 0C2930.38 0 2929.08 1.29867 2929.08 2.90065C2929.08 4.50264 2930.38 5.80131 2931.98 5.80131Z" fill="#ACACAC"/>
<path d="M3198.26 5.80131C3199.86 5.80131 3201.16 4.50264 3201.16 2.90065C3201.16 1.29867 3199.86 0 3198.26 0C3196.66 0 3195.36 1.29867 3195.36 2.90065C3195.36 4.50264 3196.66 5.80131 3198.26 5.80131Z" fill="#ACACAC"/>
<path d="M3464.54 5.80131C3466.14 5.80131 3467.44 4.50264 3467.44 2.90065C3467.44 1.29867 3466.14 0 3464.54 0C3462.94 0 3461.64 1.29867 3461.64 2.90065C3461.64 4.50264 3462.94 5.80131 3464.54 5.80131Z" fill="#ACACAC"/>
<path d="M3730.82 5.80131C3732.42 5.80131 3733.72 4.50264 3733.72 2.90065C3733.72 1.29867 3732.42 0 3730.82 0C3729.22 0 3727.92 1.29867 3727.92 2.90065C3727.92 4.50264 3729.22 5.80131 3730.82 5.80131Z" fill="#ACACAC"/>
<path d="M3997.1 5.80131C3998.7 5.80131 4000 4.50264 4000 2.90065C4000 1.29867 3998.7 0 3997.1 0C3995.5 0 3994.2 1.29867 3994.2 2.90065C3994.2 4.50264 3995.5 5.80131 3997.1 5.80131Z" fill="#ACACAC"/>
<path d="M2.90065 272.083C4.50264 272.083 5.80131 270.784 5.80131 269.182C5.80131 267.58 4.50264 266.281 2.90065 266.281C1.29867 266.281 0 267.58 0 269.182C0 270.784 1.29867 272.083 2.90065 272.083Z" fill="#ACACAC"/>
<path d="M269.181 272.083C270.783 272.083 272.082 270.784 272.082 269.182C272.082 267.58 270.783 266.281 269.181 266.281C267.579 266.281 266.28 267.58 266.28 269.182C266.28 270.784 267.579 272.083 269.181 272.083Z" fill="#ACACAC"/>
<path d="M535.46 272.083C537.062 272.083 538.361 270.784 538.361 269.182C538.361 267.58 537.062 266.281 535.46 266.281C533.858 266.281 532.56 267.58 532.56 269.182C532.56 270.784 533.858 272.083 535.46 272.083Z" fill="#ACACAC"/>
<path d="M801.74 272.083C803.342 272.083 804.641 270.784 804.641 269.182C804.641 267.58 803.342 266.281 801.74 266.281C800.139 266.281 798.84 267.58 798.84 269.182C798.84 270.784 800.139 272.083 801.74 272.083Z" fill="#ACACAC"/>
<path d="M1068.02 272.083C1069.62 272.083 1070.92 270.784 1070.92 269.182C1070.92 267.58 1069.62 266.281 1068.02 266.281C1066.42 266.281 1065.12 267.58 1065.12 269.182C1065.12 270.784 1066.42 272.083 1068.02 272.083Z" fill="#ACACAC"/>
<path d="M1334.3 272.083C1335.9 272.083 1337.2 270.784 1337.2 269.182C1337.2 267.58 1335.9 266.281 1334.3 266.281C1332.7 266.281 1331.4 267.58 1331.4 269.182C1331.4 270.784 1332.7 272.083 1334.3 272.083Z" fill="#ACACAC"/>
<path d="M1600.58 272.083C1602.18 272.083 1603.48 270.784 1603.48 269.182C1603.48 267.58 1602.18 266.281 1600.58 266.281C1598.98 266.281 1597.68 267.58 1597.68 269.182C1597.68 270.784 1598.98 272.083 1600.58 272.083Z" fill="#ACACAC"/>
<path d="M1866.86 272.083C1868.46 272.083 1869.76 270.784 1869.76 269.182C1869.76 267.58 1868.46 266.281 1866.86 266.281C1865.26 266.281 1863.96 267.58 1863.96 269.182C1863.96 270.784 1865.26 272.083 1866.86 272.083Z" fill="#ACACAC"/>
<path d="M2133.14 272.083C2134.74 272.083 2136.04 270.784 2136.04 269.182C2136.04 267.58 2134.74 266.281 2133.14 266.281C2131.54 266.281 2130.24 267.58 2130.24 269.182C2130.24 270.784 2131.54 272.083 2133.14 272.083Z" fill="#ACACAC"/>
<path d="M2399.42 272.083C2401.02 272.083 2402.32 270.784 2402.32 269.182C2402.32 267.58 2401.02 266.281 2399.42 266.281C2397.82 266.281 2396.52 267.58 2396.52 269.182C2396.52 270.784 2397.82 272.083 2399.42 272.083Z" fill="#ACACAC"/>
<path d="M2665.7 272.083C2667.3 272.083 2668.6 270.784 2668.6 269.182C2668.6 267.58 2667.3 266.281 2665.7 266.281C2664.1 266.281 2662.8 267.58 2662.8 269.182C2662.8 270.784 2664.1 272.083 2665.7 272.083Z" fill="#ACACAC"/>
<path d="M2931.98 272.083C2933.58 272.083 2934.88 270.784 2934.88 269.182C2934.88 267.58 2933.58 266.281 2931.98 266.281C2930.38 266.281 2929.08 267.58 2929.08 269.182C2929.08 270.784 2930.38 272.083 2931.98 272.083Z" fill="#ACACAC"/>
<path d="M3198.26 272.083C3199.86 272.083 3201.16 270.784 3201.16 269.182C3201.16 267.58 3199.86 266.281 3198.26 266.281C3196.66 266.281 3195.36 267.58 3195.36 269.182C3195.36 270.784 3196.66 272.083 3198.26 272.083Z" fill="#ACACAC"/>
<path d="M3464.54 272.083C3466.14 272.083 3467.44 270.784 3467.44 269.182C3467.44 267.58 3466.14 266.281 3464.54 266.281C3462.94 266.281 3461.64 267.58 3461.64 269.182C3461.64 270.784 3462.94 272.083 3464.54 272.083Z" fill="#ACACAC"/>
<path d="M3730.82 272.083C3732.42 272.083 3733.72 270.784 3733.72 269.182C3733.72 267.58 3732.42 266.281 3730.82 266.281C3729.22 266.281 3727.92 267.58 3727.92 269.182C3727.92 270.784 3729.22 272.083 3730.82 272.083Z" fill="#ACACAC"/>
<path d="M3997.1 272.083C3998.7 272.083 4000 270.784 4000 269.182C4000 267.58 3998.7 266.281 3997.1 266.281C3995.5 266.281 3994.2 267.58 3994.2 269.182C3994.2 270.784 3995.5 272.083 3997.1 272.083Z" fill="#ACACAC"/>
<path d="M2.90065 538.36C4.50264 538.36 5.80131 537.061 5.80131 535.459C5.80131 533.857 4.50264 532.559 2.90065 532.559C1.29867 532.559 0 533.857 0 535.459C0 537.061 1.29867 538.36 2.90065 538.36Z" fill="#ACACAC"/>
<path d="M269.181 538.36C270.783 538.36 272.082 537.061 272.082 535.459C272.082 533.857 270.783 532.559 269.181 532.559C267.579 532.559 266.28 533.857 266.28 535.459C266.28 537.061 267.579 538.36 269.181 538.36Z" fill="#ACACAC"/>
<path d="M535.46 538.36C537.062 538.36 538.361 537.061 538.361 535.459C538.361 533.857 537.062 532.559 535.46 532.559C533.858 532.559 532.56 533.857 532.56 535.459C532.56 537.061 533.858 538.36 535.46 538.36Z" fill="#ACACAC"/>
<path d="M801.74 538.36C803.342 538.36 804.641 537.061 804.641 535.459C804.641 533.857 803.342 532.559 801.74 532.559C800.139 532.559 798.84 533.857 798.84 535.459C798.84 537.061 800.139 538.36 801.74 538.36Z" fill="#ACACAC"/>
<path d="M1068.02 538.36C1069.62 538.36 1070.92 537.061 1070.92 535.459C1070.92 533.857 1069.62 532.559 1068.02 532.559C1066.42 532.559 1065.12 533.857 1065.12 535.459C1065.12 537.061 1066.42 538.36 1068.02 538.36Z" fill="#ACACAC"/>
<path d="M1334.3 538.36C1335.9 538.36 1337.2 537.061 1337.2 535.459C1337.2 533.857 1335.9 532.559 1334.3 532.559C1332.7 532.559 1331.4 533.857 1331.4 535.459C1331.4 537.061 1332.7 538.36 1334.3 538.36Z" fill="#ACACAC"/>
<path d="M1600.58 538.36C1602.18 538.36 1603.48 537.061 1603.48 535.459C1603.48 533.857 1602.18 532.559 1600.58 532.559C1598.98 532.559 1597.68 533.857 1597.68 535.459C1597.68 537.061 1598.98 538.36 1600.58 538.36Z" fill="#ACACAC"/>
<path d="M1866.86 538.36C1868.46 538.36 1869.76 537.061 1869.76 535.459C1869.76 533.857 1868.46 532.559 1866.86 532.559C1865.26 532.559 1863.96 533.857 1863.96 535.459C1863.96 537.061 1865.26 538.36 1866.86 538.36Z" fill="#ACACAC"/>
<path d="M2133.14 538.36C2134.74 538.36 2136.04 537.061 2136.04 535.459C2136.04 533.857 2134.74 532.559 2133.14 532.559C2131.54 532.559 2130.24 533.857 2130.24 535.459C2130.24 537.061 2131.54 538.36 2133.14 538.36Z" fill="#ACACAC"/>
<path d="M2399.42 538.36C2401.02 538.36 2402.32 537.061 2402.32 535.459C2402.32 533.857 2401.02 532.559 2399.42 532.559C2397.82 532.559 2396.52 533.857 2396.52 535.459C2396.52 537.061 2397.82 538.36 2399.42 538.36Z" fill="#ACACAC"/>
<path d="M2665.7 538.36C2667.3 538.36 2668.6 537.061 2668.6 535.459C2668.6 533.857 2667.3 532.559 2665.7 532.559C2664.1 532.559 2662.8 533.857 2662.8 535.459C2662.8 537.061 2664.1 538.36 2665.7 538.36Z" fill="#ACACAC"/>
<path d="M2931.98 538.36C2933.58 538.36 2934.88 537.061 2934.88 535.459C2934.88 533.857 2933.58 532.559 2931.98 532.559C2930.38 532.559 2929.08 533.857 2929.08 535.459C2929.08 537.061 2930.38 538.36 2931.98 538.36Z" fill="#ACACAC"/>
<path d="M3198.26 538.36C3199.86 538.36 3201.16 537.061 3201.16 535.459C3201.16 533.857 3199.86 532.559 3198.26 532.559C3196.66 532.559 3195.36 533.857 3195.36 535.459C3195.36 537.061 3196.66 538.36 3198.26 538.36Z" fill="#ACACAC"/>
<path d="M3464.54 538.36C3466.14 538.36 3467.44 537.061 3467.44 535.459C3467.44 533.857 3466.14 532.559 3464.54 532.559C3462.94 532.559 3461.64 533.857 3461.64 535.459C3461.64 537.061 3462.94 538.36 3464.54 538.36Z" fill="#ACACAC"/>
<path d="M3730.82 538.36C3732.42 538.36 3733.72 537.061 3733.72 535.459C3733.72 533.857 3732.42 532.559 3730.82 532.559C3729.22 532.559 3727.92 533.857 3727.92 535.459C3727.92 537.061 3729.22 538.36 3730.82 538.36Z" fill="#ACACAC"/>
<path d="M3997.1 538.36C3998.7 538.36 4000 537.061 4000 535.459C4000 533.857 3998.7 532.559 3997.1 532.559C3995.5 532.559 3994.2 533.857 3994.2 535.459C3994.2 537.061 3995.5 538.36 3997.1 538.36Z" fill="#ACACAC"/>
<path d="M2.90065 804.641C4.50264 804.641 5.80131 803.342 5.80131 801.74C5.80131 800.139 4.50264 798.84 2.90065 798.84C1.29867 798.84 0 800.139 0 801.74C0 803.342 1.29867 804.641 2.90065 804.641Z" fill="#ACACAC"/>
<path d="M269.181 804.641C270.783 804.641 272.082 803.342 272.082 801.74C272.082 800.139 270.783 798.84 269.181 798.84C267.579 798.84 266.28 800.139 266.28 801.74C266.28 803.342 267.579 804.641 269.181 804.641Z" fill="#ACACAC"/>
<path d="M535.46 804.641C537.062 804.641 538.361 803.342 538.361 801.74C538.361 800.139 537.062 798.84 535.46 798.84C533.858 798.84 532.56 800.139 532.56 801.74C532.56 803.342 533.858 804.641 535.46 804.641Z" fill="#ACACAC"/>
<path d="M801.74 804.641C803.342 804.641 804.641 803.342 804.641 801.74C804.641 800.139 803.342 798.84 801.74 798.84C800.139 798.84 798.84 800.139 798.84 801.74C798.84 803.342 800.139 804.641 801.74 804.641Z" fill="#ACACAC"/>
<path d="M1068.02 804.641C1069.62 804.641 1070.92 803.342 1070.92 801.74C1070.92 800.139 1069.62 798.84 1068.02 798.84C1066.42 798.84 1065.12 800.139 1065.12 801.74C1065.12 803.342 1066.42 804.641 1068.02 804.641Z" fill="#ACACAC"/>
<path d="M1334.3 804.641C1335.9 804.641 1337.2 803.342 1337.2 801.74C1337.2 800.139 1335.9 798.84 1334.3 798.84C1332.7 798.84 1331.4 800.139 1331.4 801.74C1331.4 803.342 1332.7 804.641 1334.3 804.641Z" fill="#ACACAC"/>
<path d="M1600.58 804.641C1602.18 804.641 1603.48 803.342 1603.48 801.74C1603.48 800.139 1602.18 798.84 1600.58 798.84C1598.98 798.84 1597.68 800.139 1597.68 801.74C1597.68 803.342 1598.98 804.641 1600.58 804.641Z" fill="#ACACAC"/>
<path d="M1866.86 804.641C1868.46 804.641 1869.76 803.342 1869.76 801.74C1869.76 800.139 1868.46 798.84 1866.86 798.84C1865.26 798.84 1863.96 800.139 1863.96 801.74C1863.96 803.342 1865.26 804.641 1866.86 804.641Z" fill="#ACACAC"/>
<path d="M2133.14 804.641C2134.74 804.641 2136.04 803.342 2136.04 801.74C2136.04 800.139 2134.74 798.84 2133.14 798.84C2131.54 798.84 2130.24 800.139 2130.24 801.74C2130.24 803.342 2131.54 804.641 2133.14 804.641Z" fill="#ACACAC"/>
<path d="M2399.42 804.641C2401.02 804.641 2402.32 803.342 2402.32 801.74C2402.32 800.139 2401.02 798.84 2399.42 798.84C2397.82 798.84 2396.52 800.139 2396.52 801.74C2396.52 803.342 2397.82 804.641 2399.42 804.641Z" fill="#ACACAC"/>
<path d="M2665.7 804.641C2667.3 804.641 2668.6 803.342 2668.6 801.74C2668.6 800.139 2667.3 798.84 2665.7 798.84C2664.1 798.84 2662.8 800.139 2662.8 801.74C2662.8 803.342 2664.1 804.641 2665.7 804.641Z" fill="#ACACAC"/>
<path d="M2931.98 804.641C2933.58 804.641 2934.88 803.342 2934.88 801.74C2934.88 800.139 2933.58 798.84 2931.98 798.84C2930.38 798.84 2929.08 800.139 2929.08 801.74C2929.08 803.342 2930.38 804.641 2931.98 804.641Z" fill="#ACACAC"/>
<path d="M3198.26 804.641C3199.86 804.641 3201.16 803.342 3201.16 801.74C3201.16 800.139 3199.86 798.84 3198.26 798.84C3196.66 798.84 3195.36 800.139 3195.36 801.74C3195.36 803.342 3196.66 804.641 3198.26 804.641Z" fill="#ACACAC"/>
<path d="M3464.54 804.641C3466.14 804.641 3467.44 803.342 3467.44 801.74C3467.44 800.139 3466.14 798.84 3464.54 798.84C3462.94 798.84 3461.64 800.139 3461.64 801.74C3461.64 803.342 3462.94 804.641 3464.54 804.641Z" fill="#ACACAC"/>
<path d="M3730.82 804.641C3732.42 804.641 3733.72 803.342 3733.72 801.74C3733.72 800.139 3732.42 798.84 3730.82 798.84C3729.22 798.84 3727.92 800.139 3727.92 801.74C3727.92 803.342 3729.22 804.641 3730.82 804.641Z" fill="#ACACAC"/>
<path d="M3997.1 804.641C3998.7 804.641 4000 803.342 4000 801.74C4000 800.139 3998.7 798.84 3997.1 798.84C3995.5 798.84 3994.2 800.139 3994.2 801.74C3994.2 803.342 3995.5 804.641 3997.1 804.641Z" fill="#ACACAC"/>
<path d="M2.90065 1070.92C4.50264 1070.92 5.80131 1069.62 5.80131 1068.02C5.80131 1066.42 4.50264 1065.12 2.90065 1065.12C1.29867 1065.12 0 1066.42 0 1068.02C0 1069.62 1.29867 1070.92 2.90065 1070.92Z" fill="#ACACAC"/>
<path d="M269.181 1070.92C270.783 1070.92 272.082 1069.62 272.082 1068.02C272.082 1066.42 270.783 1065.12 269.181 1065.12C267.579 1065.12 266.28 1066.42 266.28 1068.02C266.28 1069.62 267.579 1070.92 269.181 1070.92Z" fill="#ACACAC"/>
<path d="M535.46 1070.92C537.062 1070.92 538.361 1069.62 538.361 1068.02C538.361 1066.42 537.062 1065.12 535.46 1065.12C533.858 1065.12 532.56 1066.42 532.56 1068.02C532.56 1069.62 533.858 1070.92 535.46 1070.92Z" fill="#ACACAC"/>
<path d="M801.74 1070.92C803.342 1070.92 804.641 1069.62 804.641 1068.02C804.641 1066.42 803.342 1065.12 801.74 1065.12C800.139 1065.12 798.84 1066.42 798.84 1068.02C798.84 1069.62 800.139 1070.92 801.74 1070.92Z" fill="#ACACAC"/>
<path d="M1068.02 1070.92C1069.62 1070.92 1070.92 1069.62 1070.92 1068.02C1070.92 1066.42 1069.62 1065.12 1068.02 1065.12C1066.42 1065.12 1065.12 1066.42 1065.12 1068.02C1065.12 1069.62 1066.42 1070.92 1068.02 1070.92Z" fill="#ACACAC"/>
<path d="M1334.3 1070.92C1335.9 1070.92 1337.2 1069.62 1337.2 1068.02C1337.2 1066.42 1335.9 1065.12 1334.3 1065.12C1332.7 1065.12 1331.4 1066.42 1331.4 1068.02C1331.4 1069.62 1332.7 1070.92 1334.3 1070.92Z" fill="#ACACAC"/>
<path d="M1600.58 1070.92C1602.18 1070.92 1603.48 1069.62 1603.48 1068.02C1603.48 1066.42 1602.18 1065.12 1600.58 1065.12C1598.98 1065.12 1597.68 1066.42 1597.68 1068.02C1597.68 1069.62 1598.98 1070.92 1600.58 1070.92Z" fill="#ACACAC"/>
<path d="M1866.86 1070.92C1868.46 1070.92 1869.76 1069.62 1869.76 1068.02C1869.76 1066.42 1868.46 1065.12 1866.86 1065.12C1865.26 1065.12 1863.96 1066.42 1863.96 1068.02C1863.96 1069.62 1865.26 1070.92 1866.86 1070.92Z" fill="#ACACAC"/>
<path d="M2133.14 1070.92C2134.74 1070.92 2136.04 1069.62 2136.04 1068.02C2136.04 1066.42 2134.74 1065.12 2133.14 1065.12C2131.54 1065.12 2130.24 1066.42 2130.24 1068.02C2130.24 1069.62 2131.54 1070.92 2133.14 1070.92Z" fill="#ACACAC"/>
<path d="M2399.42 1070.92C2401.02 1070.92 2402.32 1069.62 2402.32 1068.02C2402.32 1066.42 2401.02 1065.12 2399.42 1065.12C2397.82 1065.12 2396.52 1066.42 2396.52 1068.02C2396.52 1069.62 2397.82 1070.92 2399.42 1070.92Z" fill="#ACACAC"/>
<path d="M2665.7 1070.92C2667.3 1070.92 2668.6 1069.62 2668.6 1068.02C2668.6 1066.42 2667.3 1065.12 2665.7 1065.12C2664.1 1065.12 2662.8 1066.42 2662.8 1068.02C2662.8 1069.62 2664.1 1070.92 2665.7 1070.92Z" fill="#ACACAC"/>
<path d="M2931.98 1070.92C2933.58 1070.92 2934.88 1069.62 2934.88 1068.02C2934.88 1066.42 2933.58 1065.12 2931.98 1065.12C2930.38 1065.12 2929.08 1066.42 2929.08 1068.02C2929.08 1069.62 2930.38 1070.92 2931.98 1070.92Z" fill="#ACACAC"/>
<path d="M3198.26 1070.92C3199.86 1070.92 3201.16 1069.62 3201.16 1068.02C3201.16 1066.42 3199.86 1065.12 3198.26 1065.12C3196.66 1065.12 3195.36 1066.42 3195.36 1068.02C3195.36 1069.62 3196.66 1070.92 3198.26 1070.92Z" fill="#ACACAC"/>
<path d="M3464.54 1070.92C3466.14 1070.92 3467.44 1069.62 3467.44 1068.02C3467.44 1066.42 3466.14 1065.12 3464.54 1065.12C3462.94 1065.12 3461.64 1066.42 3461.64 1068.02C3461.64 1069.62 3462.94 1070.92 3464.54 1070.92Z" fill="#ACACAC"/>
<path d="M3730.82 1070.92C3732.42 1070.92 3733.72 1069.62 3733.72 1068.02C3733.72 1066.42 3732.42 1065.12 3730.82 1065.12C3729.22 1065.12 3727.92 1066.42 3727.92 1068.02C3727.92 1069.62 3729.22 1070.92 3730.82 1070.92Z" fill="#ACACAC"/>
<path d="M3997.1 1070.92C3998.7 1070.92 4000 1069.62 4000 1068.02C4000 1066.42 3998.7 1065.12 3997.1 1065.12C3995.5 1065.12 3994.2 1066.42 3994.2 1068.02C3994.2 1069.62 3995.5 1070.92 3997.1 1070.92Z" fill="#ACACAC"/>
<path d="M2.90065 1337.2C4.50264 1337.2 5.80131 1335.9 5.80131 1334.3C5.80131 1332.7 4.50264 1331.4 2.90065 1331.4C1.29867 1331.4 0 1332.7 0 1334.3C0 1335.9 1.29867 1337.2 2.90065 1337.2Z" fill="#ACACAC"/>
<path d="M269.181 1337.2C270.783 1337.2 272.082 1335.9 272.082 1334.3C272.082 1332.7 270.783 1331.4 269.181 1331.4C267.579 1331.4 266.28 1332.7 266.28 1334.3C266.28 1335.9 267.579 1337.2 269.181 1337.2Z" fill="#ACACAC"/>
<path d="M535.46 1337.2C537.062 1337.2 538.361 1335.9 538.361 1334.3C538.361 1332.7 537.062 1331.4 535.46 1331.4C533.858 1331.4 532.56 1332.7 532.56 1334.3C532.56 1335.9 533.858 1337.2 535.46 1337.2Z" fill="#ACACAC"/>
<path d="M801.74 1337.2C803.342 1337.2 804.641 1335.9 804.641 1334.3C804.641 1332.7 803.342 1331.4 801.74 1331.4C800.139 1331.4 798.84 1332.7 798.84 1334.3C798.84 1335.9 800.139 1337.2 801.74 1337.2Z" fill="#ACACAC"/>
<path d="M1068.02 1337.2C1069.62 1337.2 1070.92 1335.9 1070.92 1334.3C1070.92 1332.7 1069.62 1331.4 1068.02 1331.4C1066.42 1331.4 1065.12 1332.7 1065.12 1334.3C1065.12 1335.9 1066.42 1337.2 1068.02 1337.2Z" fill="#ACACAC"/>
<path d="M1334.3 1337.2C1335.9 1337.2 1337.2 1335.9 1337.2 1334.3C1337.2 1332.7 1335.9 1331.4 1334.3 1331.4C1332.7 1331.4 1331.4 1332.7 1331.4 1334.3C1331.4 1335.9 1332.7 1337.2 1334.3 1337.2Z" fill="#ACACAC"/>
<path d="M1600.58 1337.2C1602.18 1337.2 1603.48 1335.9 1603.48 1334.3C1603.48 1332.7 1602.18 1331.4 1600.58 1331.4C1598.98 1331.4 1597.68 1332.7 1597.68 1334.3C1597.68 1335.9 1598.98 1337.2 1600.58 1337.2Z" fill="#ACACAC"/>
<path d="M1866.86 1337.2C1868.46 1337.2 1869.76 1335.9 1869.76 1334.3C1869.76 1332.7 1868.46 1331.4 1866.86 1331.4C1865.26 1331.4 1863.96 1332.7 1863.96 1334.3C1863.96 1335.9 1865.26 1337.2 1866.86 1337.2Z" fill="#ACACAC"/>
<path d="M2133.14 1337.2C2134.74 1337.2 2136.04 1335.9 2136.04 1334.3C2136.04 1332.7 2134.74 1331.4 2133.14 1331.4C2131.54 1331.4 2130.24 1332.7 2130.24 1334.3C2130.24 1335.9 2131.54 1337.2 2133.14 1337.2Z" fill="#ACACAC"/>
<path d="M2399.42 1337.2C2401.02 1337.2 2402.32 1335.9 2402.32 1334.3C2402.32 1332.7 2401.02 1331.4 2399.42 1331.4C2397.82 1331.4 2396.52 1332.7 2396.52 1334.3C2396.52 1335.9 2397.82 1337.2 2399.42 1337.2Z" fill="#ACACAC"/>
<path d="M2665.7 1337.2C2667.3 1337.2 2668.6 1335.9 2668.6 1334.3C2668.6 1332.7 2667.3 1331.4 2665.7 1331.4C2664.1 1331.4 2662.8 1332.7 2662.8 1334.3C2662.8 1335.9 2664.1 1337.2 2665.7 1337.2Z" fill="#ACACAC"/>
<path d="M2931.98 1337.2C2933.58 1337.2 2934.88 1335.9 2934.88 1334.3C2934.88 1332.7 2933.58 1331.4 2931.98 1331.4C2930.38 1331.4 2929.08 1332.7 2929.08 1334.3C2929.08 1335.9 2930.38 1337.2 2931.98 1337.2Z" fill="#ACACAC"/>
<path d="M3198.26 1337.2C3199.86 1337.2 3201.16 1335.9 3201.16 1334.3C3201.16 1332.7 3199.86 1331.4 3198.26 1331.4C3196.66 1331.4 3195.36 1332.7 3195.36 1334.3C3195.36 1335.9 3196.66 1337.2 3198.26 1337.2Z" fill="#ACACAC"/>
<path d="M3464.54 1337.2C3466.14 1337.2 3467.44 1335.9 3467.44 1334.3C3467.44 1332.7 3466.14 1331.4 3464.54 1331.4C3462.94 1331.4 3461.64 1332.7 3461.64 1334.3C3461.64 1335.9 3462.94 1337.2 3464.54 1337.2Z" fill="#ACACAC"/>
<path d="M3730.82 1337.2C3732.42 1337.2 3733.72 1335.9 3733.72 1334.3C3733.72 1332.7 3732.42 1331.4 3730.82 1331.4C3729.22 1331.4 3727.92 1332.7 3727.92 1334.3C3727.92 1335.9 3729.22 1337.2 3730.82 1337.2Z" fill="#ACACAC"/>
<path d="M3997.1 1337.2C3998.7 1337.2 4000 1335.9 4000 1334.3C4000 1332.7 3998.7 1331.4 3997.1 1331.4C3995.5 1331.4 3994.2 1332.7 3994.2 1334.3C3994.2 1335.9 3995.5 1337.2 3997.1 1337.2Z" fill="#ACACAC"/>
<path d="M2.90065 1603.48C4.50264 1603.48 5.80131 1602.18 5.80131 1600.58C5.80131 1598.98 4.50264 1597.68 2.90065 1597.68C1.29867 1597.68 0 1598.98 0 1600.58C0 1602.18 1.29867 1603.48 2.90065 1603.48Z" fill="#ACACAC"/>
<path d="M269.181 1603.48C270.783 1603.48 272.082 1602.18 272.082 1600.58C272.082 1598.98 270.783 1597.68 269.181 1597.68C267.579 1597.68 266.28 1598.98 266.28 1600.58C266.28 1602.18 267.579 1603.48 269.181 1603.48Z" fill="#ACACAC"/>
<path d="M535.46 1603.48C537.062 1603.48 538.361 1602.18 538.361 1600.58C538.361 1598.98 537.062 1597.68 535.46 1597.68C533.858 1597.68 532.56 1598.98 532.56 1600.58C532.56 1602.18 533.858 1603.48 535.46 1603.48Z" fill="#ACACAC"/>
<path d="M801.74 1603.48C803.342 1603.48 804.641 1602.18 804.641 1600.58C804.641 1598.98 803.342 1597.68 801.74 1597.68C800.139 1597.68 798.84 1598.98 798.84 1600.58C798.84 1602.18 800.139 1603.48 801.74 1603.48Z" fill="#ACACAC"/>
<path d="M1068.02 1603.48C1069.62 1603.48 1070.92 1602.18 1070.92 1600.58C1070.92 1598.98 1069.62 1597.68 1068.02 1597.68C1066.42 1597.68 1065.12 1598.98 1065.12 1600.58C1065.12 1602.18 1066.42 1603.48 1068.02 1603.48Z" fill="#ACACAC"/>
<path d="M1334.3 1603.48C1335.9 1603.48 1337.2 1602.18 1337.2 1600.58C1337.2 1598.98 1335.9 1597.68 1334.3 1597.68C1332.7 1597.68 1331.4 1598.98 1331.4 1600.58C1331.4 1602.18 1332.7 1603.48 1334.3 1603.48Z" fill="#ACACAC"/>
<path d="M1600.58 1603.48C1602.18 1603.48 1603.48 1602.18 1603.48 1600.58C1603.48 1598.98 1602.18 1597.68 1600.58 1597.68C1598.98 1597.68 1597.68 1598.98 1597.68 1600.58C1597.68 1602.18 1598.98 1603.48 1600.58 1603.48Z" fill="#ACACAC"/>
<path d="M1866.86 1603.48C1868.46 1603.48 1869.76 1602.18 1869.76 1600.58C1869.76 1598.98 1868.46 1597.68 1866.86 1597.68C1865.26 1597.68 1863.96 1598.98 1863.96 1600.58C1863.96 1602.18 1865.26 1603.48 1866.86 1603.48Z" fill="#ACACAC"/>
<path d="M2133.14 1603.48C2134.74 1603.48 2136.04 1602.18 2136.04 1600.58C2136.04 1598.98 2134.74 1597.68 2133.14 1597.68C2131.54 1597.68 2130.24 1598.98 2130.24 1600.58C2130.24 1602.18 2131.54 1603.48 2133.14 1603.48Z" fill="#ACACAC"/>
<path d="M2399.42 1603.48C2401.02 1603.48 2402.32 1602.18 2402.32 1600.58C2402.32 1598.98 2401.02 1597.68 2399.42 1597.68C2397.82 1597.68 2396.52 1598.98 2396.52 1600.58C2396.52 1602.18 2397.82 1603.48 2399.42 1603.48Z" fill="#ACACAC"/>
<path d="M2665.7 1603.48C2667.3 1603.48 2668.6 1602.18 2668.6 1600.58C2668.6 1598.98 2667.3 1597.68 2665.7 1597.68C2664.1 1597.68 2662.8 1598.98 2662.8 1600.58C2662.8 1602.18 2664.1 1603.48 2665.7 1603.48Z" fill="#ACACAC"/>
<path d="M2931.98 1603.48C2933.58 1603.48 2934.88 1602.18 2934.88 1600.58C2934.88 1598.98 2933.58 1597.68 2931.98 1597.68C2930.38 1597.68 2929.08 1598.98 2929.08 1600.58C2929.08 1602.18 2930.38 1603.48 2931.98 1603.48Z" fill="#ACACAC"/>
<path d="M3198.26 1603.48C3199.86 1603.48 3201.16 1602.18 3201.16 1600.58C3201.16 1598.98 3199.86 1597.68 3198.26 1597.68C3196.66 1597.68 3195.36 1598.98 3195.36 1600.58C3195.36 1602.18 3196.66 1603.48 3198.26 1603.48Z" fill="#ACACAC"/>
<path d="M3464.54 1603.48C3466.14 1603.48 3467.44 1602.18 3467.44 1600.58C3467.44 1598.98 3466.14 1597.68 3464.54 1597.68C3462.94 1597.68 3461.64 1598.98 3461.64 1600.58C3461.64 1602.18 3462.94 1603.48 3464.54 1603.48Z" fill="#ACACAC"/>
<path d="M3730.82 1603.48C3732.42 1603.48 3733.72 1602.18 3733.72 1600.58C3733.72 1598.98 3732.42 1597.68 3730.82 1597.68C3729.22 1597.68 3727.92 1598.98 3727.92 1600.58C3727.92 1602.18 3729.22 1603.48 3730.82 1603.48Z" fill="#ACACAC"/>
<path d="M3997.1 1603.48C3998.7 1603.48 4000 1602.18 4000 1600.58C4000 1598.98 3998.7 1597.68 3997.1 1597.68C3995.5 1597.68 3994.2 1598.98 3994.2 1600.58C3994.2 1602.18 3995.5 1603.48 3997.1 1603.48Z" fill="#ACACAC"/>
<path d="M2.90065 1869.76C4.50264 1869.76 5.80131 1868.46 5.80131 1866.86C5.80131 1865.26 4.50264 1863.96 2.90065 1863.96C1.29867 1863.96 0 1865.26 0 1866.86C0 1868.46 1.29867 1869.76 2.90065 1869.76Z" fill="#ACACAC"/>
<path d="M269.181 1869.76C270.783 1869.76 272.082 1868.46 272.082 1866.86C272.082 1865.26 270.783 1863.96 269.181 1863.96C267.579 1863.96 266.28 1865.26 266.28 1866.86C266.28 1868.46 267.579 1869.76 269.181 1869.76Z" fill="#ACACAC"/>
<path d="M535.46 1869.76C537.062 1869.76 538.361 1868.46 538.361 1866.86C538.361 1865.26 537.062 1863.96 535.46 1863.96C533.858 1863.96 532.56 1865.26 532.56 1866.86C532.56 1868.46 533.858 1869.76 535.46 1869.76Z" fill="#ACACAC"/>
<path d="M801.74 1869.76C803.342 1869.76 804.641 1868.46 804.641 1866.86C804.641 1865.26 803.342 1863.96 801.74 1863.96C800.139 1863.96 798.84 1865.26 798.84 1866.86C798.84 1868.46 800.139 1869.76 801.74 1869.76Z" fill="#ACACAC"/>
<path d="M1068.02 1869.76C1069.62 1869.76 1070.92 1868.46 1070.92 1866.86C1070.92 1865.26 1069.62 1863.96 1068.02 1863.96C1066.42 1863.96 1065.12 1865.26 1065.12 1866.86C1065.12 1868.46 1066.42 1869.76 1068.02 1869.76Z" fill="#ACACAC"/>
<path d="M1334.3 1869.76C1335.9 1869.76 1337.2 1868.46 1337.2 1866.86C1337.2 1865.26 1335.9 1863.96 1334.3 1863.96C1332.7 1863.96 1331.4 1865.26 1331.4 1866.86C1331.4 1868.46 1332.7 1869.76 1334.3 1869.76Z" fill="#ACACAC"/>
<path d="M1600.58 1869.76C1602.18 1869.76 1603.48 1868.46 1603.48 1866.86C1603.48 1865.26 1602.18 1863.96 1600.58 1863.96C1598.98 1863.96 1597.68 1865.26 1597.68 1866.86C1597.68 1868.46 1598.98 1869.76 1600.58 1869.76Z" fill="#ACACAC"/>
<path d="M1866.86 1869.76C1868.46 1869.76 1869.76 1868.46 1869.76 1866.86C1869.76 1865.26 1868.46 1863.96 1866.86 1863.96C1865.26 1863.96 1863.96 1865.26 1863.96 1866.86C1863.96 1868.46 1865.26 1869.76 1866.86 1869.76Z" fill="#ACACAC"/>
<path d="M2133.14 1869.76C2134.74 1869.76 2136.04 1868.46 2136.04 1866.86C2136.04 1865.26 2134.74 1863.96 2133.14 1863.96C2131.54 1863.96 2130.24 1865.26 2130.24 1866.86C2130.24 1868.46 2131.54 1869.76 2133.14 1869.76Z" fill="#ACACAC"/>
<path d="M2399.42 1869.76C2401.02 1869.76 2402.32 1868.46 2402.32 1866.86C2402.32 1865.26 2401.02 1863.96 2399.42 1863.96C2397.82 1863.96 2396.52 1865.26 2396.52 1866.86C2396.52 1868.46 2397.82 1869.76 2399.42 1869.76Z" fill="#ACACAC"/>
<path d="M2665.7 1869.76C2667.3 1869.76 2668.6 1868.46 2668.6 1866.86C2668.6 1865.26 2667.3 1863.96 2665.7 1863.96C2664.1 1863.96 2662.8 1865.26 2662.8 1866.86C2662.8 1868.46 2664.1 1869.76 2665.7 1869.76Z" fill="#ACACAC"/>
<path d="M2931.98 1869.76C2933.58 1869.76 2934.88 1868.46 2934.88 1866.86C2934.88 1865.26 2933.58 1863.96 2931.98 1863.96C2930.38 1863.96 2929.08 1865.26 2929.08 1866.86C2929.08 1868.46 2930.38 1869.76 2931.98 1869.76Z" fill="#ACACAC"/>
<path d="M3198.26 1869.76C3199.86 1869.76 3201.16 1868.46 3201.16 1866.86C3201.16 1865.26 3199.86 1863.96 3198.26 1863.96C3196.66 1863.96 3195.36 1865.26 3195.36 1866.86C3195.36 1868.46 3196.66 1869.76 3198.26 1869.76Z" fill="#ACACAC"/>
<path d="M3464.54 1869.76C3466.14 1869.76 3467.44 1868.46 3467.44 1866.86C3467.44 1865.26 3466.14 1863.96 3464.54 1863.96C3462.94 1863.96 3461.64 1865.26 3461.64 1866.86C3461.64 1868.46 3462.94 1869.76 3464.54 1869.76Z" fill="#ACACAC"/>
<path d="M3730.82 1869.76C3732.42 1869.76 3733.72 1868.46 3733.72 1866.86C3733.72 1865.26 3732.42 1863.96 3730.82 1863.96C3729.22 1863.96 3727.92 1865.26 3727.92 1866.86C3727.92 1868.46 3729.22 1869.76 3730.82 1869.76Z" fill="#ACACAC"/>
<path d="M3997.1 1869.76C3998.7 1869.76 4000 1868.46 4000 1866.86C4000 1865.26 3998.7 1863.96 3997.1 1863.96C3995.5 1863.96 3994.2 1865.26 3994.2 1866.86C3994.2 1868.46 3995.5 1869.76 3997.1 1869.76Z" fill="#ACACAC"/>
<path d="M2.90065 2136.04C4.50264 2136.04 5.80131 2134.74 5.80131 2133.14C5.80131 2131.54 4.50264 2130.24 2.90065 2130.24C1.29867 2130.24 0 2131.54 0 2133.14C0 2134.74 1.29867 2136.04 2.90065 2136.04Z" fill="#ACACAC"/>
<path d="M269.181 2136.04C270.783 2136.04 272.082 2134.74 272.082 2133.14C272.082 2131.54 270.783 2130.24 269.181 2130.24C267.579 2130.24 266.28 2131.54 266.28 2133.14C266.28 2134.74 267.579 2136.04 269.181 2136.04Z" fill="#ACACAC"/>
<path d="M535.46 2136.04C537.062 2136.04 538.361 2134.74 538.361 2133.14C538.361 2131.54 537.062 2130.24 535.46 2130.24C533.858 2130.24 532.56 2131.54 532.56 2133.14C532.56 2134.74 533.858 2136.04 535.46 2136.04Z" fill="#ACACAC"/>
<path d="M801.74 2136.04C803.342 2136.04 804.641 2134.74 804.641 2133.14C804.641 2131.54 803.342 2130.24 801.74 2130.24C800.139 2130.24 798.84 2131.54 798.84 2133.14C798.84 2134.74 800.139 2136.04 801.74 2136.04Z" fill="#ACACAC"/>
<path d="M1068.02 2136.04C1069.62 2136.04 1070.92 2134.74 1070.92 2133.14C1070.92 2131.54 1069.62 2130.24 1068.02 2130.24C1066.42 2130.24 1065.12 2131.54 1065.12 2133.14C1065.12 2134.74 1066.42 2136.04 1068.02 2136.04Z" fill="#ACACAC"/>
<path d="M1334.3 2136.04C1335.9 2136.04 1337.2 2134.74 1337.2 2133.14C1337.2 2131.54 1335.9 2130.24 1334.3 2130.24C1332.7 2130.24 1331.4 2131.54 1331.4 2133.14C1331.4 2134.74 1332.7 2136.04 1334.3 2136.04Z" fill="#ACACAC"/>
<path d="M1600.58 2136.04C1602.18 2136.04 1603.48 2134.74 1603.48 2133.14C1603.48 2131.54 1602.18 2130.24 1600.58 2130.24C1598.98 2130.24 1597.68 2131.54 1597.68 2133.14C1597.68 2134.74 1598.98 2136.04 1600.58 2136.04Z" fill="#ACACAC"/>
<path d="M1866.86 2136.04C1868.46 2136.04 1869.76 2134.74 1869.76 2133.14C1869.76 2131.54 1868.46 2130.24 1866.86 2130.24C1865.26 2130.24 1863.96 2131.54 1863.96 2133.14C1863.96 2134.74 1865.26 2136.04 1866.86 2136.04Z" fill="#ACACAC"/>
<path d="M2133.14 2136.04C2134.74 2136.04 2136.04 2134.74 2136.04 2133.14C2136.04 2131.54 2134.74 2130.24 2133.14 2130.24C2131.54 2130.24 2130.24 2131.54 2130.24 2133.14C2130.24 2134.74 2131.54 2136.04 2133.14 2136.04Z" fill="#ACACAC"/>
<path d="M2399.42 2136.04C2401.02 2136.04 2402.32 2134.74 2402.32 2133.14C2402.32 2131.54 2401.02 2130.24 2399.42 2130.24C2397.82 2130.24 2396.52 2131.54 2396.52 2133.14C2396.52 2134.74 2397.82 2136.04 2399.42 2136.04Z" fill="#ACACAC"/>
<path d="M2665.7 2136.04C2667.3 2136.04 2668.6 2134.74 2668.6 2133.14C2668.6 2131.54 2667.3 2130.24 2665.7 2130.24C2664.1 2130.24 2662.8 2131.54 2662.8 2133.14C2662.8 2134.74 2664.1 2136.04 2665.7 2136.04Z" fill="#ACACAC"/>
<path d="M2931.98 2136.04C2933.58 2136.04 2934.88 2134.74 2934.88 2133.14C2934.88 2131.54 2933.58 2130.24 2931.98 2130.24C2930.38 2130.24 2929.08 2131.54 2929.08 2133.14C2929.08 2134.74 2930.38 2136.04 2931.98 2136.04Z" fill="#ACACAC"/>
<path d="M3198.26 2136.04C3199.86 2136.04 3201.16 2134.74 3201.16 2133.14C3201.16 2131.54 3199.86 2130.24 3198.26 2130.24C3196.66 2130.24 3195.36 2131.54 3195.36 2133.14C3195.36 2134.74 3196.66 2136.04 3198.26 2136.04Z" fill="#ACACAC"/>
<path d="M3464.54 2136.04C3466.14 2136.04 3467.44 2134.74 3467.44 2133.14C3467.44 2131.54 3466.14 2130.24 3464.54 2130.24C3462.94 2130.24 3461.64 2131.54 3461.64 2133.14C3461.64 2134.74 3462.94 2136.04 3464.54 2136.04Z" fill="#ACACAC"/>
<path d="M3730.82 2136.04C3732.42 2136.04 3733.72 2134.74 3733.72 2133.14C3733.72 2131.54 3732.42 2130.24 3730.82 2130.24C3729.22 2130.24 3727.92 2131.54 3727.92 2133.14C3727.92 2134.74 3729.22 2136.04 3730.82 2136.04Z" fill="#ACACAC"/>
<path d="M3997.1 2136.04C3998.7 2136.04 4000 2134.74 4000 2133.14C4000 2131.54 3998.7 2130.24 3997.1 2130.24C3995.5 2130.24 3994.2 2131.54 3994.2 2133.14C3994.2 2134.74 3995.5 2136.04 3997.1 2136.04Z" fill="#ACACAC"/>
<path d="M2.90065 2402.32C4.50264 2402.32 5.80131 2401.02 5.80131 2399.42C5.80131 2397.82 4.50264 2396.52 2.90065 2396.52C1.29867 2396.52 0 2397.82 0 2399.42C0 2401.02 1.29867 2402.32 2.90065 2402.32Z" fill="#ACACAC"/>
<path d="M269.181 2402.32C270.783 2402.32 272.082 2401.02 272.082 2399.42C272.082 2397.82 270.783 2396.52 269.181 2396.52C267.579 2396.52 266.28 2397.82 266.28 2399.42C266.28 2401.02 267.579 2402.32 269.181 2402.32Z" fill="#ACACAC"/>
<path d="M535.46 2402.32C537.062 2402.32 538.361 2401.02 538.361 2399.42C538.361 2397.82 537.062 2396.52 535.46 2396.52C533.858 2396.52 532.56 2397.82 532.56 2399.42C532.56 2401.02 533.858 2402.32 535.46 2402.32Z" fill="#ACACAC"/>
<path d="M801.74 2402.32C803.342 2402.32 804.641 2401.02 804.641 2399.42C804.641 2397.82 803.342 2396.52 801.74 2396.52C800.139 2396.52 798.84 2397.82 798.84 2399.42C798.84 2401.02 800.139 2402.32 801.74 2402.32Z" fill="#ACACAC"/>
<path d="M1068.02 2402.32C1069.62 2402.32 1070.92 2401.02 1070.92 2399.42C1070.92 2397.82 1069.62 2396.52 1068.02 2396.52C1066.42 2396.52 1065.12 2397.82 1065.12 2399.42C1065.12 2401.02 1066.42 2402.32 1068.02 2402.32Z" fill="#ACACAC"/>
<path d="M1334.3 2402.32C1335.9 2402.32 1337.2 2401.02 1337.2 2399.42C1337.2 2397.82 1335.9 2396.52 1334.3 2396.52C1332.7 2396.52 1331.4 2397.82 1331.4 2399.42C1331.4 2401.02 1332.7 2402.32 1334.3 2402.32Z" fill="#ACACAC"/>
<path d="M1600.58 2402.32C1602.18 2402.32 1603.48 2401.02 1603.48 2399.42C1603.48 2397.82 1602.18 2396.52 1600.58 2396.52C1598.98 2396.52 1597.68 2397.82 1597.68 2399.42C1597.68 2401.02 1598.98 2402.32 1600.58 2402.32Z" fill="#ACACAC"/>
<path d="M1866.86 2402.32C1868.46 2402.32 1869.76 2401.02 1869.76 2399.42C1869.76 2397.82 1868.46 2396.52 1866.86 2396.52C1865.26 2396.52 1863.96 2397.82 1863.96 2399.42C1863.96 2401.02 1865.26 2402.32 1866.86 2402.32Z" fill="#ACACAC"/>
<path d="M2133.14 2402.32C2134.74 2402.32 2136.04 2401.02 2136.04 2399.42C2136.04 2397.82 2134.74 2396.52 2133.14 2396.52C2131.54 2396.52 2130.24 2397.82 2130.24 2399.42C2130.24 2401.02 2131.54 2402.32 2133.14 2402.32Z" fill="#ACACAC"/>
<path d="M2399.42 2402.32C2401.02 2402.32 2402.32 2401.02 2402.32 2399.42C2402.32 2397.82 2401.02 2396.52 2399.42 2396.52C2397.82 2396.52 2396.52 2397.82 2396.52 2399.42C2396.52 2401.02 2397.82 2402.32 2399.42 2402.32Z" fill="#ACACAC"/>
<path d="M2665.7 2402.32C2667.3 2402.32 2668.6 2401.02 2668.6 2399.42C2668.6 2397.82 2667.3 2396.52 2665.7 2396.52C2664.1 2396.52 2662.8 2397.82 2662.8 2399.42C2662.8 2401.02 2664.1 2402.32 2665.7 2402.32Z" fill="#ACACAC"/>
<path d="M2931.98 2402.32C2933.58 2402.32 2934.88 2401.02 2934.88 2399.42C2934.88 2397.82 2933.58 2396.52 2931.98 2396.52C2930.38 2396.52 2929.08 2397.82 2929.08 2399.42C2929.08 2401.02 2930.38 2402.32 2931.98 2402.32Z" fill="#ACACAC"/>
<path d="M3198.26 2402.32C3199.86 2402.32 3201.16 2401.02 3201.16 2399.42C3201.16 2397.82 3199.86 2396.52 3198.26 2396.52C3196.66 2396.52 3195.36 2397.82 3195.36 2399.42C3195.36 2401.02 3196.66 2402.32 3198.26 2402.32Z" fill="#ACACAC"/>
<path d="M3464.54 2402.32C3466.14 2402.32 3467.44 2401.02 3467.44 2399.42C3467.44 2397.82 3466.14 2396.52 3464.54 2396.52C3462.94 2396.52 3461.64 2397.82 3461.64 2399.42C3461.64 2401.02 3462.94 2402.32 3464.54 2402.32Z" fill="#ACACAC"/>
<path d="M3730.82 2402.32C3732.42 2402.32 3733.72 2401.02 3733.72 2399.42C3733.72 2397.82 3732.42 2396.52 3730.82 2396.52C3729.22 2396.52 3727.92 2397.82 3727.92 2399.42C3727.92 2401.02 3729.22 2402.32 3730.82 2402.32Z" fill="#ACACAC"/>
<path d="M3997.1 2402.32C3998.7 2402.32 4000 2401.02 4000 2399.42C4000 2397.82 3998.7 2396.52 3997.1 2396.52C3995.5 2396.52 3994.2 2397.82 3994.2 2399.42C3994.2 2401.02 3995.5 2402.32 3997.1 2402.32Z" fill="#ACACAC"/>
<path d="M2.90065 2668.6C4.50264 2668.6 5.80131 2667.3 5.80131 2665.7C5.80131 2664.1 4.50264 2662.8 2.90065 2662.8C1.29867 2662.8 0 2664.1 0 2665.7C0 2667.3 1.29867 2668.6 2.90065 2668.6Z" fill="#ACACAC"/>
<path d="M269.181 2668.6C270.783 2668.6 272.082 2667.3 272.082 2665.7C272.082 2664.1 270.783 2662.8 269.181 2662.8C267.579 2662.8 266.28 2664.1 266.28 2665.7C266.28 2667.3 267.579 2668.6 269.181 2668.6Z" fill="#ACACAC"/>
<path d="M535.46 2668.6C537.062 2668.6 538.361 2667.3 538.361 2665.7C538.361 2664.1 537.062 2662.8 535.46 2662.8C533.858 2662.8 532.56 2664.1 532.56 2665.7C532.56 2667.3 533.858 2668.6 535.46 2668.6Z" fill="#ACACAC"/>
<path d="M801.74 2668.6C803.342 2668.6 804.641 2667.3 804.641 2665.7C804.641 2664.1 803.342 2662.8 801.74 2662.8C800.139 2662.8 798.84 2664.1 798.84 2665.7C798.84 2667.3 800.139 2668.6 801.74 2668.6Z" fill="#ACACAC"/>
<path d="M1068.02 2668.6C1069.62 2668.6 1070.92 2667.3 1070.92 2665.7C1070.92 2664.1 1069.62 2662.8 1068.02 2662.8C1066.42 2662.8 1065.12 2664.1 1065.12 2665.7C1065.12 2667.3 1066.42 2668.6 1068.02 2668.6Z" fill="#ACACAC"/>
<path d="M1334.3 2668.6C1335.9 2668.6 1337.2 2667.3 1337.2 2665.7C1337.2 2664.1 1335.9 2662.8 1334.3 2662.8C1332.7 2662.8 1331.4 2664.1 1331.4 2665.7C1331.4 2667.3 1332.7 2668.6 1334.3 2668.6Z" fill="#ACACAC"/>
<path d="M1600.58 2668.6C1602.18 2668.6 1603.48 2667.3 1603.48 2665.7C1603.48 2664.1 1602.18 2662.8 1600.58 2662.8C1598.98 2662.8 1597.68 2664.1 1597.68 2665.7C1597.68 2667.3 1598.98 2668.6 1600.58 2668.6Z" fill="#ACACAC"/>
<path d="M1866.86 2668.6C1868.46 2668.6 1869.76 2667.3 1869.76 2665.7C1869.76 2664.1 1868.46 2662.8 1866.86 2662.8C1865.26 2662.8 1863.96 2664.1 1863.96 2665.7C1863.96 2667.3 1865.26 2668.6 1866.86 2668.6Z" fill="#ACACAC"/>
<path d="M2133.14 2668.6C2134.74 2668.6 2136.04 2667.3 2136.04 2665.7C2136.04 2664.1 2134.74 2662.8 2133.14 2662.8C2131.54 2662.8 2130.24 2664.1 2130.24 2665.7C2130.24 2667.3 2131.54 2668.6 2133.14 2668.6Z" fill="#ACACAC"/>
<path d="M2399.42 2668.6C2401.02 2668.6 2402.32 2667.3 2402.32 2665.7C2402.32 2664.1 2401.02 2662.8 2399.42 2662.8C2397.82 2662.8 2396.52 2664.1 2396.52 2665.7C2396.52 2667.3 2397.82 2668.6 2399.42 2668.6Z" fill="#ACACAC"/>
<path d="M2665.7 2668.6C2667.3 2668.6 2668.6 2667.3 2668.6 2665.7C2668.6 2664.1 2667.3 2662.8 2665.7 2662.8C2664.1 2662.8 2662.8 2664.1 2662.8 2665.7C2662.8 2667.3 2664.1 2668.6 2665.7 2668.6Z" fill="#ACACAC"/>
<path d="M2931.98 2668.6C2933.58 2668.6 2934.88 2667.3 2934.88 2665.7C2934.88 2664.1 2933.58 2662.8 2931.98 2662.8C2930.38 2662.8 2929.08 2664.1 2929.08 2665.7C2929.08 2667.3 2930.38 2668.6 2931.98 2668.6Z" fill="#ACACAC"/>
<path d="M3198.26 2668.6C3199.86 2668.6 3201.16 2667.3 3201.16 2665.7C3201.16 2664.1 3199.86 2662.8 3198.26 2662.8C3196.66 2662.8 3195.36 2664.1 3195.36 2665.7C3195.36 2667.3 3196.66 2668.6 3198.26 2668.6Z" fill="#ACACAC"/>
<path d="M3464.54 2668.6C3466.14 2668.6 3467.44 2667.3 3467.44 2665.7C3467.44 2664.1 3466.14 2662.8 3464.54 2662.8C3462.94 2662.8 3461.64 2664.1 3461.64 2665.7C3461.64 2667.3 3462.94 2668.6 3464.54 2668.6Z" fill="#ACACAC"/>
<path d="M3730.82 2668.6C3732.42 2668.6 3733.72 2667.3 3733.72 2665.7C3733.72 2664.1 3732.42 2662.8 3730.82 2662.8C3729.22 2662.8 3727.92 2664.1 3727.92 2665.7C3727.92 2667.3 3729.22 2668.6 3730.82 2668.6Z" fill="#ACACAC"/>
<path d="M3997.1 2668.6C3998.7 2668.6 4000 2667.3 4000 2665.7C4000 2664.1 3998.7 2662.8 3997.1 2662.8C3995.5 2662.8 3994.2 2664.1 3994.2 2665.7C3994.2 2667.3 3995.5 2668.6 3997.1 2668.6Z" fill="#ACACAC"/>
<path d="M2.90065 2934.88C4.50264 2934.88 5.80131 2933.58 5.80131 2931.98C5.80131 2930.38 4.50264 2929.08 2.90065 2929.08C1.29867 2929.08 0 2930.38 0 2931.98C0 2933.58 1.29867 2934.88 2.90065 2934.88Z" fill="#ACACAC"/>
<path d="M269.181 2934.88C270.783 2934.88 272.082 2933.58 272.082 2931.98C272.082 2930.38 270.783 2929.08 269.181 2929.08C267.579 2929.08 266.28 2930.38 266.28 2931.98C266.28 2933.58 267.579 2934.88 269.181 2934.88Z" fill="#ACACAC"/>
<path d="M535.46 2934.88C537.062 2934.88 538.361 2933.58 538.361 2931.98C538.361 2930.38 537.062 2929.08 535.46 2929.08C533.858 2929.08 532.56 2930.38 532.56 2931.98C532.56 2933.58 533.858 2934.88 535.46 2934.88Z" fill="#ACACAC"/>
<path d="M801.74 2934.88C803.342 2934.88 804.641 2933.58 804.641 2931.98C804.641 2930.38 803.342 2929.08 801.74 2929.08C800.139 2929.08 798.84 2930.38 798.84 2931.98C798.84 2933.58 800.139 2934.88 801.74 2934.88Z" fill="#ACACAC"/>
<path d="M1068.02 2934.88C1069.62 2934.88 1070.92 2933.58 1070.92 2931.98C1070.92 2930.38 1069.62 2929.08 1068.02 2929.08C1066.42 2929.08 1065.12 2930.38 1065.12 2931.98C1065.12 2933.58 1066.42 2934.88 1068.02 2934.88Z" fill="#ACACAC"/>
<path d="M1334.3 2934.88C1335.9 2934.88 1337.2 2933.58 1337.2 2931.98C1337.2 2930.38 1335.9 2929.08 1334.3 2929.08C1332.7 2929.08 1331.4 2930.38 1331.4 2931.98C1331.4 2933.58 1332.7 2934.88 1334.3 2934.88Z" fill="#ACACAC"/>
<path d="M1600.58 2934.88C1602.18 2934.88 1603.48 2933.58 1603.48 2931.98C1603.48 2930.38 1602.18 2929.08 1600.58 2929.08C1598.98 2929.08 1597.68 2930.38 1597.68 2931.98C1597.68 2933.58 1598.98 2934.88 1600.58 2934.88Z" fill="#ACACAC"/>
<path d="M1866.86 2934.88C1868.46 2934.88 1869.76 2933.58 1869.76 2931.98C1869.76 2930.38 1868.46 2929.08 1866.86 2929.08C1865.26 2929.08 1863.96 2930.38 1863.96 2931.98C1863.96 2933.58 1865.26 2934.88 1866.86 2934.88Z" fill="#ACACAC"/>
<path d="M2133.14 2934.88C2134.74 2934.88 2136.04 2933.58 2136.04 2931.98C2136.04 2930.38 2134.74 2929.08 2133.14 2929.08C2131.54 2929.08 2130.24 2930.38 2130.24 2931.98C2130.24 2933.58 2131.54 2934.88 2133.14 2934.88Z" fill="#ACACAC"/>
<path d="M2399.42 2934.88C2401.02 2934.88 2402.32 2933.58 2402.32 2931.98C2402.32 2930.38 2401.02 2929.08 2399.42 2929.08C2397.82 2929.08 2396.52 2930.38 2396.52 2931.98C2396.52 2933.58 2397.82 2934.88 2399.42 2934.88Z" fill="#ACACAC"/>
<path d="M2665.7 2934.88C2667.3 2934.88 2668.6 2933.58 2668.6 2931.98C2668.6 2930.38 2667.3 2929.08 2665.7 2929.08C2664.1 2929.08 2662.8 2930.38 2662.8 2931.98C2662.8 2933.58 2664.1 2934.88 2665.7 2934.88Z" fill="#ACACAC"/>
<path d="M2931.98 2934.88C2933.58 2934.88 2934.88 2933.58 2934.88 2931.98C2934.88 2930.38 2933.58 2929.08 2931.98 2929.08C2930.38 2929.08 2929.08 2930.38 2929.08 2931.98C2929.08 2933.58 2930.38 2934.88 2931.98 2934.88Z" fill="#ACACAC"/>
<path d="M3198.26 2934.88C3199.86 2934.88 3201.16 2933.58 3201.16 2931.98C3201.16 2930.38 3199.86 2929.08 3198.26 2929.08C3196.66 2929.08 3195.36 2930.38 3195.36 2931.98C3195.36 2933.58 3196.66 2934.88 3198.26 2934.88Z" fill="#ACACAC"/>
<path d="M3464.54 2934.88C3466.14 2934.88 3467.44 2933.58 3467.44 2931.98C3467.44 2930.38 3466.14 2929.08 3464.54 2929.08C3462.94 2929.08 3461.64 2930.38 3461.64 2931.98C3461.64 2933.58 3462.94 2934.88 3464.54 2934.88Z" fill="#ACACAC"/>
<path d="M3730.82 2934.88C3732.42 2934.88 3733.72 2933.58 3733.72 2931.98C3733.72 2930.38 3732.42 2929.08 3730.82 2929.08C3729.22 2929.08 3727.92 2930.38 3727.92 2931.98C3727.92 2933.58 3729.22 2934.88 3730.82 2934.88Z" fill="#ACACAC"/>
<path d="M3997.1 2934.88C3998.7 2934.88 4000 2933.58 4000 2931.98C4000 2930.38 3998.7 2929.08 3997.1 2929.08C3995.5 2929.08 3994.2 2930.38 3994.2 2931.98C3994.2 2933.58 3995.5 2934.88 3997.1 2934.88Z" fill="#ACACAC"/>
<path d="M2.90065 3201.16C4.50264 3201.16 5.80131 3199.86 5.80131 3198.26C5.80131 3196.66 4.50264 3195.36 2.90065 3195.36C1.29867 3195.36 0 3196.66 0 3198.26C0 3199.86 1.29867 3201.16 2.90065 3201.16Z" fill="#ACACAC"/>
<path d="M269.181 3201.16C270.783 3201.16 272.082 3199.86 272.082 3198.26C272.082 3196.66 270.783 3195.36 269.181 3195.36C267.579 3195.36 266.28 3196.66 266.28 3198.26C266.28 3199.86 267.579 3201.16 269.181 3201.16Z" fill="#ACACAC"/>
<path d="M535.46 3201.16C537.062 3201.16 538.361 3199.86 538.361 3198.26C538.361 3196.66 537.062 3195.36 535.46 3195.36C533.858 3195.36 532.56 3196.66 532.56 3198.26C532.56 3199.86 533.858 3201.16 535.46 3201.16Z" fill="#ACACAC"/>
<path d="M801.74 3201.16C803.342 3201.16 804.641 3199.86 804.641 3198.26C804.641 3196.66 803.342 3195.36 801.74 3195.36C800.139 3195.36 798.84 3196.66 798.84 3198.26C798.84 3199.86 800.139 3201.16 801.74 3201.16Z" fill="#ACACAC"/>
<path d="M1068.02 3201.16C1069.62 3201.16 1070.92 3199.86 1070.92 3198.26C1070.92 3196.66 1069.62 3195.36 1068.02 3195.36C1066.42 3195.36 1065.12 3196.66 1065.12 3198.26C1065.12 3199.86 1066.42 3201.16 1068.02 3201.16Z" fill="#ACACAC"/>
<path d="M1334.3 3201.16C1335.9 3201.16 1337.2 3199.86 1337.2 3198.26C1337.2 3196.66 1335.9 3195.36 1334.3 3195.36C1332.7 3195.36 1331.4 3196.66 1331.4 3198.26C1331.4 3199.86 1332.7 3201.16 1334.3 3201.16Z" fill="#ACACAC"/>
<path d="M1600.58 3201.16C1602.18 3201.16 1603.48 3199.86 1603.48 3198.26C1603.48 3196.66 1602.18 3195.36 1600.58 3195.36C1598.98 3195.36 1597.68 3196.66 1597.68 3198.26C1597.68 3199.86 1598.98 3201.16 1600.58 3201.16Z" fill="#ACACAC"/>
<path d="M1866.86 3201.16C1868.46 3201.16 1869.76 3199.86 1869.76 3198.26C1869.76 3196.66 1868.46 3195.36 1866.86 3195.36C1865.26 3195.36 1863.96 3196.66 1863.96 3198.26C1863.96 3199.86 1865.26 3201.16 1866.86 3201.16Z" fill="#ACACAC"/>
<path d="M2133.14 3201.16C2134.74 3201.16 2136.04 3199.86 2136.04 3198.26C2136.04 3196.66 2134.74 3195.36 2133.14 3195.36C2131.54 3195.36 2130.24 3196.66 2130.24 3198.26C2130.24 3199.86 2131.54 3201.16 2133.14 3201.16Z" fill="#ACACAC"/>
<path d="M2399.42 3201.16C2401.02 3201.16 2402.32 3199.86 2402.32 3198.26C2402.32 3196.66 2401.02 3195.36 2399.42 3195.36C2397.82 3195.36 2396.52 3196.66 2396.52 3198.26C2396.52 3199.86 2397.82 3201.16 2399.42 3201.16Z" fill="#ACACAC"/>
<path d="M2665.7 3201.16C2667.3 3201.16 2668.6 3199.86 2668.6 3198.26C2668.6 3196.66 2667.3 3195.36 2665.7 3195.36C2664.1 3195.36 2662.8 3196.66 2662.8 3198.26C2662.8 3199.86 2664.1 3201.16 2665.7 3201.16Z" fill="#ACACAC"/>
<path d="M2931.98 3201.16C2933.58 3201.16 2934.88 3199.86 2934.88 3198.26C2934.88 3196.66 2933.58 3195.36 2931.98 3195.36C2930.38 3195.36 2929.08 3196.66 2929.08 3198.26C2929.08 3199.86 2930.38 3201.16 2931.98 3201.16Z" fill="#ACACAC"/>
<path d="M3198.26 3201.16C3199.86 3201.16 3201.16 3199.86 3201.16 3198.26C3201.16 3196.66 3199.86 3195.36 3198.26 3195.36C3196.66 3195.36 3195.36 3196.66 3195.36 3198.26C3195.36 3199.86 3196.66 3201.16 3198.26 3201.16Z" fill="#ACACAC"/>
<path d="M3464.54 3201.16C3466.14 3201.16 3467.44 3199.86 3467.44 3198.26C3467.44 3196.66 3466.14 3195.36 3464.54 3195.36C3462.94 3195.36 3461.64 3196.66 3461.64 3198.26C3461.64 3199.86 3462.94 3201.16 3464.54 3201.16Z" fill="#ACACAC"/>
<path d="M3730.82 3201.16C3732.42 3201.16 3733.72 3199.86 3733.72 3198.26C3733.72 3196.66 3732.42 3195.36 3730.82 3195.36C3729.22 3195.36 3727.92 3196.66 3727.92 3198.26C3727.92 3199.86 3729.22 3201.16 3730.82 3201.16Z" fill="#ACACAC"/>
<path d="M3997.1 3201.16C3998.7 3201.16 4000 3199.86 4000 3198.26C4000 3196.66 3998.7 3195.36 3997.1 3195.36C3995.5 3195.36 3994.2 3196.66 3994.2 3198.26C3994.2 3199.86 3995.5 3201.16 3997.1 3201.16Z" fill="#ACACAC"/>
<path d="M2.90065 3467.44C4.50264 3467.44 5.80131 3466.14 5.80131 3464.54C5.80131 3462.94 4.50264 3461.64 2.90065 3461.64C1.29867 3461.64 0 3462.94 0 3464.54C0 3466.14 1.29867 3467.44 2.90065 3467.44Z" fill="#ACACAC"/>
<path d="M269.181 3467.44C270.783 3467.44 272.082 3466.14 272.082 3464.54C272.082 3462.94 270.783 3461.64 269.181 3461.64C267.579 3461.64 266.28 3462.94 266.28 3464.54C266.28 3466.14 267.579 3467.44 269.181 3467.44Z" fill="#ACACAC"/>
<path d="M535.46 3467.44C537.062 3467.44 538.361 3466.14 538.361 3464.54C538.361 3462.94 537.062 3461.64 535.46 3461.64C533.858 3461.64 532.56 3462.94 532.56 3464.54C532.56 3466.14 533.858 3467.44 535.46 3467.44Z" fill="#ACACAC"/>
<path d="M801.74 3467.44C803.342 3467.44 804.641 3466.14 804.641 3464.54C804.641 3462.94 803.342 3461.64 801.74 3461.64C800.139 3461.64 798.84 3462.94 798.84 3464.54C798.84 3466.14 800.139 3467.44 801.74 3467.44Z" fill="#ACACAC"/>
<path d="M1068.02 3467.44C1069.62 3467.44 1070.92 3466.14 1070.92 3464.54C1070.92 3462.94 1069.62 3461.64 1068.02 3461.64C1066.42 3461.64 1065.12 3462.94 1065.12 3464.54C1065.12 3466.14 1066.42 3467.44 1068.02 3467.44Z" fill="#ACACAC"/>
<path d="M1334.3 3467.44C1335.9 3467.44 1337.2 3466.14 1337.2 3464.54C1337.2 3462.94 1335.9 3461.64 1334.3 3461.64C1332.7 3461.64 1331.4 3462.94 1331.4 3464.54C1331.4 3466.14 1332.7 3467.44 1334.3 3467.44Z" fill="#ACACAC"/>
<path d="M1600.58 3467.44C1602.18 3467.44 1603.48 3466.14 1603.48 3464.54C1603.48 3462.94 1602.18 3461.64 1600.58 3461.64C1598.98 3461.64 1597.68 3462.94 1597.68 3464.54C1597.68 3466.14 1598.98 3467.44 1600.58 3467.44Z" fill="#ACACAC"/>
<path d="M1866.86 3467.44C1868.46 3467.44 1869.76 3466.14 1869.76 3464.54C1869.76 3462.94 1868.46 3461.64 1866.86 3461.64C1865.26 3461.64 1863.96 3462.94 1863.96 3464.54C1863.96 3466.14 1865.26 3467.44 1866.86 3467.44Z" fill="#ACACAC"/>
<path d="M2133.14 3467.44C2134.74 3467.44 2136.04 3466.14 2136.04 3464.54C2136.04 3462.94 2134.74 3461.64 2133.14 3461.64C2131.54 3461.64 2130.24 3462.94 2130.24 3464.54C2130.24 3466.14 2131.54 3467.44 2133.14 3467.44Z" fill="#ACACAC"/>
<path d="M2399.42 3467.44C2401.02 3467.44 2402.32 3466.14 2402.32 3464.54C2402.32 3462.94 2401.02 3461.64 2399.42 3461.64C2397.82 3461.64 2396.52 3462.94 2396.52 3464.54C2396.52 3466.14 2397.82 3467.44 2399.42 3467.44Z" fill="#ACACAC"/>
<path d="M2665.7 3467.44C2667.3 3467.44 2668.6 3466.14 2668.6 3464.54C2668.6 3462.94 2667.3 3461.64 2665.7 3461.64C2664.1 3461.64 2662.8 3462.94 2662.8 3464.54C2662.8 3466.14 2664.1 3467.44 2665.7 3467.44Z" fill="#ACACAC"/>
<path d="M2931.98 3467.44C2933.58 3467.44 2934.88 3466.14 2934.88 3464.54C2934.88 3462.94 2933.58 3461.64 2931.98 3461.64C2930.38 3461.64 2929.08 3462.94 2929.08 3464.54C2929.08 3466.14 2930.38 3467.44 2931.98 3467.44Z" fill="#ACACAC"/>
<path d="M3198.26 3467.44C3199.86 3467.44 3201.16 3466.14 3201.16 3464.54C3201.16 3462.94 3199.86 3461.64 3198.26 3461.64C3196.66 3461.64 3195.36 3462.94 3195.36 3464.54C3195.36 3466.14 3196.66 3467.44 3198.26 3467.44Z" fill="#ACACAC"/>
<path d="M3464.54 3467.44C3466.14 3467.44 3467.44 3466.14 3467.44 3464.54C3467.44 3462.94 3466.14 3461.64 3464.54 3461.64C3462.94 3461.64 3461.64 3462.94 3461.64 3464.54C3461.64 3466.14 3462.94 3467.44 3464.54 3467.44Z" fill="#ACACAC"/>
<path d="M3730.82 3467.44C3732.42 3467.44 3733.72 3466.14 3733.72 3464.54C3733.72 3462.94 3732.42 3461.64 3730.82 3461.64C3729.22 3461.64 3727.92 3462.94 3727.92 3464.54C3727.92 3466.14 3729.22 3467.44 3730.82 3467.44Z" fill="#ACACAC"/>
<path d="M3997.1 3467.44C3998.7 3467.44 4000 3466.14 4000 3464.54C4000 3462.94 3998.7 3461.64 3997.1 3461.64C3995.5 3461.64 3994.2 3462.94 3994.2 3464.54C3994.2 3466.14 3995.5 3467.44 3997.1 3467.44Z" fill="#ACACAC"/>
<path d="M2.90065 3733.72C4.50264 3733.72 5.80131 3732.42 5.80131 3730.82C5.80131 3729.22 4.50264 3727.92 2.90065 3727.92C1.29867 3727.92 0 3729.22 0 3730.82C0 3732.42 1.29867 3733.72 2.90065 3733.72Z" fill="#ACACAC"/>
<path d="M269.181 3733.72C270.783 3733.72 272.082 3732.42 272.082 3730.82C272.082 3729.22 270.783 3727.92 269.181 3727.92C267.579 3727.92 266.28 3729.22 266.28 3730.82C266.28 3732.42 267.579 3733.72 269.181 3733.72Z" fill="#ACACAC"/>
<path d="M535.46 3733.72C537.062 3733.72 538.361 3732.42 538.361 3730.82C538.361 3729.22 537.062 3727.92 535.46 3727.92C533.858 3727.92 532.56 3729.22 532.56 3730.82C532.56 3732.42 533.858 3733.72 535.46 3733.72Z" fill="#ACACAC"/>
<path d="M801.74 3733.72C803.342 3733.72 804.641 3732.42 804.641 3730.82C804.641 3729.22 803.342 3727.92 801.74 3727.92C800.139 3727.92 798.84 3729.22 798.84 3730.82C798.84 3732.42 800.139 3733.72 801.74 3733.72Z" fill="#ACACAC"/>
<path d="M1068.02 3733.72C1069.62 3733.72 1070.92 3732.42 1070.92 3730.82C1070.92 3729.22 1069.62 3727.92 1068.02 3727.92C1066.42 3727.92 1065.12 3729.22 1065.12 3730.82C1065.12 3732.42 1066.42 3733.72 1068.02 3733.72Z" fill="#ACACAC"/>
<path d="M1334.3 3733.72C1335.9 3733.72 1337.2 3732.42 1337.2 3730.82C1337.2 3729.22 1335.9 3727.92 1334.3 3727.92C1332.7 3727.92 1331.4 3729.22 1331.4 3730.82C1331.4 3732.42 1332.7 3733.72 1334.3 3733.72Z" fill="#ACACAC"/>
<path d="M1600.58 3733.72C1602.18 3733.72 1603.48 3732.42 1603.48 3730.82C1603.48 3729.22 1602.18 3727.92 1600.58 3727.92C1598.98 3727.92 1597.68 3729.22 1597.68 3730.82C1597.68 3732.42 1598.98 3733.72 1600.58 3733.72Z" fill="#ACACAC"/>
<path d="M1866.86 3733.72C1868.46 3733.72 1869.76 3732.42 1869.76 3730.82C1869.76 3729.22 1868.46 3727.92 1866.86 3727.92C1865.26 3727.92 1863.96 3729.22 1863.96 3730.82C1863.96 3732.42 1865.26 3733.72 1866.86 3733.72Z" fill="#ACACAC"/>
<path d="M2133.14 3733.72C2134.74 3733.72 2136.04 3732.42 2136.04 3730.82C2136.04 3729.22 2134.74 3727.92 2133.14 3727.92C2131.54 3727.92 2130.24 3729.22 2130.24 3730.82C2130.24 3732.42 2131.54 3733.72 2133.14 3733.72Z" fill="#ACACAC"/>
<path d="M2399.42 3733.72C2401.02 3733.72 2402.32 3732.42 2402.32 3730.82C2402.32 3729.22 2401.02 3727.92 2399.42 3727.92C2397.82 3727.92 2396.52 3729.22 2396.52 3730.82C2396.52 3732.42 2397.82 3733.72 2399.42 3733.72Z" fill="#ACACAC"/>
<path d="M2665.7 3733.72C2667.3 3733.72 2668.6 3732.42 2668.6 3730.82C2668.6 3729.22 2667.3 3727.92 2665.7 3727.92C2664.1 3727.92 2662.8 3729.22 2662.8 3730.82C2662.8 3732.42 2664.1 3733.72 2665.7 3733.72Z" fill="#ACACAC"/>
<path d="M2931.98 3733.72C2933.58 3733.72 2934.88 3732.42 2934.88 3730.82C2934.88 3729.22 2933.58 3727.92 2931.98 3727.92C2930.38 3727.92 2929.08 3729.22 2929.08 3730.82C2929.08 3732.42 2930.38 3733.72 2931.98 3733.72Z" fill="#ACACAC"/>
<path d="M3198.26 3733.72C3199.86 3733.72 3201.16 3732.42 3201.16 3730.82C3201.16 3729.22 3199.86 3727.92 3198.26 3727.92C3196.66 3727.92 3195.36 3729.22 3195.36 3730.82C3195.36 3732.42 3196.66 3733.72 3198.26 3733.72Z" fill="#ACACAC"/>
<path d="M3464.54 3733.72C3466.14 3733.72 3467.44 3732.42 3467.44 3730.82C3467.44 3729.22 3466.14 3727.92 3464.54 3727.92C3462.94 3727.92 3461.64 3729.22 3461.64 3730.82C3461.64 3732.42 3462.94 3733.72 3464.54 3733.72Z" fill="#ACACAC"/>
<path d="M3730.82 3733.72C3732.42 3733.72 3733.72 3732.42 3733.72 3730.82C3733.72 3729.22 3732.42 3727.92 3730.82 3727.92C3729.22 3727.92 3727.92 3729.22 3727.92 3730.82C3727.92 3732.42 3729.22 3733.72 3730.82 3733.72Z" fill="#ACACAC"/>
<path d="M3997.1 3733.72C3998.7 3733.72 4000 3732.42 4000 3730.82C4000 3729.22 3998.7 3727.92 3997.1 3727.92C3995.5 3727.92 3994.2 3729.22 3994.2 3730.82C3994.2 3732.42 3995.5 3733.72 3997.1 3733.72Z" fill="#ACACAC"/>
<path d="M2.90065 4000C4.50264 4000 5.80131 3998.7 5.80131 3997.1C5.80131 3995.5 4.50264 3994.2 2.90065 3994.2C1.29867 3994.2 0 3995.5 0 3997.1C0 3998.7 1.29867 4000 2.90065 4000Z" fill="#ACACAC"/>
<path d="M269.181 4000C270.783 4000 272.082 3998.7 272.082 3997.1C272.082 3995.5 270.783 3994.2 269.181 3994.2C267.579 3994.2 266.28 3995.5 266.28 3997.1C266.28 3998.7 267.579 4000 269.181 4000Z" fill="#ACACAC"/>
<path d="M535.46 4000C537.062 4000 538.361 3998.7 538.361 3997.1C538.361 3995.5 537.062 3994.2 535.46 3994.2C533.858 3994.2 532.56 3995.5 532.56 3997.1C532.56 3998.7 533.858 4000 535.46 4000Z" fill="#ACACAC"/>
<path d="M801.74 4000C803.342 4000 804.641 3998.7 804.641 3997.1C804.641 3995.5 803.342 3994.2 801.74 3994.2C800.139 3994.2 798.84 3995.5 798.84 3997.1C798.84 3998.7 800.139 4000 801.74 4000Z" fill="#ACACAC"/>
<path d="M1068.02 4000C1069.62 4000 1070.92 3998.7 1070.92 3997.1C1070.92 3995.5 1069.62 3994.2 1068.02 3994.2C1066.42 3994.2 1065.12 3995.5 1065.12 3997.1C1065.12 3998.7 1066.42 4000 1068.02 4000Z" fill="#ACACAC"/>
<path d="M1334.3 4000C1335.9 4000 1337.2 3998.7 1337.2 3997.1C1337.2 3995.5 1335.9 3994.2 1334.3 3994.2C1332.7 3994.2 1331.4 3995.5 1331.4 3997.1C1331.4 3998.7 1332.7 4000 1334.3 4000Z" fill="#ACACAC"/>
<path d="M1600.58 4000C1602.18 4000 1603.48 3998.7 1603.48 3997.1C1603.48 3995.5 1602.18 3994.2 1600.58 3994.2C1598.98 3994.2 1597.68 3995.5 1597.68 3997.1C1597.68 3998.7 1598.98 4000 1600.58 4000Z" fill="#ACACAC"/>
<path d="M1866.86 4000C1868.46 4000 1869.76 3998.7 1869.76 3997.1C1869.76 3995.5 1868.46 3994.2 1866.86 3994.2C1865.26 3994.2 1863.96 3995.5 1863.96 3997.1C1863.96 3998.7 1865.26 4000 1866.86 4000Z" fill="#ACACAC"/>
<path d="M2133.14 4000C2134.74 4000 2136.04 3998.7 2136.04 3997.1C2136.04 3995.5 2134.74 3994.2 2133.14 3994.2C2131.54 3994.2 2130.24 3995.5 2130.24 3997.1C2130.24 3998.7 2131.54 4000 2133.14 4000Z" fill="#ACACAC"/>
<path d="M2399.42 4000C2401.02 4000 2402.32 3998.7 2402.32 3997.1C2402.32 3995.5 2401.02 3994.2 2399.42 3994.2C2397.82 3994.2 2396.52 3995.5 2396.52 3997.1C2396.52 3998.7 2397.82 4000 2399.42 4000Z" fill="#ACACAC"/>
<path d="M2665.7 4000C2667.3 4000 2668.6 3998.7 2668.6 3997.1C2668.6 3995.5 2667.3 3994.2 2665.7 3994.2C2664.1 3994.2 2662.8 3995.5 2662.8 3997.1C2662.8 3998.7 2664.1 4000 2665.7 4000Z" fill="#ACACAC"/>
<path d="M2931.98 4000C2933.58 4000 2934.88 3998.7 2934.88 3997.1C2934.88 3995.5 2933.58 3994.2 2931.98 3994.2C2930.38 3994.2 2929.08 3995.5 2929.08 3997.1C2929.08 3998.7 2930.38 4000 2931.98 4000Z" fill="#ACACAC"/>
<path d="M3198.26 4000C3199.86 4000 3201.16 3998.7 3201.16 3997.1C3201.16 3995.5 3199.86 3994.2 3198.26 3994.2C3196.66 3994.2 3195.36 3995.5 3195.36 3997.1C3195.36 3998.7 3196.66 4000 3198.26 4000Z" fill="#ACACAC"/>
<path d="M3464.54 4000C3466.14 4000 3467.44 3998.7 3467.44 3997.1C3467.44 3995.5 3466.14 3994.2 3464.54 3994.2C3462.94 3994.2 3461.64 3995.5 3461.64 3997.1C3461.64 3998.7 3462.94 4000 3464.54 4000Z" fill="#ACACAC"/>
<path d="M3730.82 4000C3732.42 4000 3733.72 3998.7 3733.72 3997.1C3733.72 3995.5 3732.42 3994.2 3730.82 3994.2C3729.22 3994.2 3727.92 3995.5 3727.92 3997.1C3727.92 3998.7 3729.22 4000 3730.82 4000Z" fill="#ACACAC"/>
<path d="M3997.1 4000C3998.7 4000 4000 3998.7 4000 3997.1C4000 3995.5 3998.7 3994.2 3997.1 3994.2C3995.5 3994.2 3994.2 3995.5 3994.2 3997.1C3994.2 3998.7 3995.5 4000 3997.1 4000Z" fill="#ACACAC"/>
</svg>
