<svg width="5000" height="5000" viewBox="0 0 5000 5000" fill="none" xmlns="http://www.w3.org/2000/svg">
<path d="M5.79626 11.5925C8.99745 11.5925 11.5925 8.99745 11.5925 5.79626C11.5925 2.59507 8.99745 0 5.79626 0C2.59507 0 0 2.59507 0 5.79626C0 8.99745 2.59507 11.5925 5.79626 11.5925Z" fill="#A7A7A7"/>
<path d="M338.357 11.5925C341.558 11.5925 344.153 8.99745 344.153 5.79626C344.153 2.59507 341.558 0 338.357 0C335.156 0 332.561 2.59507 332.561 5.79626C332.561 8.99745 335.156 11.5925 338.357 11.5925Z" fill="#A7A7A7"/>
<path d="M670.917 11.5925C674.119 11.5925 676.714 8.99745 676.714 5.79626C676.714 2.59507 674.119 0 670.917 0C667.716 0 665.121 2.59507 665.121 5.79626C665.121 8.99745 667.716 11.5925 670.917 11.5925Z" fill="#A7A7A7"/>
<path d="M1003.48 11.5925C1006.68 11.5925 1009.27 8.99745 1009.27 5.79626C1009.27 2.59507 1006.68 0 1003.48 0C1000.28 0 997.682 2.59507 997.682 5.79626C997.682 8.99745 1000.28 11.5925 1003.48 11.5925Z" fill="#A7A7A7"/>
<path d="M1336.04 11.5925C1339.24 11.5925 1341.83 8.99745 1341.83 5.79626C1341.83 2.59507 1339.24 0 1336.04 0C1332.84 0 1330.24 2.59507 1330.24 5.79626C1330.24 8.99745 1332.84 11.5925 1336.04 11.5925Z" fill="#A7A7A7"/>
<path d="M1668.6 11.5925C1671.8 11.5925 1674.4 8.99745 1674.4 5.79626C1674.4 2.59507 1671.8 0 1668.6 0C1665.4 0 1662.8 2.59507 1662.8 5.79626C1662.8 8.99745 1665.4 11.5925 1668.6 11.5925Z" fill="#A7A7A7"/>
<path d="M2001.16 11.5925C2004.36 11.5925 2006.96 8.99745 2006.96 5.79626C2006.96 2.59507 2004.36 0 2001.16 0C1997.96 0 1995.36 2.59507 1995.36 5.79626C1995.36 8.99745 1997.96 11.5925 2001.16 11.5925Z" fill="#A7A7A7"/>
<path d="M2333.72 11.5925C2336.92 11.5925 2339.52 8.99745 2339.52 5.79626C2339.52 2.59507 2336.92 0 2333.72 0C2330.52 0 2327.92 2.59507 2327.92 5.79626C2327.92 8.99745 2330.52 11.5925 2333.72 11.5925Z" fill="#A7A7A7"/>
<path d="M2666.28 11.5925C2669.48 11.5925 2672.08 8.99745 2672.08 5.79626C2672.08 2.59507 2669.48 0 2666.28 0C2663.08 0 2660.48 2.59507 2660.48 5.79626C2660.48 8.99745 2663.08 11.5925 2666.28 11.5925Z" fill="#A7A7A7"/>
<path d="M2998.84 11.5925C3002.04 11.5925 3004.64 8.99745 3004.64 5.79626C3004.64 2.59507 3002.04 0 2998.84 0C2995.64 0 2993.04 2.59507 2993.04 5.79626C2993.04 8.99745 2995.64 11.5925 2998.84 11.5925Z" fill="#A7A7A7"/>
<path d="M3331.4 11.5925C3334.6 11.5925 3337.2 8.99745 3337.2 5.79626C3337.2 2.59507 3334.6 0 3331.4 0C3328.2 0 3325.6 2.59507 3325.6 5.79626C3325.6 8.99745 3328.2 11.5925 3331.4 11.5925Z" fill="#A7A7A7"/>
<path d="M3663.96 11.5925C3667.16 11.5925 3669.76 8.99745 3669.76 5.79626C3669.76 2.59507 3667.16 0 3663.96 0C3660.76 0 3658.17 2.59507 3658.17 5.79626C3658.17 8.99745 3660.76 11.5925 3663.96 11.5925Z" fill="#A7A7A7"/>
<path d="M3996.52 11.5925C3999.72 11.5925 4002.32 8.99745 4002.32 5.79626C4002.32 2.59507 3999.72 0 3996.52 0C3993.32 0 3990.73 2.59507 3990.73 5.79626C3990.73 8.99745 3993.32 11.5925 3996.52 11.5925Z" fill="#A7A7A7"/>
<path d="M4329.08 11.5925C4332.28 11.5925 4334.88 8.99745 4334.88 5.79626C4334.88 2.59507 4332.28 0 4329.08 0C4325.88 0 4323.29 2.59507 4323.29 5.79626C4323.29 8.99745 4325.88 11.5925 4329.08 11.5925Z" fill="#A7A7A7"/>
<path d="M4661.64 11.5925C4664.84 11.5925 4667.44 8.99745 4667.44 5.79626C4667.44 2.59507 4664.84 0 4661.64 0C4658.44 0 4655.85 2.59507 4655.85 5.79626C4655.85 8.99745 4658.44 11.5925 4661.64 11.5925Z" fill="#A7A7A7"/>
<path d="M4994.2 11.5925C4997.41 11.5925 5000 8.99745 5000 5.79626C5000 2.59507 4997.41 0 4994.2 0C4991 0 4988.41 2.59507 4988.41 5.79626C4988.41 8.99745 4991 11.5925 4994.2 11.5925Z" fill="#A7A7A7"/>
<path d="M5.79626 344.151C8.99745 344.151 11.5925 341.556 11.5925 338.355C11.5925 335.154 8.99745 332.559 5.79626 332.559C2.59507 332.559 0 335.154 0 338.355C0 341.556 2.59507 344.151 5.79626 344.151Z" fill="#A7A7A7"/>
<path d="M338.357 344.151C341.558 344.151 344.153 341.556 344.153 338.355C344.153 335.154 341.558 332.559 338.357 332.559C335.156 332.559 332.561 335.154 332.561 338.355C332.561 341.556 335.156 344.151 338.357 344.151Z" fill="#A7A7A7"/>
<path d="M670.917 344.151C674.119 344.151 676.714 341.556 676.714 338.355C676.714 335.154 674.119 332.559 670.917 332.559C667.716 332.559 665.121 335.154 665.121 338.355C665.121 341.556 667.716 344.151 670.917 344.151Z" fill="#A7A7A7"/>
<path d="M1003.48 344.151C1006.68 344.151 1009.27 341.556 1009.27 338.355C1009.27 335.154 1006.68 332.559 1003.48 332.559C1000.28 332.559 997.682 335.154 997.682 338.355C997.682 341.556 1000.28 344.151 1003.48 344.151Z" fill="#A7A7A7"/>
<path d="M1336.04 344.151C1339.24 344.151 1341.83 341.556 1341.83 338.355C1341.83 335.154 1339.24 332.559 1336.04 332.559C1332.84 332.559 1330.24 335.154 1330.24 338.355C1330.24 341.556 1332.84 344.151 1336.04 344.151Z" fill="#A7A7A7"/>
<path d="M1668.6 344.151C1671.8 344.151 1674.4 341.556 1674.4 338.355C1674.4 335.154 1671.8 332.559 1668.6 332.559C1665.4 332.559 1662.8 335.154 1662.8 338.355C1662.8 341.556 1665.4 344.151 1668.6 344.151Z" fill="#A7A7A7"/>
<path d="M2001.16 344.151C2004.36 344.151 2006.96 341.556 2006.96 338.355C2006.96 335.154 2004.36 332.559 2001.16 332.559C1997.96 332.559 1995.36 335.154 1995.36 338.355C1995.36 341.556 1997.96 344.151 2001.16 344.151Z" fill="#A7A7A7"/>
<path d="M2333.72 344.151C2336.92 344.151 2339.52 341.556 2339.52 338.355C2339.52 335.154 2336.92 332.559 2333.72 332.559C2330.52 332.559 2327.92 335.154 2327.92 338.355C2327.92 341.556 2330.52 344.151 2333.72 344.151Z" fill="#A7A7A7"/>
<path d="M2666.28 344.151C2669.48 344.151 2672.08 341.556 2672.08 338.355C2672.08 335.154 2669.48 332.559 2666.28 332.559C2663.08 332.559 2660.48 335.154 2660.48 338.355C2660.48 341.556 2663.08 344.151 2666.28 344.151Z" fill="#A7A7A7"/>
<path d="M2998.84 344.151C3002.04 344.151 3004.64 341.556 3004.64 338.355C3004.64 335.154 3002.04 332.559 2998.84 332.559C2995.64 332.559 2993.04 335.154 2993.04 338.355C2993.04 341.556 2995.64 344.151 2998.84 344.151Z" fill="#A7A7A7"/>
<path d="M3331.4 344.151C3334.6 344.151 3337.2 341.556 3337.2 338.355C3337.2 335.154 3334.6 332.559 3331.4 332.559C3328.2 332.559 3325.6 335.154 3325.6 338.355C3325.6 341.556 3328.2 344.151 3331.4 344.151Z" fill="#A7A7A7"/>
<path d="M3663.96 344.151C3667.16 344.151 3669.76 341.556 3669.76 338.355C3669.76 335.154 3667.16 332.559 3663.96 332.559C3660.76 332.559 3658.17 335.154 3658.17 338.355C3658.17 341.556 3660.76 344.151 3663.96 344.151Z" fill="#A7A7A7"/>
<path d="M3996.52 344.151C3999.72 344.151 4002.32 341.556 4002.32 338.355C4002.32 335.154 3999.72 332.559 3996.52 332.559C3993.32 332.559 3990.73 335.154 3990.73 338.355C3990.73 341.556 3993.32 344.151 3996.52 344.151Z" fill="#A7A7A7"/>
<path d="M4329.08 344.151C4332.28 344.151 4334.88 341.556 4334.88 338.355C4334.88 335.154 4332.28 332.559 4329.08 332.559C4325.88 332.559 4323.29 335.154 4323.29 338.355C4323.29 341.556 4325.88 344.151 4329.08 344.151Z" fill="#A7A7A7"/>
<path d="M4661.64 344.151C4664.84 344.151 4667.44 341.556 4667.44 338.355C4667.44 335.154 4664.84 332.559 4661.64 332.559C4658.44 332.559 4655.85 335.154 4655.85 338.355C4655.85 341.556 4658.44 344.151 4661.64 344.151Z" fill="#A7A7A7"/>
<path d="M4994.2 344.151C4997.41 344.151 5000 341.556 5000 338.355C5000 335.154 4997.41 332.559 4994.2 332.559C4991 332.559 4988.41 335.154 4988.41 338.355C4988.41 341.556 4991 344.151 4994.2 344.151Z" fill="#A7A7A7"/>
<path d="M5.79626 676.714C8.99745 676.714 11.5925 674.119 11.5925 670.917C11.5925 667.716 8.99745 665.121 5.79626 665.121C2.59507 665.121 0 667.716 0 670.917C0 674.119 2.59507 676.714 5.79626 676.714Z" fill="#A7A7A7"/>
<path d="M338.357 676.714C341.558 676.714 344.153 674.119 344.153 670.917C344.153 667.716 341.558 665.121 338.357 665.121C335.156 665.121 332.561 667.716 332.561 670.917C332.561 674.119 335.156 676.714 338.357 676.714Z" fill="#A7A7A7"/>
<path d="M670.917 676.714C674.119 676.714 676.714 674.119 676.714 670.917C676.714 667.716 674.119 665.121 670.917 665.121C667.716 665.121 665.121 667.716 665.121 670.917C665.121 674.119 667.716 676.714 670.917 676.714Z" fill="#A7A7A7"/>
<path d="M1003.48 676.714C1006.68 676.714 1009.27 674.119 1009.27 670.917C1009.27 667.716 1006.68 665.121 1003.48 665.121C1000.28 665.121 997.682 667.716 997.682 670.917C997.682 674.119 1000.28 676.714 1003.48 676.714Z" fill="#A7A7A7"/>
<path d="M1336.04 676.714C1339.24 676.714 1341.83 674.119 1341.83 670.917C1341.83 667.716 1339.24 665.121 1336.04 665.121C1332.84 665.121 1330.24 667.716 1330.24 670.917C1330.24 674.119 1332.84 676.714 1336.04 676.714Z" fill="#A7A7A7"/>
<path d="M1668.6 676.714C1671.8 676.714 1674.4 674.119 1674.4 670.917C1674.4 667.716 1671.8 665.121 1668.6 665.121C1665.4 665.121 1662.8 667.716 1662.8 670.917C1662.8 674.119 1665.4 676.714 1668.6 676.714Z" fill="#A7A7A7"/>
<path d="M2001.16 676.714C2004.36 676.714 2006.96 674.119 2006.96 670.917C2006.96 667.716 2004.36 665.121 2001.16 665.121C1997.96 665.121 1995.36 667.716 1995.36 670.917C1995.36 674.119 1997.96 676.714 2001.16 676.714Z" fill="#A7A7A7"/>
<path d="M2333.72 676.714C2336.92 676.714 2339.52 674.119 2339.52 670.917C2339.52 667.716 2336.92 665.121 2333.72 665.121C2330.52 665.121 2327.92 667.716 2327.92 670.917C2327.92 674.119 2330.52 676.714 2333.72 676.714Z" fill="#A7A7A7"/>
<path d="M2666.28 676.714C2669.48 676.714 2672.08 674.119 2672.08 670.917C2672.08 667.716 2669.48 665.121 2666.28 665.121C2663.08 665.121 2660.48 667.716 2660.48 670.917C2660.48 674.119 2663.08 676.714 2666.28 676.714Z" fill="#A7A7A7"/>
<path d="M2998.84 676.714C3002.04 676.714 3004.64 674.119 3004.64 670.917C3004.64 667.716 3002.04 665.121 2998.84 665.121C2995.64 665.121 2993.04 667.716 2993.04 670.917C2993.04 674.119 2995.64 676.714 2998.84 676.714Z" fill="#A7A7A7"/>
<path d="M3331.4 676.714C3334.6 676.714 3337.2 674.119 3337.2 670.917C3337.2 667.716 3334.6 665.121 3331.4 665.121C3328.2 665.121 3325.6 667.716 3325.6 670.917C3325.6 674.119 3328.2 676.714 3331.4 676.714Z" fill="#A7A7A7"/>
<path d="M3663.96 676.714C3667.16 676.714 3669.76 674.119 3669.76 670.917C3669.76 667.716 3667.16 665.121 3663.96 665.121C3660.76 665.121 3658.17 667.716 3658.17 670.917C3658.17 674.119 3660.76 676.714 3663.96 676.714Z" fill="#A7A7A7"/>
<path d="M3996.52 676.714C3999.72 676.714 4002.32 674.119 4002.32 670.917C4002.32 667.716 3999.72 665.121 3996.52 665.121C3993.32 665.121 3990.73 667.716 3990.73 670.917C3990.73 674.119 3993.32 676.714 3996.52 676.714Z" fill="#A7A7A7"/>
<path d="M4329.08 676.714C4332.28 676.714 4334.88 674.119 4334.88 670.917C4334.88 667.716 4332.28 665.121 4329.08 665.121C4325.88 665.121 4323.29 667.716 4323.29 670.917C4323.29 674.119 4325.88 676.714 4329.08 676.714Z" fill="#A7A7A7"/>
<path d="M4661.64 676.714C4664.84 676.714 4667.44 674.119 4667.44 670.917C4667.44 667.716 4664.84 665.121 4661.64 665.121C4658.44 665.121 4655.85 667.716 4655.85 670.917C4655.85 674.119 4658.44 676.714 4661.64 676.714Z" fill="#A7A7A7"/>
<path d="M4994.2 676.714C4997.41 676.714 5000 674.119 5000 670.917C5000 667.716 4997.41 665.121 4994.2 665.121C4991 665.121 4988.41 667.716 4988.41 670.917C4988.41 674.119 4991 676.714 4994.2 676.714Z" fill="#A7A7A7"/>
<path d="M5.79626 1009.27C8.99745 1009.27 11.5925 1006.68 11.5925 1003.48C11.5925 1000.27 8.99745 997.68 5.79626 997.68C2.59507 997.68 0 1000.27 0 1003.48C0 1006.68 2.59507 1009.27 5.79626 1009.27Z" fill="#A7A7A7"/>
<path d="M338.357 1009.27C341.558 1009.27 344.153 1006.68 344.153 1003.48C344.153 1000.27 341.558 997.68 338.357 997.68C335.156 997.68 332.561 1000.27 332.561 1003.48C332.561 1006.68 335.156 1009.27 338.357 1009.27Z" fill="#A7A7A7"/>
<path d="M670.917 1009.27C674.119 1009.27 676.714 1006.68 676.714 1003.48C676.714 1000.27 674.119 997.68 670.917 997.68C667.716 997.68 665.121 1000.27 665.121 1003.48C665.121 1006.68 667.716 1009.27 670.917 1009.27Z" fill="#A7A7A7"/>
<path d="M1003.48 1009.27C1006.68 1009.27 1009.27 1006.68 1009.27 1003.48C1009.27 1000.27 1006.68 997.68 1003.48 997.68C1000.28 997.68 997.682 1000.27 997.682 1003.48C997.682 1006.68 1000.28 1009.27 1003.48 1009.27Z" fill="#A7A7A7"/>
<path d="M1336.04 1009.27C1339.24 1009.27 1341.83 1006.68 1341.83 1003.48C1341.83 1000.27 1339.24 997.68 1336.04 997.68C1332.84 997.68 1330.24 1000.27 1330.24 1003.48C1330.24 1006.68 1332.84 1009.27 1336.04 1009.27Z" fill="#A7A7A7"/>
<path d="M1668.6 1009.27C1671.8 1009.27 1674.4 1006.68 1674.4 1003.48C1674.4 1000.27 1671.8 997.68 1668.6 997.68C1665.4 997.68 1662.8 1000.27 1662.8 1003.48C1662.8 1006.68 1665.4 1009.27 1668.6 1009.27Z" fill="#A7A7A7"/>
<path d="M2001.16 1009.27C2004.36 1009.27 2006.96 1006.68 2006.96 1003.48C2006.96 1000.27 2004.36 997.68 2001.16 997.68C1997.96 997.68 1995.36 1000.27 1995.36 1003.48C1995.36 1006.68 1997.96 1009.27 2001.16 1009.27Z" fill="#A7A7A7"/>
<path d="M2333.72 1009.27C2336.92 1009.27 2339.52 1006.68 2339.52 1003.48C2339.52 1000.27 2336.92 997.68 2333.72 997.68C2330.52 997.68 2327.92 1000.27 2327.92 1003.48C2327.92 1006.68 2330.52 1009.27 2333.72 1009.27Z" fill="#A7A7A7"/>
<path d="M2666.28 1009.27C2669.48 1009.27 2672.08 1006.68 2672.08 1003.48C2672.08 1000.27 2669.48 997.68 2666.28 997.68C2663.08 997.68 2660.48 1000.27 2660.48 1003.48C2660.48 1006.68 2663.08 1009.27 2666.28 1009.27Z" fill="#A7A7A7"/>
<path d="M2998.84 1009.27C3002.04 1009.27 3004.64 1006.68 3004.64 1003.48C3004.64 1000.27 3002.04 997.68 2998.84 997.68C2995.64 997.68 2993.04 1000.27 2993.04 1003.48C2993.04 1006.68 2995.64 1009.27 2998.84 1009.27Z" fill="#A7A7A7"/>
<path d="M3331.4 1009.27C3334.6 1009.27 3337.2 1006.68 3337.2 1003.48C3337.2 1000.27 3334.6 997.68 3331.4 997.68C3328.2 997.68 3325.6 1000.27 3325.6 1003.48C3325.6 1006.68 3328.2 1009.27 3331.4 1009.27Z" fill="#A7A7A7"/>
<path d="M3663.96 1009.27C3667.16 1009.27 3669.76 1006.68 3669.76 1003.48C3669.76 1000.27 3667.16 997.68 3663.96 997.68C3660.76 997.68 3658.17 1000.27 3658.17 1003.48C3658.17 1006.68 3660.76 1009.27 3663.96 1009.27Z" fill="#A7A7A7"/>
<path d="M3996.52 1009.27C3999.72 1009.27 4002.32 1006.68 4002.32 1003.48C4002.32 1000.27 3999.72 997.68 3996.52 997.68C3993.32 997.68 3990.73 1000.27 3990.73 1003.48C3990.73 1006.68 3993.32 1009.27 3996.52 1009.27Z" fill="#A7A7A7"/>
<path d="M4329.08 1009.27C4332.28 1009.27 4334.88 1006.68 4334.88 1003.48C4334.88 1000.27 4332.28 997.68 4329.08 997.68C4325.88 997.68 4323.29 1000.27 4323.29 1003.48C4323.29 1006.68 4325.88 1009.27 4329.08 1009.27Z" fill="#A7A7A7"/>
<path d="M4661.64 1009.27C4664.84 1009.27 4667.44 1006.68 4667.44 1003.48C4667.44 1000.27 4664.84 997.68 4661.64 997.68C4658.44 997.68 4655.85 1000.27 4655.85 1003.48C4655.85 1006.68 4658.44 1009.27 4661.64 1009.27Z" fill="#A7A7A7"/>
<path d="M4994.2 1009.27C4997.41 1009.27 5000 1006.68 5000 1003.48C5000 1000.27 4997.41 997.68 4994.2 997.68C4991 997.68 4988.41 1000.27 4988.41 1003.48C4988.41 1006.68 4991 1009.27 4994.2 1009.27Z" fill="#A7A7A7"/>
<path d="M5.79626 1341.83C8.99745 1341.83 11.5925 1339.24 11.5925 1336.04C11.5925 1332.84 8.99745 1330.24 5.79626 1330.24C2.59507 1330.24 0 1332.84 0 1336.04C0 1339.24 2.59507 1341.83 5.79626 1341.83Z" fill="#A7A7A7"/>
<path d="M338.357 1341.83C341.558 1341.83 344.153 1339.24 344.153 1336.04C344.153 1332.84 341.558 1330.24 338.357 1330.24C335.156 1330.24 332.561 1332.84 332.561 1336.04C332.561 1339.24 335.156 1341.83 338.357 1341.83Z" fill="#A7A7A7"/>
<path d="M670.917 1341.83C674.119 1341.83 676.714 1339.24 676.714 1336.04C676.714 1332.84 674.119 1330.24 670.917 1330.24C667.716 1330.24 665.121 1332.84 665.121 1336.04C665.121 1339.24 667.716 1341.83 670.917 1341.83Z" fill="#A7A7A7"/>
<path d="M1003.48 1341.83C1006.68 1341.83 1009.27 1339.24 1009.27 1336.04C1009.27 1332.84 1006.68 1330.24 1003.48 1330.24C1000.28 1330.24 997.682 1332.84 997.682 1336.04C997.682 1339.24 1000.28 1341.83 1003.48 1341.83Z" fill="#A7A7A7"/>
<path d="M1336.04 1341.83C1339.24 1341.83 1341.83 1339.24 1341.83 1336.04C1341.83 1332.84 1339.24 1330.24 1336.04 1330.24C1332.84 1330.24 1330.24 1332.84 1330.24 1336.04C1330.24 1339.24 1332.84 1341.83 1336.04 1341.83Z" fill="#A7A7A7"/>
<path d="M1668.6 1341.83C1671.8 1341.83 1674.4 1339.24 1674.4 1336.04C1674.4 1332.84 1671.8 1330.24 1668.6 1330.24C1665.4 1330.24 1662.8 1332.84 1662.8 1336.04C1662.8 1339.24 1665.4 1341.83 1668.6 1341.83Z" fill="#A7A7A7"/>
<path d="M2001.16 1341.83C2004.36 1341.83 2006.96 1339.24 2006.96 1336.04C2006.96 1332.84 2004.36 1330.24 2001.16 1330.24C1997.96 1330.24 1995.36 1332.84 1995.36 1336.04C1995.36 1339.24 1997.96 1341.83 2001.16 1341.83Z" fill="#A7A7A7"/>
<path d="M2333.72 1341.83C2336.92 1341.83 2339.52 1339.24 2339.52 1336.04C2339.52 1332.84 2336.92 1330.24 2333.72 1330.24C2330.52 1330.24 2327.92 1332.84 2327.92 1336.04C2327.92 1339.24 2330.52 1341.83 2333.72 1341.83Z" fill="#A7A7A7"/>
<path d="M2666.28 1341.83C2669.48 1341.83 2672.08 1339.24 2672.08 1336.04C2672.08 1332.84 2669.48 1330.24 2666.28 1330.24C2663.08 1330.24 2660.48 1332.84 2660.48 1336.04C2660.48 1339.24 2663.08 1341.83 2666.28 1341.83Z" fill="#A7A7A7"/>
<path d="M2998.84 1341.83C3002.04 1341.83 3004.64 1339.24 3004.64 1336.04C3004.64 1332.84 3002.04 1330.24 2998.84 1330.24C2995.64 1330.24 2993.04 1332.84 2993.04 1336.04C2993.04 1339.24 2995.64 1341.83 2998.84 1341.83Z" fill="#A7A7A7"/>
<path d="M3331.4 1341.83C3334.6 1341.83 3337.2 1339.24 3337.2 1336.04C3337.2 1332.84 3334.6 1330.24 3331.4 1330.24C3328.2 1330.24 3325.6 1332.84 3325.6 1336.04C3325.6 1339.24 3328.2 1341.83 3331.4 1341.83Z" fill="#A7A7A7"/>
<path d="M3663.96 1341.83C3667.16 1341.83 3669.76 1339.24 3669.76 1336.04C3669.76 1332.84 3667.16 1330.24 3663.96 1330.24C3660.76 1330.24 3658.17 1332.84 3658.17 1336.04C3658.17 1339.24 3660.76 1341.83 3663.96 1341.83Z" fill="#A7A7A7"/>
<path d="M3996.52 1341.83C3999.72 1341.83 4002.32 1339.24 4002.32 1336.04C4002.32 1332.84 3999.72 1330.24 3996.52 1330.24C3993.32 1330.24 3990.73 1332.84 3990.73 1336.04C3990.73 1339.24 3993.32 1341.83 3996.52 1341.83Z" fill="#A7A7A7"/>
<path d="M4329.08 1341.83C4332.28 1341.83 4334.88 1339.24 4334.88 1336.04C4334.88 1332.84 4332.28 1330.24 4329.08 1330.24C4325.88 1330.24 4323.29 1332.84 4323.29 1336.04C4323.29 1339.24 4325.88 1341.83 4329.08 1341.83Z" fill="#A7A7A7"/>
<path d="M4661.64 1341.83C4664.84 1341.83 4667.44 1339.24 4667.44 1336.04C4667.44 1332.84 4664.84 1330.24 4661.64 1330.24C4658.44 1330.24 4655.85 1332.84 4655.85 1336.04C4655.85 1339.24 4658.44 1341.83 4661.64 1341.83Z" fill="#A7A7A7"/>
<path d="M4994.2 1341.83C4997.41 1341.83 5000 1339.24 5000 1336.04C5000 1332.84 4997.41 1330.24 4994.2 1330.24C4991 1330.24 4988.41 1332.84 4988.41 1336.04C4988.41 1339.24 4991 1341.83 4994.2 1341.83Z" fill="#A7A7A7"/>
<path d="M5.79626 1674.39C8.99745 1674.39 11.5925 1671.8 11.5925 1668.6C11.5925 1665.4 8.99745 1662.8 5.79626 1662.8C2.59507 1662.8 0 1665.4 0 1668.6C0 1671.8 2.59507 1674.39 5.79626 1674.39Z" fill="#A7A7A7"/>
<path d="M338.357 1674.39C341.558 1674.39 344.153 1671.8 344.153 1668.6C344.153 1665.4 341.558 1662.8 338.357 1662.8C335.156 1662.8 332.561 1665.4 332.561 1668.6C332.561 1671.8 335.156 1674.39 338.357 1674.39Z" fill="#A7A7A7"/>
<path d="M670.917 1674.39C674.119 1674.39 676.714 1671.8 676.714 1668.6C676.714 1665.4 674.119 1662.8 670.917 1662.8C667.716 1662.8 665.121 1665.4 665.121 1668.6C665.121 1671.8 667.716 1674.39 670.917 1674.39Z" fill="#A7A7A7"/>
<path d="M1003.48 1674.39C1006.68 1674.39 1009.27 1671.8 1009.27 1668.6C1009.27 1665.4 1006.68 1662.8 1003.48 1662.8C1000.28 1662.8 997.682 1665.4 997.682 1668.6C997.682 1671.8 1000.28 1674.39 1003.48 1674.39Z" fill="#A7A7A7"/>
<path d="M1336.04 1674.39C1339.24 1674.39 1341.83 1671.8 1341.83 1668.6C1341.83 1665.4 1339.24 1662.8 1336.04 1662.8C1332.84 1662.8 1330.24 1665.4 1330.24 1668.6C1330.24 1671.8 1332.84 1674.39 1336.04 1674.39Z" fill="#A7A7A7"/>
<path d="M1668.6 1674.39C1671.8 1674.39 1674.4 1671.8 1674.4 1668.6C1674.4 1665.4 1671.8 1662.8 1668.6 1662.8C1665.4 1662.8 1662.8 1665.4 1662.8 1668.6C1662.8 1671.8 1665.4 1674.39 1668.6 1674.39Z" fill="#A7A7A7"/>
<path d="M2001.16 1674.39C2004.36 1674.39 2006.96 1671.8 2006.96 1668.6C2006.96 1665.4 2004.36 1662.8 2001.16 1662.8C1997.96 1662.8 1995.36 1665.4 1995.36 1668.6C1995.36 1671.8 1997.96 1674.39 2001.16 1674.39Z" fill="#A7A7A7"/>
<path d="M2333.72 1674.39C2336.92 1674.39 2339.52 1671.8 2339.52 1668.6C2339.52 1665.4 2336.92 1662.8 2333.72 1662.8C2330.52 1662.8 2327.92 1665.4 2327.92 1668.6C2327.92 1671.8 2330.52 1674.39 2333.72 1674.39Z" fill="#A7A7A7"/>
<path d="M2666.28 1674.39C2669.48 1674.39 2672.08 1671.8 2672.08 1668.6C2672.08 1665.4 2669.48 1662.8 2666.28 1662.8C2663.08 1662.8 2660.48 1665.4 2660.48 1668.6C2660.48 1671.8 2663.08 1674.39 2666.28 1674.39Z" fill="#A7A7A7"/>
<path d="M2998.84 1674.39C3002.04 1674.39 3004.64 1671.8 3004.64 1668.6C3004.64 1665.4 3002.04 1662.8 2998.84 1662.8C2995.64 1662.8 2993.04 1665.4 2993.04 1668.6C2993.04 1671.8 2995.64 1674.39 2998.84 1674.39Z" fill="#A7A7A7"/>
<path d="M3331.4 1674.39C3334.6 1674.39 3337.2 1671.8 3337.2 1668.6C3337.2 1665.4 3334.6 1662.8 3331.4 1662.8C3328.2 1662.8 3325.6 1665.4 3325.6 1668.6C3325.6 1671.8 3328.2 1674.39 3331.4 1674.39Z" fill="#A7A7A7"/>
<path d="M3663.96 1674.39C3667.16 1674.39 3669.76 1671.8 3669.76 1668.6C3669.76 1665.4 3667.16 1662.8 3663.96 1662.8C3660.76 1662.8 3658.17 1665.4 3658.17 1668.6C3658.17 1671.8 3660.76 1674.39 3663.96 1674.39Z" fill="#A7A7A7"/>
<path d="M3996.52 1674.39C3999.72 1674.39 4002.32 1671.8 4002.32 1668.6C4002.32 1665.4 3999.72 1662.8 3996.52 1662.8C3993.32 1662.8 3990.73 1665.4 3990.73 1668.6C3990.73 1671.8 3993.32 1674.39 3996.52 1674.39Z" fill="#A7A7A7"/>
<path d="M4329.08 1674.39C4332.28 1674.39 4334.88 1671.8 4334.88 1668.6C4334.88 1665.4 4332.28 1662.8 4329.08 1662.8C4325.88 1662.8 4323.29 1665.4 4323.29 1668.6C4323.29 1671.8 4325.88 1674.39 4329.08 1674.39Z" fill="#A7A7A7"/>
<path d="M4661.64 1674.39C4664.84 1674.39 4667.44 1671.8 4667.44 1668.6C4667.44 1665.4 4664.84 1662.8 4661.64 1662.8C4658.44 1662.8 4655.85 1665.4 4655.85 1668.6C4655.85 1671.8 4658.44 1674.39 4661.64 1674.39Z" fill="#A7A7A7"/>
<path d="M4994.2 1674.39C4997.41 1674.39 5000 1671.8 5000 1668.6C5000 1665.4 4997.41 1662.8 4994.2 1662.8C4991 1662.8 4988.41 1665.4 4988.41 1668.6C4988.41 1671.8 4991 1674.39 4994.2 1674.39Z" fill="#A7A7A7"/>
<path d="M5.79626 2006.96C8.99745 2006.96 11.5925 2004.36 11.5925 2001.16C11.5925 1997.96 8.99745 1995.36 5.79626 1995.36C2.59507 1995.36 0 1997.96 0 2001.16C0 2004.36 2.59507 2006.96 5.79626 2006.96Z" fill="#A7A7A7"/>
<path d="M338.357 2006.96C341.558 2006.96 344.153 2004.36 344.153 2001.16C344.153 1997.96 341.558 1995.36 338.357 1995.36C335.156 1995.36 332.561 1997.96 332.561 2001.16C332.561 2004.36 335.156 2006.96 338.357 2006.96Z" fill="#A7A7A7"/>
<path d="M670.917 2006.96C674.119 2006.96 676.714 2004.36 676.714 2001.16C676.714 1997.96 674.119 1995.36 670.917 1995.36C667.716 1995.36 665.121 1997.96 665.121 2001.16C665.121 2004.36 667.716 2006.96 670.917 2006.96Z" fill="#A7A7A7"/>
<path d="M1003.48 2006.96C1006.68 2006.96 1009.27 2004.36 1009.27 2001.16C1009.27 1997.96 1006.68 1995.36 1003.48 1995.36C1000.28 1995.36 997.682 1997.96 997.682 2001.16C997.682 2004.36 1000.28 2006.96 1003.48 2006.96Z" fill="#A7A7A7"/>
<path d="M1336.04 2006.96C1339.24 2006.96 1341.83 2004.36 1341.83 2001.16C1341.83 1997.96 1339.24 1995.36 1336.04 1995.36C1332.84 1995.36 1330.24 1997.96 1330.24 2001.16C1330.24 2004.36 1332.84 2006.96 1336.04 2006.96Z" fill="#A7A7A7"/>
<path d="M1668.6 2006.96C1671.8 2006.96 1674.4 2004.36 1674.4 2001.16C1674.4 1997.96 1671.8 1995.36 1668.6 1995.36C1665.4 1995.36 1662.8 1997.96 1662.8 2001.16C1662.8 2004.36 1665.4 2006.96 1668.6 2006.96Z" fill="#A7A7A7"/>
<path d="M2001.16 2006.96C2004.36 2006.96 2006.96 2004.36 2006.96 2001.16C2006.96 1997.96 2004.36 1995.36 2001.16 1995.36C1997.96 1995.36 1995.36 1997.96 1995.36 2001.16C1995.36 2004.36 1997.96 2006.96 2001.16 2006.96Z" fill="#A7A7A7"/>
<path d="M2333.72 2006.96C2336.92 2006.96 2339.52 2004.36 2339.52 2001.16C2339.52 1997.96 2336.92 1995.36 2333.72 1995.36C2330.52 1995.36 2327.92 1997.96 2327.92 2001.16C2327.92 2004.36 2330.52 2006.96 2333.72 2006.96Z" fill="#A7A7A7"/>
<path d="M2666.28 2006.96C2669.48 2006.96 2672.08 2004.36 2672.08 2001.16C2672.08 1997.96 2669.48 1995.36 2666.28 1995.36C2663.08 1995.36 2660.48 1997.96 2660.48 2001.16C2660.48 2004.36 2663.08 2006.96 2666.28 2006.96Z" fill="#A7A7A7"/>
<path d="M2998.84 2006.96C3002.04 2006.96 3004.64 2004.36 3004.64 2001.16C3004.64 1997.96 3002.04 1995.36 2998.84 1995.36C2995.64 1995.36 2993.04 1997.96 2993.04 2001.16C2993.04 2004.36 2995.64 2006.96 2998.84 2006.96Z" fill="#A7A7A7"/>
<path d="M3331.4 2006.96C3334.6 2006.96 3337.2 2004.36 3337.2 2001.16C3337.2 1997.96 3334.6 1995.36 3331.4 1995.36C3328.2 1995.36 3325.6 1997.96 3325.6 2001.16C3325.6 2004.36 3328.2 2006.96 3331.4 2006.96Z" fill="#A7A7A7"/>
<path d="M3663.96 2006.96C3667.16 2006.96 3669.76 2004.36 3669.76 2001.16C3669.76 1997.96 3667.16 1995.36 3663.96 1995.36C3660.76 1995.36 3658.17 1997.96 3658.17 2001.16C3658.17 2004.36 3660.76 2006.96 3663.96 2006.96Z" fill="#A7A7A7"/>
<path d="M3996.52 2006.96C3999.72 2006.96 4002.32 2004.36 4002.32 2001.16C4002.32 1997.96 3999.72 1995.36 3996.52 1995.36C3993.32 1995.36 3990.73 1997.96 3990.73 2001.16C3990.73 2004.36 3993.32 2006.96 3996.52 2006.96Z" fill="#A7A7A7"/>
<path d="M4329.08 2006.96C4332.28 2006.96 4334.88 2004.36 4334.88 2001.16C4334.88 1997.96 4332.28 1995.36 4329.08 1995.36C4325.88 1995.36 4323.29 1997.96 4323.29 2001.16C4323.29 2004.36 4325.88 2006.96 4329.08 2006.96Z" fill="#A7A7A7"/>
<path d="M4661.64 2006.96C4664.84 2006.96 4667.44 2004.36 4667.44 2001.16C4667.44 1997.96 4664.84 1995.36 4661.64 1995.36C4658.44 1995.36 4655.85 1997.96 4655.85 2001.16C4655.85 2004.36 4658.44 2006.96 4661.64 2006.96Z" fill="#A7A7A7"/>
<path d="M4994.2 2006.96C4997.41 2006.96 5000 2004.36 5000 2001.16C5000 1997.96 4997.41 1995.36 4994.2 1995.36C4991 1995.36 4988.41 1997.96 4988.41 2001.16C4988.41 2004.36 4991 2006.96 4994.2 2006.96Z" fill="#A7A7A7"/>
<path d="M5.79626 2339.51C8.99745 2339.51 11.5925 2336.92 11.5925 2333.72C11.5925 2330.52 8.99745 2327.92 5.79626 2327.92C2.59507 2327.92 0 2330.52 0 2333.72C0 2336.92 2.59507 2339.51 5.79626 2339.51Z" fill="#A7A7A7"/>
<path d="M338.357 2339.51C341.558 2339.51 344.153 2336.92 344.153 2333.72C344.153 2330.52 341.558 2327.92 338.357 2327.92C335.156 2327.92 332.561 2330.52 332.561 2333.72C332.561 2336.92 335.156 2339.51 338.357 2339.51Z" fill="#A7A7A7"/>
<path d="M670.917 2339.51C674.119 2339.51 676.714 2336.92 676.714 2333.72C676.714 2330.52 674.119 2327.92 670.917 2327.92C667.716 2327.92 665.121 2330.52 665.121 2333.72C665.121 2336.92 667.716 2339.51 670.917 2339.51Z" fill="#A7A7A7"/>
<path d="M1003.48 2339.51C1006.68 2339.51 1009.27 2336.92 1009.27 2333.72C1009.27 2330.52 1006.68 2327.92 1003.48 2327.92C1000.28 2327.92 997.682 2330.52 997.682 2333.72C997.682 2336.92 1000.28 2339.51 1003.48 2339.51Z" fill="#A7A7A7"/>
<path d="M1336.04 2339.51C1339.24 2339.51 1341.83 2336.92 1341.83 2333.72C1341.83 2330.52 1339.24 2327.92 1336.04 2327.92C1332.84 2327.92 1330.24 2330.52 1330.24 2333.72C1330.24 2336.92 1332.84 2339.51 1336.04 2339.51Z" fill="#A7A7A7"/>
<path d="M1668.6 2339.51C1671.8 2339.51 1674.4 2336.92 1674.4 2333.72C1674.4 2330.52 1671.8 2327.92 1668.6 2327.92C1665.4 2327.92 1662.8 2330.52 1662.8 2333.72C1662.8 2336.92 1665.4 2339.51 1668.6 2339.51Z" fill="#A7A7A7"/>
<path d="M2001.16 2339.51C2004.36 2339.51 2006.96 2336.92 2006.96 2333.72C2006.96 2330.52 2004.36 2327.92 2001.16 2327.92C1997.96 2327.92 1995.36 2330.52 1995.36 2333.72C1995.36 2336.92 1997.96 2339.51 2001.16 2339.51Z" fill="#A7A7A7"/>
<path d="M2333.72 2339.51C2336.92 2339.51 2339.52 2336.92 2339.52 2333.72C2339.52 2330.52 2336.92 2327.92 2333.72 2327.92C2330.52 2327.92 2327.92 2330.52 2327.92 2333.72C2327.92 2336.92 2330.52 2339.51 2333.72 2339.51Z" fill="#A7A7A7"/>
<path d="M2666.28 2339.51C2669.48 2339.51 2672.08 2336.92 2672.08 2333.72C2672.08 2330.52 2669.48 2327.92 2666.28 2327.92C2663.08 2327.92 2660.48 2330.52 2660.48 2333.72C2660.48 2336.92 2663.08 2339.51 2666.28 2339.51Z" fill="#A7A7A7"/>
<path d="M2998.84 2339.51C3002.04 2339.51 3004.64 2336.92 3004.64 2333.72C3004.64 2330.52 3002.04 2327.92 2998.84 2327.92C2995.64 2327.92 2993.04 2330.52 2993.04 2333.72C2993.04 2336.92 2995.64 2339.51 2998.84 2339.51Z" fill="#A7A7A7"/>
<path d="M3331.4 2339.51C3334.6 2339.51 3337.2 2336.92 3337.2 2333.72C3337.2 2330.52 3334.6 2327.92 3331.4 2327.92C3328.2 2327.92 3325.6 2330.52 3325.6 2333.72C3325.6 2336.92 3328.2 2339.51 3331.4 2339.51Z" fill="#A7A7A7"/>
<path d="M3663.96 2339.51C3667.16 2339.51 3669.76 2336.92 3669.76 2333.72C3669.76 2330.52 3667.16 2327.92 3663.96 2327.92C3660.76 2327.92 3658.17 2330.52 3658.17 2333.72C3658.17 2336.92 3660.76 2339.51 3663.96 2339.51Z" fill="#A7A7A7"/>
<path d="M3996.52 2339.51C3999.72 2339.51 4002.32 2336.92 4002.32 2333.72C4002.32 2330.52 3999.72 2327.92 3996.52 2327.92C3993.32 2327.92 3990.73 2330.52 3990.73 2333.72C3990.73 2336.92 3993.32 2339.51 3996.52 2339.51Z" fill="#A7A7A7"/>
<path d="M4329.08 2339.51C4332.28 2339.51 4334.88 2336.92 4334.88 2333.72C4334.88 2330.52 4332.28 2327.92 4329.08 2327.92C4325.88 2327.92 4323.29 2330.52 4323.29 2333.72C4323.29 2336.92 4325.88 2339.51 4329.08 2339.51Z" fill="#A7A7A7"/>
<path d="M4661.64 2339.51C4664.84 2339.51 4667.44 2336.92 4667.44 2333.72C4667.44 2330.52 4664.84 2327.92 4661.64 2327.92C4658.44 2327.92 4655.85 2330.52 4655.85 2333.72C4655.85 2336.92 4658.44 2339.51 4661.64 2339.51Z" fill="#A7A7A7"/>
<path d="M4994.2 2339.51C4997.41 2339.51 5000 2336.92 5000 2333.72C5000 2330.52 4997.41 2327.92 4994.2 2327.92C4991 2327.92 4988.41 2330.52 4988.41 2333.72C4988.41 2336.92 4991 2339.51 4994.2 2339.51Z" fill="#A7A7A7"/>
<path d="M5.79626 2672.08C8.99745 2672.08 11.5925 2669.48 11.5925 2666.28C11.5925 2663.08 8.99745 2660.48 5.79626 2660.48C2.59507 2660.48 0 2663.08 0 2666.28C0 2669.48 2.59507 2672.08 5.79626 2672.08Z" fill="#A7A7A7"/>
<path d="M338.357 2672.08C341.558 2672.08 344.153 2669.48 344.153 2666.28C344.153 2663.08 341.558 2660.48 338.357 2660.48C335.156 2660.48 332.561 2663.08 332.561 2666.28C332.561 2669.48 335.156 2672.08 338.357 2672.08Z" fill="#A7A7A7"/>
<path d="M670.917 2672.08C674.119 2672.08 676.714 2669.48 676.714 2666.28C676.714 2663.08 674.119 2660.48 670.917 2660.48C667.716 2660.48 665.121 2663.08 665.121 2666.28C665.121 2669.48 667.716 2672.08 670.917 2672.08Z" fill="#A7A7A7"/>
<path d="M1003.48 2672.08C1006.68 2672.08 1009.27 2669.48 1009.27 2666.28C1009.27 2663.08 1006.68 2660.48 1003.48 2660.48C1000.28 2660.48 997.682 2663.08 997.682 2666.28C997.682 2669.48 1000.28 2672.08 1003.48 2672.08Z" fill="#A7A7A7"/>
<path d="M1336.04 2672.08C1339.24 2672.08 1341.83 2669.48 1341.83 2666.28C1341.83 2663.08 1339.24 2660.48 1336.04 2660.48C1332.84 2660.48 1330.24 2663.08 1330.24 2666.28C1330.24 2669.48 1332.84 2672.08 1336.04 2672.08Z" fill="#A7A7A7"/>
<path d="M1668.6 2672.08C1671.8 2672.08 1674.4 2669.48 1674.4 2666.28C1674.4 2663.08 1671.8 2660.48 1668.6 2660.48C1665.4 2660.48 1662.8 2663.08 1662.8 2666.28C1662.8 2669.48 1665.4 2672.08 1668.6 2672.08Z" fill="#A7A7A7"/>
<path d="M2001.16 2672.08C2004.36 2672.08 2006.96 2669.48 2006.96 2666.28C2006.96 2663.08 2004.36 2660.48 2001.16 2660.48C1997.96 2660.48 1995.36 2663.08 1995.36 2666.28C1995.36 2669.48 1997.96 2672.08 2001.16 2672.08Z" fill="#A7A7A7"/>
<path d="M2333.72 2672.08C2336.92 2672.08 2339.52 2669.48 2339.52 2666.28C2339.52 2663.08 2336.92 2660.48 2333.72 2660.48C2330.52 2660.48 2327.92 2663.08 2327.92 2666.28C2327.92 2669.48 2330.52 2672.08 2333.72 2672.08Z" fill="#A7A7A7"/>
<path d="M2666.28 2672.08C2669.48 2672.08 2672.08 2669.48 2672.08 2666.28C2672.08 2663.08 2669.48 2660.48 2666.28 2660.48C2663.08 2660.48 2660.48 2663.08 2660.48 2666.28C2660.48 2669.48 2663.08 2672.08 2666.28 2672.08Z" fill="#A7A7A7"/>
<path d="M2998.84 2672.08C3002.04 2672.08 3004.64 2669.48 3004.64 2666.28C3004.64 2663.08 3002.04 2660.48 2998.84 2660.48C2995.64 2660.48 2993.04 2663.08 2993.04 2666.28C2993.04 2669.48 2995.64 2672.08 2998.84 2672.08Z" fill="#A7A7A7"/>
<path d="M3331.4 2672.08C3334.6 2672.08 3337.2 2669.48 3337.2 2666.28C3337.2 2663.08 3334.6 2660.48 3331.4 2660.48C3328.2 2660.48 3325.6 2663.08 3325.6 2666.28C3325.6 2669.48 3328.2 2672.08 3331.4 2672.08Z" fill="#A7A7A7"/>
<path d="M3663.96 2672.08C3667.16 2672.08 3669.76 2669.48 3669.76 2666.28C3669.76 2663.08 3667.16 2660.48 3663.96 2660.48C3660.76 2660.48 3658.17 2663.08 3658.17 2666.28C3658.17 2669.48 3660.76 2672.08 3663.96 2672.08Z" fill="#A7A7A7"/>
<path d="M3996.52 2672.08C3999.72 2672.08 4002.32 2669.48 4002.32 2666.28C4002.32 2663.08 3999.72 2660.48 3996.52 2660.48C3993.32 2660.48 3990.73 2663.08 3990.73 2666.28C3990.73 2669.48 3993.32 2672.08 3996.52 2672.08Z" fill="#A7A7A7"/>
<path d="M4329.08 2672.08C4332.28 2672.08 4334.88 2669.48 4334.88 2666.28C4334.88 2663.08 4332.28 2660.48 4329.08 2660.48C4325.88 2660.48 4323.29 2663.08 4323.29 2666.28C4323.29 2669.48 4325.88 2672.08 4329.08 2672.08Z" fill="#A7A7A7"/>
<path d="M4661.64 2672.08C4664.84 2672.08 4667.44 2669.48 4667.44 2666.28C4667.44 2663.08 4664.84 2660.48 4661.64 2660.48C4658.44 2660.48 4655.85 2663.08 4655.85 2666.28C4655.85 2669.48 4658.44 2672.08 4661.64 2672.08Z" fill="#A7A7A7"/>
<path d="M4994.2 2672.08C4997.41 2672.08 5000 2669.48 5000 2666.28C5000 2663.08 4997.41 2660.48 4994.2 2660.48C4991 2660.48 4988.41 2663.08 4988.41 2666.28C4988.41 2669.48 4991 2672.08 4994.2 2672.08Z" fill="#A7A7A7"/>
<path d="M5.79626 3004.64C8.99745 3004.64 11.5925 3002.04 11.5925 2998.84C11.5925 2995.64 8.99745 2993.04 5.79626 2993.04C2.59507 2993.04 0 2995.64 0 2998.84C0 3002.04 2.59507 3004.64 5.79626 3004.64Z" fill="#A7A7A7"/>
<path d="M338.357 3004.64C341.558 3004.64 344.153 3002.04 344.153 2998.84C344.153 2995.64 341.558 2993.04 338.357 2993.04C335.156 2993.04 332.561 2995.64 332.561 2998.84C332.561 3002.04 335.156 3004.64 338.357 3004.64Z" fill="#A7A7A7"/>
<path d="M670.917 3004.64C674.119 3004.64 676.714 3002.04 676.714 2998.84C676.714 2995.64 674.119 2993.04 670.917 2993.04C667.716 2993.04 665.121 2995.64 665.121 2998.84C665.121 3002.04 667.716 3004.64 670.917 3004.64Z" fill="#A7A7A7"/>
<path d="M1003.48 3004.64C1006.68 3004.64 1009.27 3002.04 1009.27 2998.84C1009.27 2995.64 1006.68 2993.04 1003.48 2993.04C1000.28 2993.04 997.682 2995.64 997.682 2998.84C997.682 3002.04 1000.28 3004.64 1003.48 3004.64Z" fill="#A7A7A7"/>
<path d="M1336.04 3004.64C1339.24 3004.64 1341.83 3002.04 1341.83 2998.84C1341.83 2995.64 1339.24 2993.04 1336.04 2993.04C1332.84 2993.04 1330.24 2995.64 1330.24 2998.84C1330.24 3002.04 1332.84 3004.64 1336.04 3004.64Z" fill="#A7A7A7"/>
<path d="M1668.6 3004.64C1671.8 3004.64 1674.4 3002.04 1674.4 2998.84C1674.4 2995.64 1671.8 2993.04 1668.6 2993.04C1665.4 2993.04 1662.8 2995.64 1662.8 2998.84C1662.8 3002.04 1665.4 3004.64 1668.6 3004.64Z" fill="#A7A7A7"/>
<path d="M2001.16 3004.64C2004.36 3004.64 2006.96 3002.04 2006.96 2998.84C2006.96 2995.64 2004.36 2993.04 2001.16 2993.04C1997.96 2993.04 1995.36 2995.64 1995.36 2998.84C1995.36 3002.04 1997.96 3004.64 2001.16 3004.64Z" fill="#A7A7A7"/>
<path d="M2333.72 3004.64C2336.92 3004.64 2339.52 3002.04 2339.52 2998.84C2339.52 2995.64 2336.92 2993.04 2333.72 2993.04C2330.52 2993.04 2327.92 2995.64 2327.92 2998.84C2327.92 3002.04 2330.52 3004.64 2333.72 3004.64Z" fill="#A7A7A7"/>
<path d="M2666.28 3004.64C2669.48 3004.64 2672.08 3002.04 2672.08 2998.84C2672.08 2995.64 2669.48 2993.04 2666.28 2993.04C2663.08 2993.04 2660.48 2995.64 2660.48 2998.84C2660.48 3002.04 2663.08 3004.64 2666.28 3004.64Z" fill="#A7A7A7"/>
<path d="M2998.84 3004.64C3002.04 3004.64 3004.64 3002.04 3004.64 2998.84C3004.64 2995.64 3002.04 2993.04 2998.84 2993.04C2995.64 2993.04 2993.04 2995.64 2993.04 2998.84C2993.04 3002.04 2995.64 3004.64 2998.84 3004.64Z" fill="#A7A7A7"/>
<path d="M3331.4 3004.64C3334.6 3004.64 3337.2 3002.04 3337.2 2998.84C3337.2 2995.64 3334.6 2993.04 3331.4 2993.04C3328.2 2993.04 3325.6 2995.64 3325.6 2998.84C3325.6 3002.04 3328.2 3004.64 3331.4 3004.64Z" fill="#A7A7A7"/>
<path d="M3663.96 3004.64C3667.16 3004.64 3669.76 3002.04 3669.76 2998.84C3669.76 2995.64 3667.16 2993.04 3663.96 2993.04C3660.76 2993.04 3658.17 2995.64 3658.17 2998.84C3658.17 3002.04 3660.76 3004.64 3663.96 3004.64Z" fill="#A7A7A7"/>
<path d="M3996.52 3004.64C3999.72 3004.64 4002.32 3002.04 4002.32 2998.84C4002.32 2995.64 3999.72 2993.04 3996.52 2993.04C3993.32 2993.04 3990.73 2995.64 3990.73 2998.84C3990.73 3002.04 3993.32 3004.64 3996.52 3004.64Z" fill="#A7A7A7"/>
<path d="M4329.08 3004.64C4332.28 3004.64 4334.88 3002.04 4334.88 2998.84C4334.88 2995.64 4332.28 2993.04 4329.08 2993.04C4325.88 2993.04 4323.29 2995.64 4323.29 2998.84C4323.29 3002.04 4325.88 3004.64 4329.08 3004.64Z" fill="#A7A7A7"/>
<path d="M4661.64 3004.64C4664.84 3004.64 4667.44 3002.04 4667.44 2998.84C4667.44 2995.64 4664.84 2993.04 4661.64 2993.04C4658.44 2993.04 4655.85 2995.64 4655.85 2998.84C4655.85 3002.04 4658.44 3004.64 4661.64 3004.64Z" fill="#A7A7A7"/>
<path d="M4994.2 3004.64C4997.41 3004.64 5000 3002.04 5000 2998.84C5000 2995.64 4997.41 2993.04 4994.2 2993.04C4991 2993.04 4988.41 2995.64 4988.41 2998.84C4988.41 3002.04 4991 3004.64 4994.2 3004.64Z" fill="#A7A7A7"/>
<path d="M5.79626 3337.2C8.99745 3337.2 11.5925 3334.6 11.5925 3331.4C11.5925 3328.2 8.99745 3325.61 5.79626 3325.61C2.59507 3325.61 0 3328.2 0 3331.4C0 3334.6 2.59507 3337.2 5.79626 3337.2Z" fill="#A7A7A7"/>
<path d="M338.357 3337.2C341.558 3337.2 344.153 3334.6 344.153 3331.4C344.153 3328.2 341.558 3325.61 338.357 3325.61C335.156 3325.61 332.561 3328.2 332.561 3331.4C332.561 3334.6 335.156 3337.2 338.357 3337.2Z" fill="#A7A7A7"/>
<path d="M670.917 3337.2C674.119 3337.2 676.714 3334.6 676.714 3331.4C676.714 3328.2 674.119 3325.61 670.917 3325.61C667.716 3325.61 665.121 3328.2 665.121 3331.4C665.121 3334.6 667.716 3337.2 670.917 3337.2Z" fill="#A7A7A7"/>
<path d="M1003.48 3337.2C1006.68 3337.2 1009.27 3334.6 1009.27 3331.4C1009.27 3328.2 1006.68 3325.61 1003.48 3325.61C1000.28 3325.61 997.682 3328.2 997.682 3331.4C997.682 3334.6 1000.28 3337.2 1003.48 3337.2Z" fill="#A7A7A7"/>
<path d="M1336.04 3337.2C1339.24 3337.2 1341.83 3334.6 1341.83 3331.4C1341.83 3328.2 1339.24 3325.61 1336.04 3325.61C1332.84 3325.61 1330.24 3328.2 1330.24 3331.4C1330.24 3334.6 1332.84 3337.2 1336.04 3337.2Z" fill="#A7A7A7"/>
<path d="M1668.6 3337.2C1671.8 3337.2 1674.4 3334.6 1674.4 3331.4C1674.4 3328.2 1671.8 3325.61 1668.6 3325.61C1665.4 3325.61 1662.8 3328.2 1662.8 3331.4C1662.8 3334.6 1665.4 3337.2 1668.6 3337.2Z" fill="#A7A7A7"/>
<path d="M2001.16 3337.2C2004.36 3337.2 2006.96 3334.6 2006.96 3331.4C2006.96 3328.2 2004.36 3325.61 2001.16 3325.61C1997.96 3325.61 1995.36 3328.2 1995.36 3331.4C1995.36 3334.6 1997.96 3337.2 2001.16 3337.2Z" fill="#A7A7A7"/>
<path d="M2333.72 3337.2C2336.92 3337.2 2339.52 3334.6 2339.52 3331.4C2339.52 3328.2 2336.92 3325.61 2333.72 3325.61C2330.52 3325.61 2327.92 3328.2 2327.92 3331.4C2327.92 3334.6 2330.52 3337.2 2333.72 3337.2Z" fill="#A7A7A7"/>
<path d="M2666.28 3337.2C2669.48 3337.2 2672.08 3334.6 2672.08 3331.4C2672.08 3328.2 2669.48 3325.61 2666.28 3325.61C2663.08 3325.61 2660.48 3328.2 2660.48 3331.4C2660.48 3334.6 2663.08 3337.2 2666.28 3337.2Z" fill="#A7A7A7"/>
<path d="M2998.84 3337.2C3002.04 3337.2 3004.64 3334.6 3004.64 3331.4C3004.64 3328.2 3002.04 3325.61 2998.84 3325.61C2995.64 3325.61 2993.04 3328.2 2993.04 3331.4C2993.04 3334.6 2995.64 3337.2 2998.84 3337.2Z" fill="#A7A7A7"/>
<path d="M3331.4 3337.2C3334.6 3337.2 3337.2 3334.6 3337.2 3331.4C3337.2 3328.2 3334.6 3325.61 3331.4 3325.61C3328.2 3325.61 3325.6 3328.2 3325.6 3331.4C3325.6 3334.6 3328.2 3337.2 3331.4 3337.2Z" fill="#A7A7A7"/>
<path d="M3663.96 3337.2C3667.16 3337.2 3669.76 3334.6 3669.76 3331.4C3669.76 3328.2 3667.16 3325.61 3663.96 3325.61C3660.76 3325.61 3658.17 3328.2 3658.17 3331.4C3658.17 3334.6 3660.76 3337.2 3663.96 3337.2Z" fill="#A7A7A7"/>
<path d="M3996.52 3337.2C3999.72 3337.2 4002.32 3334.6 4002.32 3331.4C4002.32 3328.2 3999.72 3325.61 3996.52 3325.61C3993.32 3325.61 3990.73 3328.2 3990.73 3331.4C3990.73 3334.6 3993.32 3337.2 3996.52 3337.2Z" fill="#A7A7A7"/>
<path d="M4329.08 3337.2C4332.28 3337.2 4334.88 3334.6 4334.88 3331.4C4334.88 3328.2 4332.28 3325.61 4329.08 3325.61C4325.88 3325.61 4323.29 3328.2 4323.29 3331.4C4323.29 3334.6 4325.88 3337.2 4329.08 3337.2Z" fill="#A7A7A7"/>
<path d="M4661.64 3337.2C4664.84 3337.2 4667.44 3334.6 4667.44 3331.4C4667.44 3328.2 4664.84 3325.61 4661.64 3325.61C4658.44 3325.61 4655.85 3328.2 4655.85 3331.4C4655.85 3334.6 4658.44 3337.2 4661.64 3337.2Z" fill="#A7A7A7"/>
<path d="M4994.2 3337.2C4997.41 3337.2 5000 3334.6 5000 3331.4C5000 3328.2 4997.41 3325.61 4994.2 3325.61C4991 3325.61 4988.41 3328.2 4988.41 3331.4C4988.41 3334.6 4991 3337.2 4994.2 3337.2Z" fill="#A7A7A7"/>
<path d="M5.79626 3669.76C8.99745 3669.76 11.5925 3667.16 11.5925 3663.96C11.5925 3660.76 8.99745 3658.16 5.79626 3658.16C2.59507 3658.16 0 3660.76 0 3663.96C0 3667.16 2.59507 3669.76 5.79626 3669.76Z" fill="#A7A7A7"/>
<path d="M338.357 3669.76C341.558 3669.76 344.153 3667.16 344.153 3663.96C344.153 3660.76 341.558 3658.16 338.357 3658.16C335.156 3658.16 332.561 3660.76 332.561 3663.96C332.561 3667.16 335.156 3669.76 338.357 3669.76Z" fill="#A7A7A7"/>
<path d="M670.917 3669.76C674.119 3669.76 676.714 3667.16 676.714 3663.96C676.714 3660.76 674.119 3658.16 670.917 3658.16C667.716 3658.16 665.121 3660.76 665.121 3663.96C665.121 3667.16 667.716 3669.76 670.917 3669.76Z" fill="#A7A7A7"/>
<path d="M1003.48 3669.76C1006.68 3669.76 1009.27 3667.16 1009.27 3663.96C1009.27 3660.76 1006.68 3658.16 1003.48 3658.16C1000.28 3658.16 997.682 3660.76 997.682 3663.96C997.682 3667.16 1000.28 3669.76 1003.48 3669.76Z" fill="#A7A7A7"/>
<path d="M1336.04 3669.76C1339.24 3669.76 1341.83 3667.16 1341.83 3663.96C1341.83 3660.76 1339.24 3658.16 1336.04 3658.16C1332.84 3658.16 1330.24 3660.76 1330.24 3663.96C1330.24 3667.16 1332.84 3669.76 1336.04 3669.76Z" fill="#A7A7A7"/>
<path d="M1668.6 3669.76C1671.8 3669.76 1674.4 3667.16 1674.4 3663.96C1674.4 3660.76 1671.8 3658.16 1668.6 3658.16C1665.4 3658.16 1662.8 3660.76 1662.8 3663.96C1662.8 3667.16 1665.4 3669.76 1668.6 3669.76Z" fill="#A7A7A7"/>
<path d="M2001.16 3669.76C2004.36 3669.76 2006.96 3667.16 2006.96 3663.96C2006.96 3660.76 2004.36 3658.16 2001.16 3658.16C1997.96 3658.16 1995.36 3660.76 1995.36 3663.96C1995.36 3667.16 1997.96 3669.76 2001.16 3669.76Z" fill="#A7A7A7"/>
<path d="M2333.72 3669.76C2336.92 3669.76 2339.52 3667.16 2339.52 3663.96C2339.52 3660.76 2336.92 3658.16 2333.72 3658.16C2330.52 3658.16 2327.92 3660.76 2327.92 3663.96C2327.92 3667.16 2330.52 3669.76 2333.72 3669.76Z" fill="#A7A7A7"/>
<path d="M2666.28 3669.76C2669.48 3669.76 2672.08 3667.16 2672.08 3663.96C2672.08 3660.76 2669.48 3658.16 2666.28 3658.16C2663.08 3658.16 2660.48 3660.76 2660.48 3663.96C2660.48 3667.16 2663.08 3669.76 2666.28 3669.76Z" fill="#A7A7A7"/>
<path d="M2998.84 3669.76C3002.04 3669.76 3004.64 3667.16 3004.64 3663.96C3004.64 3660.76 3002.04 3658.16 2998.84 3658.16C2995.64 3658.16 2993.04 3660.76 2993.04 3663.96C2993.04 3667.16 2995.64 3669.76 2998.84 3669.76Z" fill="#A7A7A7"/>
<path d="M3331.4 3669.76C3334.6 3669.76 3337.2 3667.16 3337.2 3663.96C3337.2 3660.76 3334.6 3658.16 3331.4 3658.16C3328.2 3658.16 3325.6 3660.76 3325.6 3663.96C3325.6 3667.16 3328.2 3669.76 3331.4 3669.76Z" fill="#A7A7A7"/>
<path d="M3663.96 3669.76C3667.16 3669.76 3669.76 3667.16 3669.76 3663.96C3669.76 3660.76 3667.16 3658.16 3663.96 3658.16C3660.76 3658.16 3658.17 3660.76 3658.17 3663.96C3658.17 3667.16 3660.76 3669.76 3663.96 3669.76Z" fill="#A7A7A7"/>
<path d="M3996.52 3669.76C3999.72 3669.76 4002.32 3667.16 4002.32 3663.96C4002.32 3660.76 3999.72 3658.16 3996.52 3658.16C3993.32 3658.16 3990.73 3660.76 3990.73 3663.96C3990.73 3667.16 3993.32 3669.76 3996.52 3669.76Z" fill="#A7A7A7"/>
<path d="M4329.08 3669.76C4332.28 3669.76 4334.88 3667.16 4334.88 3663.96C4334.88 3660.76 4332.28 3658.16 4329.08 3658.16C4325.88 3658.16 4323.29 3660.76 4323.29 3663.96C4323.29 3667.16 4325.88 3669.76 4329.08 3669.76Z" fill="#A7A7A7"/>
<path d="M4661.64 3669.76C4664.84 3669.76 4667.44 3667.16 4667.44 3663.96C4667.44 3660.76 4664.84 3658.16 4661.64 3658.16C4658.44 3658.16 4655.85 3660.76 4655.85 3663.96C4655.85 3667.16 4658.44 3669.76 4661.64 3669.76Z" fill="#A7A7A7"/>
<path d="M4994.2 3669.76C4997.41 3669.76 5000 3667.16 5000 3663.96C5000 3660.76 4997.41 3658.16 4994.2 3658.16C4991 3658.16 4988.41 3660.76 4988.41 3663.96C4988.41 3667.16 4991 3669.76 4994.2 3669.76Z" fill="#A7A7A7"/>
<path d="M5.79626 4002.32C8.99745 4002.32 11.5925 3999.72 11.5925 3996.52C11.5925 3993.32 8.99745 3990.73 5.79626 3990.73C2.59507 3990.73 0 3993.32 0 3996.52C0 3999.72 2.59507 4002.32 5.79626 4002.32Z" fill="#A7A7A7"/>
<path d="M338.357 4002.32C341.558 4002.32 344.153 3999.72 344.153 3996.52C344.153 3993.32 341.558 3990.73 338.357 3990.73C335.156 3990.73 332.561 3993.32 332.561 3996.52C332.561 3999.72 335.156 4002.32 338.357 4002.32Z" fill="#A7A7A7"/>
<path d="M670.917 4002.32C674.119 4002.32 676.714 3999.72 676.714 3996.52C676.714 3993.32 674.119 3990.73 670.917 3990.73C667.716 3990.73 665.121 3993.32 665.121 3996.52C665.121 3999.72 667.716 4002.32 670.917 4002.32Z" fill="#A7A7A7"/>
<path d="M1003.48 4002.32C1006.68 4002.32 1009.27 3999.72 1009.27 3996.52C1009.27 3993.32 1006.68 3990.73 1003.48 3990.73C1000.28 3990.73 997.682 3993.32 997.682 3996.52C997.682 3999.72 1000.28 4002.32 1003.48 4002.32Z" fill="#A7A7A7"/>
<path d="M1336.04 4002.32C1339.24 4002.32 1341.83 3999.72 1341.83 3996.52C1341.83 3993.32 1339.24 3990.73 1336.04 3990.73C1332.84 3990.73 1330.24 3993.32 1330.24 3996.52C1330.24 3999.72 1332.84 4002.32 1336.04 4002.32Z" fill="#A7A7A7"/>
<path d="M1668.6 4002.32C1671.8 4002.32 1674.4 3999.72 1674.4 3996.52C1674.4 3993.32 1671.8 3990.73 1668.6 3990.73C1665.4 3990.73 1662.8 3993.32 1662.8 3996.52C1662.8 3999.72 1665.4 4002.32 1668.6 4002.32Z" fill="#A7A7A7"/>
<path d="M2001.16 4002.32C2004.36 4002.32 2006.96 3999.72 2006.96 3996.52C2006.96 3993.32 2004.36 3990.73 2001.16 3990.73C1997.96 3990.73 1995.36 3993.32 1995.36 3996.52C1995.36 3999.72 1997.96 4002.32 2001.16 4002.32Z" fill="#A7A7A7"/>
<path d="M2333.72 4002.32C2336.92 4002.32 2339.52 3999.72 2339.52 3996.52C2339.52 3993.32 2336.92 3990.73 2333.72 3990.73C2330.52 3990.73 2327.92 3993.32 2327.92 3996.52C2327.92 3999.72 2330.52 4002.32 2333.72 4002.32Z" fill="#A7A7A7"/>
<path d="M2666.28 4002.32C2669.48 4002.32 2672.08 3999.72 2672.08 3996.52C2672.08 3993.32 2669.48 3990.73 2666.28 3990.73C2663.08 3990.73 2660.48 3993.32 2660.48 3996.52C2660.48 3999.72 2663.08 4002.32 2666.28 4002.32Z" fill="#A7A7A7"/>
<path d="M2998.84 4002.32C3002.04 4002.32 3004.64 3999.72 3004.64 3996.52C3004.64 3993.32 3002.04 3990.73 2998.84 3990.73C2995.64 3990.73 2993.04 3993.32 2993.04 3996.52C2993.04 3999.72 2995.64 4002.32 2998.84 4002.32Z" fill="#A7A7A7"/>
<path d="M3331.4 4002.32C3334.6 4002.32 3337.2 3999.72 3337.2 3996.52C3337.2 3993.32 3334.6 3990.73 3331.4 3990.73C3328.2 3990.73 3325.6 3993.32 3325.6 3996.52C3325.6 3999.72 3328.2 4002.32 3331.4 4002.32Z" fill="#A7A7A7"/>
<path d="M3663.96 4002.32C3667.16 4002.32 3669.76 3999.72 3669.76 3996.52C3669.76 3993.32 3667.16 3990.73 3663.96 3990.73C3660.76 3990.73 3658.17 3993.32 3658.17 3996.52C3658.17 3999.72 3660.76 4002.32 3663.96 4002.32Z" fill="#A7A7A7"/>
<path d="M3996.52 4002.32C3999.72 4002.32 4002.32 3999.72 4002.32 3996.52C4002.32 3993.32 3999.72 3990.73 3996.52 3990.73C3993.32 3990.73 3990.73 3993.32 3990.73 3996.52C3990.73 3999.72 3993.32 4002.32 3996.52 4002.32Z" fill="#A7A7A7"/>
<path d="M4329.08 4002.32C4332.28 4002.32 4334.88 3999.72 4334.88 3996.52C4334.88 3993.32 4332.28 3990.73 4329.08 3990.73C4325.88 3990.73 4323.29 3993.32 4323.29 3996.52C4323.29 3999.72 4325.88 4002.32 4329.08 4002.32Z" fill="#A7A7A7"/>
<path d="M4661.64 4002.32C4664.84 4002.32 4667.44 3999.72 4667.44 3996.52C4667.44 3993.32 4664.84 3990.73 4661.64 3990.73C4658.44 3990.73 4655.85 3993.32 4655.85 3996.52C4655.85 3999.72 4658.44 4002.32 4661.64 4002.32Z" fill="#A7A7A7"/>
<path d="M4994.2 4002.32C4997.41 4002.32 5000 3999.72 5000 3996.52C5000 3993.32 4997.41 3990.73 4994.2 3990.73C4991 3990.73 4988.41 3993.32 4988.41 3996.52C4988.41 3999.72 4991 4002.32 4994.2 4002.32Z" fill="#A7A7A7"/>
<path d="M5.79626 4334.88C8.99745 4334.88 11.5925 4332.28 11.5925 4329.08C11.5925 4325.88 8.99745 4323.29 5.79626 4323.29C2.59507 4323.29 0 4325.88 0 4329.08C0 4332.28 2.59507 4334.88 5.79626 4334.88Z" fill="#A7A7A7"/>
<path d="M338.357 4334.88C341.558 4334.88 344.153 4332.28 344.153 4329.08C344.153 4325.88 341.558 4323.29 338.357 4323.29C335.156 4323.29 332.561 4325.88 332.561 4329.08C332.561 4332.28 335.156 4334.88 338.357 4334.88Z" fill="#A7A7A7"/>
<path d="M670.917 4334.88C674.119 4334.88 676.714 4332.28 676.714 4329.08C676.714 4325.88 674.119 4323.29 670.917 4323.29C667.716 4323.29 665.121 4325.88 665.121 4329.08C665.121 4332.28 667.716 4334.88 670.917 4334.88Z" fill="#A7A7A7"/>
<path d="M1003.48 4334.88C1006.68 4334.88 1009.27 4332.28 1009.27 4329.08C1009.27 4325.88 1006.68 4323.29 1003.48 4323.29C1000.28 4323.29 997.682 4325.88 997.682 4329.08C997.682 4332.28 1000.28 4334.88 1003.48 4334.88Z" fill="#A7A7A7"/>
<path d="M1336.04 4334.88C1339.24 4334.88 1341.83 4332.28 1341.83 4329.08C1341.83 4325.88 1339.24 4323.29 1336.04 4323.29C1332.84 4323.29 1330.24 4325.88 1330.24 4329.08C1330.24 4332.28 1332.84 4334.88 1336.04 4334.88Z" fill="#A7A7A7"/>
<path d="M1668.6 4334.88C1671.8 4334.88 1674.4 4332.28 1674.4 4329.08C1674.4 4325.88 1671.8 4323.29 1668.6 4323.29C1665.4 4323.29 1662.8 4325.88 1662.8 4329.08C1662.8 4332.28 1665.4 4334.88 1668.6 4334.88Z" fill="#A7A7A7"/>
<path d="M2001.16 4334.88C2004.36 4334.88 2006.96 4332.28 2006.96 4329.08C2006.96 4325.88 2004.36 4323.29 2001.16 4323.29C1997.96 4323.29 1995.36 4325.88 1995.36 4329.08C1995.36 4332.28 1997.96 4334.88 2001.16 4334.88Z" fill="#A7A7A7"/>
<path d="M2333.72 4334.88C2336.92 4334.88 2339.52 4332.28 2339.52 4329.08C2339.52 4325.88 2336.92 4323.29 2333.72 4323.29C2330.52 4323.29 2327.92 4325.88 2327.92 4329.08C2327.92 4332.28 2330.52 4334.88 2333.72 4334.88Z" fill="#A7A7A7"/>
<path d="M2666.28 4334.88C2669.48 4334.88 2672.08 4332.28 2672.08 4329.08C2672.08 4325.88 2669.48 4323.29 2666.28 4323.29C2663.08 4323.29 2660.48 4325.88 2660.48 4329.08C2660.48 4332.28 2663.08 4334.88 2666.28 4334.88Z" fill="#A7A7A7"/>
<path d="M2998.84 4334.88C3002.04 4334.88 3004.64 4332.28 3004.64 4329.08C3004.64 4325.88 3002.04 4323.29 2998.84 4323.29C2995.64 4323.29 2993.04 4325.88 2993.04 4329.08C2993.04 4332.28 2995.64 4334.88 2998.84 4334.88Z" fill="#A7A7A7"/>
<path d="M3331.4 4334.88C3334.6 4334.88 3337.2 4332.28 3337.2 4329.08C3337.2 4325.88 3334.6 4323.29 3331.4 4323.29C3328.2 4323.29 3325.6 4325.88 3325.6 4329.08C3325.6 4332.28 3328.2 4334.88 3331.4 4334.88Z" fill="#A7A7A7"/>
<path d="M3663.96 4334.88C3667.16 4334.88 3669.76 4332.28 3669.76 4329.08C3669.76 4325.88 3667.16 4323.29 3663.96 4323.29C3660.76 4323.29 3658.17 4325.88 3658.17 4329.08C3658.17 4332.28 3660.76 4334.88 3663.96 4334.88Z" fill="#A7A7A7"/>
<path d="M3996.52 4334.88C3999.72 4334.88 4002.32 4332.28 4002.32 4329.08C4002.32 4325.88 3999.72 4323.29 3996.52 4323.29C3993.32 4323.29 3990.73 4325.88 3990.73 4329.08C3990.73 4332.28 3993.32 4334.88 3996.52 4334.88Z" fill="#A7A7A7"/>
<path d="M4329.08 4334.88C4332.28 4334.88 4334.88 4332.28 4334.88 4329.08C4334.88 4325.88 4332.28 4323.29 4329.08 4323.29C4325.88 4323.29 4323.29 4325.88 4323.29 4329.08C4323.29 4332.28 4325.88 4334.88 4329.08 4334.88Z" fill="#A7A7A7"/>
<path d="M4661.64 4334.88C4664.84 4334.88 4667.44 4332.28 4667.44 4329.08C4667.44 4325.88 4664.84 4323.29 4661.64 4323.29C4658.44 4323.29 4655.85 4325.88 4655.85 4329.08C4655.85 4332.28 4658.44 4334.88 4661.64 4334.88Z" fill="#A7A7A7"/>
<path d="M4994.2 4334.88C4997.41 4334.88 5000 4332.28 5000 4329.08C5000 4325.88 4997.41 4323.29 4994.2 4323.29C4991 4323.29 4988.41 4325.88 4988.41 4329.08C4988.41 4332.28 4991 4334.88 4994.2 4334.88Z" fill="#A7A7A7"/>
<path d="M5.79626 4667.44C8.99745 4667.44 11.5925 4664.85 11.5925 4661.64C11.5925 4658.44 8.99745 4655.85 5.79626 4655.85C2.59507 4655.85 0 4658.44 0 4661.64C0 4664.85 2.59507 4667.44 5.79626 4667.44Z" fill="#A7A7A7"/>
<path d="M338.357 4667.44C341.558 4667.44 344.153 4664.85 344.153 4661.64C344.153 4658.44 341.558 4655.85 338.357 4655.85C335.156 4655.85 332.561 4658.44 332.561 4661.64C332.561 4664.85 335.156 4667.44 338.357 4667.44Z" fill="#A7A7A7"/>
<path d="M670.917 4667.44C674.119 4667.44 676.714 4664.85 676.714 4661.64C676.714 4658.44 674.119 4655.85 670.917 4655.85C667.716 4655.85 665.121 4658.44 665.121 4661.64C665.121 4664.85 667.716 4667.44 670.917 4667.44Z" fill="#A7A7A7"/>
<path d="M1003.48 4667.44C1006.68 4667.44 1009.27 4664.85 1009.27 4661.64C1009.27 4658.44 1006.68 4655.85 1003.48 4655.85C1000.28 4655.85 997.682 4658.44 997.682 4661.64C997.682 4664.85 1000.28 4667.44 1003.48 4667.44Z" fill="#A7A7A7"/>
<path d="M1336.04 4667.44C1339.24 4667.44 1341.83 4664.85 1341.83 4661.64C1341.83 4658.44 1339.24 4655.85 1336.04 4655.85C1332.84 4655.85 1330.24 4658.44 1330.24 4661.64C1330.24 4664.85 1332.84 4667.44 1336.04 4667.44Z" fill="#A7A7A7"/>
<path d="M1668.6 4667.44C1671.8 4667.44 1674.4 4664.85 1674.4 4661.64C1674.4 4658.44 1671.8 4655.85 1668.6 4655.85C1665.4 4655.85 1662.8 4658.44 1662.8 4661.64C1662.8 4664.85 1665.4 4667.44 1668.6 4667.44Z" fill="#A7A7A7"/>
<path d="M2001.16 4667.44C2004.36 4667.44 2006.96 4664.85 2006.96 4661.64C2006.96 4658.44 2004.36 4655.85 2001.16 4655.85C1997.96 4655.85 1995.36 4658.44 1995.36 4661.64C1995.36 4664.85 1997.96 4667.44 2001.16 4667.44Z" fill="#A7A7A7"/>
<path d="M2333.72 4667.44C2336.92 4667.44 2339.52 4664.85 2339.52 4661.64C2339.52 4658.44 2336.92 4655.85 2333.72 4655.85C2330.52 4655.85 2327.92 4658.44 2327.92 4661.64C2327.92 4664.85 2330.52 4667.44 2333.72 4667.44Z" fill="#A7A7A7"/>
<path d="M2666.28 4667.44C2669.48 4667.44 2672.08 4664.85 2672.08 4661.64C2672.08 4658.44 2669.48 4655.85 2666.28 4655.85C2663.08 4655.85 2660.48 4658.44 2660.48 4661.64C2660.48 4664.85 2663.08 4667.44 2666.28 4667.44Z" fill="#A7A7A7"/>
<path d="M2998.84 4667.44C3002.04 4667.44 3004.64 4664.85 3004.64 4661.64C3004.64 4658.44 3002.04 4655.85 2998.84 4655.85C2995.64 4655.85 2993.04 4658.44 2993.04 4661.64C2993.04 4664.85 2995.64 4667.44 2998.84 4667.44Z" fill="#A7A7A7"/>
<path d="M3331.4 4667.44C3334.6 4667.44 3337.2 4664.85 3337.2 4661.64C3337.2 4658.44 3334.6 4655.85 3331.4 4655.85C3328.2 4655.85 3325.6 4658.44 3325.6 4661.64C3325.6 4664.85 3328.2 4667.44 3331.4 4667.44Z" fill="#A7A7A7"/>
<path d="M3663.96 4667.44C3667.16 4667.44 3669.76 4664.85 3669.76 4661.64C3669.76 4658.44 3667.16 4655.85 3663.96 4655.85C3660.76 4655.85 3658.17 4658.44 3658.17 4661.64C3658.17 4664.85 3660.76 4667.44 3663.96 4667.44Z" fill="#A7A7A7"/>
<path d="M3996.52 4667.44C3999.72 4667.44 4002.32 4664.85 4002.32 4661.64C4002.32 4658.44 3999.72 4655.85 3996.52 4655.85C3993.32 4655.85 3990.73 4658.44 3990.73 4661.64C3990.73 4664.85 3993.32 4667.44 3996.52 4667.44Z" fill="#A7A7A7"/>
<path d="M4329.08 4667.44C4332.28 4667.44 4334.88 4664.85 4334.88 4661.64C4334.88 4658.44 4332.28 4655.85 4329.08 4655.85C4325.88 4655.85 4323.29 4658.44 4323.29 4661.64C4323.29 4664.85 4325.88 4667.44 4329.08 4667.44Z" fill="#A7A7A7"/>
<path d="M4661.64 4667.44C4664.84 4667.44 4667.44 4664.85 4667.44 4661.64C4667.44 4658.44 4664.84 4655.85 4661.64 4655.85C4658.44 4655.85 4655.85 4658.44 4655.85 4661.64C4655.85 4664.85 4658.44 4667.44 4661.64 4667.44Z" fill="#A7A7A7"/>
<path d="M4994.2 4667.44C4997.41 4667.44 5000 4664.85 5000 4661.64C5000 4658.44 4997.41 4655.85 4994.2 4655.85C4991 4655.85 4988.41 4658.44 4988.41 4661.64C4988.41 4664.85 4991 4667.44 4994.2 4667.44Z" fill="#A7A7A7"/>
<path d="M5.79626 5000C8.99745 5000 11.5925 4997.4 11.5925 4994.2C11.5925 4991 8.99745 4988.41 5.79626 4988.41C2.59507 4988.41 0 4991 0 4994.2C0 4997.4 2.59507 5000 5.79626 5000Z" fill="#A7A7A7"/>
<path d="M338.357 5000C341.558 5000 344.153 4997.4 344.153 4994.2C344.153 4991 341.558 4988.41 338.357 4988.41C335.156 4988.41 332.561 4991 332.561 4994.2C332.561 4997.4 335.156 5000 338.357 5000Z" fill="#A7A7A7"/>
<path d="M670.917 5000C674.119 5000 676.714 4997.4 676.714 4994.2C676.714 4991 674.119 4988.41 670.917 4988.41C667.716 4988.41 665.121 4991 665.121 4994.2C665.121 4997.4 667.716 5000 670.917 5000Z" fill="#A7A7A7"/>
<path d="M1003.48 5000C1006.68 5000 1009.27 4997.4 1009.27 4994.2C1009.27 4991 1006.68 4988.41 1003.48 4988.41C1000.28 4988.41 997.682 4991 997.682 4994.2C997.682 4997.4 1000.28 5000 1003.48 5000Z" fill="#A7A7A7"/>
<path d="M1336.04 5000C1339.24 5000 1341.83 4997.4 1341.83 4994.2C1341.83 4991 1339.24 4988.41 1336.04 4988.41C1332.84 4988.41 1330.24 4991 1330.24 4994.2C1330.24 4997.4 1332.84 5000 1336.04 5000Z" fill="#A7A7A7"/>
<path d="M1668.6 5000C1671.8 5000 1674.4 4997.4 1674.4 4994.2C1674.4 4991 1671.8 4988.41 1668.6 4988.41C1665.4 4988.41 1662.8 4991 1662.8 4994.2C1662.8 4997.4 1665.4 5000 1668.6 5000Z" fill="#A7A7A7"/>
<path d="M2001.16 5000C2004.36 5000 2006.96 4997.4 2006.96 4994.2C2006.96 4991 2004.36 4988.41 2001.16 4988.41C1997.96 4988.41 1995.36 4991 1995.36 4994.2C1995.36 4997.4 1997.96 5000 2001.16 5000Z" fill="#A7A7A7"/>
<path d="M2333.72 5000C2336.92 5000 2339.52 4997.4 2339.52 4994.2C2339.52 4991 2336.92 4988.41 2333.72 4988.41C2330.52 4988.41 2327.92 4991 2327.92 4994.2C2327.92 4997.4 2330.52 5000 2333.72 5000Z" fill="#A7A7A7"/>
<path d="M2666.28 5000C2669.48 5000 2672.08 4997.4 2672.08 4994.2C2672.08 4991 2669.48 4988.41 2666.28 4988.41C2663.08 4988.41 2660.48 4991 2660.48 4994.2C2660.48 4997.4 2663.08 5000 2666.28 5000Z" fill="#A7A7A7"/>
<path d="M2998.84 5000C3002.04 5000 3004.64 4997.4 3004.64 4994.2C3004.64 4991 3002.04 4988.41 2998.84 4988.41C2995.64 4988.41 2993.04 4991 2993.04 4994.2C2993.04 4997.4 2995.64 5000 2998.84 5000Z" fill="#A7A7A7"/>
<path d="M3331.4 5000C3334.6 5000 3337.2 4997.4 3337.2 4994.2C3337.2 4991 3334.6 4988.41 3331.4 4988.41C3328.2 4988.41 3325.6 4991 3325.6 4994.2C3325.6 4997.4 3328.2 5000 3331.4 5000Z" fill="#A7A7A7"/>
<path d="M3663.96 5000C3667.16 5000 3669.76 4997.4 3669.76 4994.2C3669.76 4991 3667.16 4988.41 3663.96 4988.41C3660.76 4988.41 3658.17 4991 3658.17 4994.2C3658.17 4997.4 3660.76 5000 3663.96 5000Z" fill="#A7A7A7"/>
<path d="M3996.52 5000C3999.72 5000 4002.32 4997.4 4002.32 4994.2C4002.32 4991 3999.72 4988.41 3996.52 4988.41C3993.32 4988.41 3990.73 4991 3990.73 4994.2C3990.73 4997.4 3993.32 5000 3996.52 5000Z" fill="#A7A7A7"/>
<path d="M4329.08 5000C4332.28 5000 4334.88 4997.4 4334.88 4994.2C4334.88 4991 4332.28 4988.41 4329.08 4988.41C4325.88 4988.41 4323.29 4991 4323.29 4994.2C4323.29 4997.4 4325.88 5000 4329.08 5000Z" fill="#A7A7A7"/>
<path d="M4661.64 5000C4664.84 5000 4667.44 4997.4 4667.44 4994.2C4667.44 4991 4664.84 4988.41 4661.64 4988.41C4658.44 4988.41 4655.85 4991 4655.85 4994.2C4655.85 4997.4 4658.44 5000 4661.64 5000Z" fill="#A7A7A7"/>
<path d="M4994.2 5000C4997.41 5000 5000 4997.4 5000 4994.2C5000 4991 4997.41 4988.41 4994.2 4988.41C4991 4988.41 4988.41 4991 4988.41 4994.2C4988.41 4997.4 4991 5000 4994.2 5000Z" fill="#A7A7A7"/>
</svg>
