<svg width="244" height="329" viewBox="0 0 244 329" fill="none" xmlns="http://www.w3.org/2000/svg">
<path d="M121.023 328.5C32.5233 328.5 1.02331 298 0.0233059 249.5C-0.976694 196.5 30.5233 156 33.0233 122C35.0233 93 22.5233 71 26.0233 41C29.0233 12.5 50.0233 0 114.023 0C199.023 0 222.023 12 222.023 38C222.023 47.5 217.023 58 200.523 58C175.523 58 158.523 45.5 116.523 45.5C92.0233 45.5 75.0233 52 75.0233 75.5C75.0233 90.5 84.0233 105.5 104.523 105.5C135.523 105.5 153.523 92 186.523 92C207.023 92 216.023 99.5 216.023 117.5C216.023 131 207.023 141 187.023 141C160.523 141 134.523 121 105.023 121C86.0233 121 78.5233 132 78.5233 147C78.5233 173 100.523 179.5 126.023 179.5C155.023 179.5 170.523 171.5 198.023 171.5C230.023 171.5 243.023 197 243.023 240.5C243.023 301 214.523 328.5 121.023 328.5Z" fill="white"/>
</svg>
