<svg width="197" height="328" viewBox="0 0 197 328" fill="none" xmlns="http://www.w3.org/2000/svg">
<path d="M148.04 146.5C177.54 146.5 196.04 174 196.04 239C196.04 297.5 170.04 327.5 100.04 327.5C25.0397 327.5 1.03969 291.5 0.0396933 249C-1.46031 185 40.0397 154.5 42.0397 111.5C44.0397 86.5 30.5397 56.5 34.0397 28.5C37.0397 8.49998 50.0397 0 70.0397 0C90.0397 0 101.54 9.5 102.54 29C103.04 56 79.5397 73 80.0397 100C80.5397 134.5 94.0397 149 111.54 149C125.54 149 134.54 146.5 148.04 146.5Z" fill="white"/>
</svg>
