<svg width="298" height="326" viewBox="0 0 298 326" fill="none" xmlns="http://www.w3.org/2000/svg">
<path d="M232.516 325.5C189.516 325.5 162.516 303 160.016 239C153.516 107.5 135.016 65 106.016 65C90.0156 65 85.0156 74 85.0156 114C85.0156 173 142.016 193 142.016 258C142.016 308.5 113.516 325.5 73.5156 325.5C30.5156 325.5 1.51557 308 0.0155662 256C-0.984434 186.5 46.5156 178.5 50.5156 114C52.0156 75 34.0156 59 37.5156 30.5C40.5156 7 55.0156 0 82.0156 0C134.016 0 143.516 15.5 152.016 65.5C158.516 103.5 179.016 126 200.516 126C218.516 126 222.516 114.5 223.016 94C224.016 59.5 203.516 53.5 204.016 26.5C204.516 6.00001 216.516 0 234.016 0C252.016 0 264.516 6.50001 268.016 28.5C271.016 59 253.016 74.5 255.516 114C260.016 177 298.016 193.5 297.016 254.5C296.016 308.5 271.516 325.5 232.516 325.5Z" fill="white"/>
</svg>
