<svg width="251" height="328" viewBox="0 0 251 328" fill="none" xmlns="http://www.w3.org/2000/svg">
<path d="M208.529 216.5C165.029 216.5 138.529 171.5 110.529 171.5C99.5292 171.5 96.5292 178.5 96.5292 185.5C96.5292 210 152.029 229 152.029 274C152.029 303.5 134.029 327.5 83.0292 327.5C29.5292 327.5 1.0292 302.5 0.0292045 247.5C-0.970796 190.5 24.0292 151.5 26.0292 114.5C28.0292 90 17.5292 69.5 21.0292 45C24.5292 16.5 53.0292 0 115.529 0C178.029 0 234.029 14.5 243.029 58.5C253.029 84.5 244.029 102 244.029 132C244.029 153.5 253.529 163 249.529 183.5C245.529 204.5 228.029 216.5 208.529 216.5ZM65.0292 103.5C65.0292 126 82.0292 141.5 134.029 141.5C171.529 141.5 203.529 132 203.529 102C203.529 75 176.029 62 124.029 62C91.5292 62 65.0292 69.5 65.0292 103.5Z" fill="white"/>
</svg>
