<svg width="240" height="328" viewBox="0 0 240 328" fill="none" xmlns="http://www.w3.org/2000/svg">
<path d="M169 147.5C169 129.5 155 121 119 119C49.5 114 17 104 17 61C17 26.5 41 0 120.5 0C192 0 220.5 16.5 220.5 44C220.5 59.5 211.5 69.5 196.5 69.5C173.5 69.5 153.5 48 111.5 48C86.5 48 68 55 68 72C68 90 87 97.5 136 101C205.5 107 240 129 240 200C240 278.5 210.5 327.5 117.5 327.5C30 327.5 0 292 0 234.5C0 181.5 21 148.5 55 148.5C92 148.5 106.5 171 142 171C157 171 169 164 169 147.5Z" fill="white"/>
</svg>
