<svg width="253" height="328" viewBox="0 0 253 328" fill="none" xmlns="http://www.w3.org/2000/svg">
<path d="M125.854 149.5C175.854 149.5 193.854 130 188.354 77C185.354 37.5 183.854 0 219.354 0C237.854 0 248.354 7.99998 251.354 24C255.854 51.5 237.354 76 235.354 105C232.354 144.5 236.854 172.5 227.854 227C216.354 291.5 190.354 327.5 125.854 327.5C61.3541 327.5 35.8541 291.5 24.3541 227C14.8541 172.5 19.3541 144.5 16.3541 105C14.3541 76 -4.14592 51 0.854084 24C3.35409 7.99998 14.3541 0 33.3541 0C68.8541 0 67.3541 36.5 63.3541 76C57.3541 129 76.3541 149.5 125.854 149.5Z" fill="white"/>
</svg>
