<svg width="308" height="329" viewBox="0 0 308 329" fill="none" xmlns="http://www.w3.org/2000/svg">
<path d="M154 122.5C151 122.5 148.5 123.5 146 126C135 139 131 147 131 160C131 189 148.5 203 149 255C149 303 124.5 329 75 329C28.5 329 0 310 0 246.5C0 179 31.5 152.5 78 142C109 137 129.5 121 129.5 111C129.5 103.5 113 85.5 89.5 79.5C58 67 37.5 59 37.5 33C37.5 10 53 0 76 0C108 0 119 24.5 119.5 48.5C123 66.5 129 77.5 147.5 94C150 95.5 152 96.5 154 96.5C156 96.5 158 95.5 160 94C179 77.5 185 66.5 188.5 48.5C188.5 24.5 200 0 232 0C255 0 270.5 10 270.5 33C270.5 59 249.5 67 218.5 79.5C195 85.5 178 103 178 111C178 121.5 199 137 229.5 142C276.5 152.5 308 179 308 246.5C308 310 279.5 329 233 329C183.5 329 159 303 159 255C159 203 177 189 177 160C177 147.5 173 139 162 126C159.5 123.5 157 122.5 154 122.5Z" fill="white"/>
</svg>
