<svg width="6000" height="6000" viewBox="0 0 6000 6000" fill="none" xmlns="http://www.w3.org/2000/svg">
<path d="M4.35098 8.70196C6.75396 8.70196 8.70196 6.75396 8.70196 4.35098C8.70196 1.948 6.75396 0 4.35098 0C1.948 0 0 1.948 0 4.35098C0 6.75396 1.948 8.70196 4.35098 8.70196Z" fill="#ACACAC"/>
<path d="M403.771 8.70196C406.174 8.70196 408.122 6.75396 408.122 4.35098C408.122 1.948 406.174 0 403.771 0C401.368 0 399.42 1.948 399.42 4.35098C399.42 6.75396 401.368 8.70196 403.771 8.70196Z" fill="#ACACAC"/>
<path d="M803.191 8.70196C805.594 8.70196 807.542 6.75396 807.542 4.35098C807.542 1.948 805.594 0 803.191 0C800.788 0 798.84 1.948 798.84 4.35098C798.84 6.75396 800.788 8.70196 803.191 8.70196Z" fill="#ACACAC"/>
<path d="M1202.61 8.70196C1205.01 8.70196 1206.96 6.75396 1206.96 4.35098C1206.96 1.948 1205.01 0 1202.61 0C1200.21 0 1198.26 1.948 1198.26 4.35098C1198.26 6.75396 1200.21 8.70196 1202.61 8.70196Z" fill="#ACACAC"/>
<path d="M1602.03 8.70196C1604.43 8.70196 1606.38 6.75396 1606.38 4.35098C1606.38 1.948 1604.43 0 1602.03 0C1599.63 0 1597.68 1.948 1597.68 4.35098C1597.68 6.75396 1599.63 8.70196 1602.03 8.70196Z" fill="#ACACAC"/>
<path d="M2001.45 8.70196C2003.85 8.70196 2005.8 6.75396 2005.8 4.35098C2005.8 1.948 2003.85 0 2001.45 0C1999.05 0 1997.1 1.948 1997.1 4.35098C1997.1 6.75396 1999.05 8.70196 2001.45 8.70196Z" fill="#ACACAC"/>
<path d="M2400.87 8.70196C2403.27 8.70196 2405.22 6.75396 2405.22 4.35098C2405.22 1.948 2403.27 0 2400.87 0C2398.47 0 2396.52 1.948 2396.52 4.35098C2396.52 6.75396 2398.47 8.70196 2400.87 8.70196Z" fill="#ACACAC"/>
<path d="M2800.29 8.70196C2802.69 8.70196 2804.64 6.75396 2804.64 4.35098C2804.64 1.948 2802.69 0 2800.29 0C2797.89 0 2795.94 1.948 2795.94 4.35098C2795.94 6.75396 2797.89 8.70196 2800.29 8.70196Z" fill="#ACACAC"/>
<path d="M3199.71 8.70196C3202.11 8.70196 3204.06 6.75396 3204.06 4.35098C3204.06 1.948 3202.11 0 3199.71 0C3197.31 0 3195.36 1.948 3195.36 4.35098C3195.36 6.75396 3197.31 8.70196 3199.71 8.70196Z" fill="#ACACAC"/>
<path d="M3599.13 8.70196C3601.53 8.70196 3603.48 6.75396 3603.48 4.35098C3603.48 1.948 3601.53 0 3599.13 0C3596.73 0 3594.78 1.948 3594.78 4.35098C3594.78 6.75396 3596.73 8.70196 3599.13 8.70196Z" fill="#ACACAC"/>
<path d="M3998.55 8.70196C4000.95 8.70196 4002.9 6.75396 4002.9 4.35098C4002.9 1.948 4000.95 0 3998.55 0C3996.15 0 3994.2 1.948 3994.2 4.35098C3994.2 6.75396 3996.15 8.70196 3998.55 8.70196Z" fill="#ACACAC"/>
<path d="M4397.97 8.70196C4400.37 8.70196 4402.32 6.75396 4402.32 4.35098C4402.32 1.948 4400.37 0 4397.97 0C4395.57 0 4393.62 1.948 4393.62 4.35098C4393.62 6.75396 4395.57 8.70196 4397.97 8.70196Z" fill="#ACACAC"/>
<path d="M4797.39 8.70196C4799.79 8.70196 4801.74 6.75396 4801.74 4.35098C4801.74 1.948 4799.79 0 4797.39 0C4794.99 0 4793.04 1.948 4793.04 4.35098C4793.04 6.75396 4794.99 8.70196 4797.39 8.70196Z" fill="#ACACAC"/>
<path d="M5196.81 8.70196C5199.21 8.70196 5201.16 6.75396 5201.16 4.35098C5201.16 1.948 5199.21 0 5196.81 0C5194.41 0 5192.46 1.948 5192.46 4.35098C5192.46 6.75396 5194.41 8.70196 5196.81 8.70196Z" fill="#ACACAC"/>
<path d="M5596.23 8.70196C5598.63 8.70196 5600.58 6.75396 5600.58 4.35098C5600.58 1.948 5598.63 0 5596.23 0C5593.83 0 5591.88 1.948 5591.88 4.35098C5591.88 6.75396 5593.83 8.70196 5596.23 8.70196Z" fill="#ACACAC"/>
<path d="M5995.65 8.70196C5998.05 8.70196 6000 6.75396 6000 4.35098C6000 1.948 5998.05 0 5995.65 0C5993.25 0 5991.3 1.948 5991.3 4.35098C5991.3 6.75396 5993.25 8.70196 5995.65 8.70196Z" fill="#ACACAC"/>
<path d="M4.35098 408.124C6.75396 408.124 8.70196 406.176 8.70196 403.773C8.70196 401.37 6.75396 399.422 4.35098 399.422C1.948 399.422 0 401.37 0 403.773C0 406.176 1.948 408.124 4.35098 408.124Z" fill="#ACACAC"/>
<path d="M403.771 408.124C406.174 408.124 408.122 406.176 408.122 403.773C408.122 401.37 406.174 399.422 403.771 399.422C401.368 399.422 399.42 401.37 399.42 403.773C399.42 406.176 401.368 408.124 403.771 408.124Z" fill="#ACACAC"/>
<path d="M803.191 408.124C805.594 408.124 807.542 406.176 807.542 403.773C807.542 401.37 805.594 399.422 803.191 399.422C800.788 399.422 798.84 401.37 798.84 403.773C798.84 406.176 800.788 408.124 803.191 408.124Z" fill="#ACACAC"/>
<path d="M1202.61 408.124C1205.01 408.124 1206.96 406.176 1206.96 403.773C1206.96 401.37 1205.01 399.422 1202.61 399.422C1200.21 399.422 1198.26 401.37 1198.26 403.773C1198.26 406.176 1200.21 408.124 1202.61 408.124Z" fill="#ACACAC"/>
<path d="M1602.03 408.124C1604.43 408.124 1606.38 406.176 1606.38 403.773C1606.38 401.37 1604.43 399.422 1602.03 399.422C1599.63 399.422 1597.68 401.37 1597.68 403.773C1597.68 406.176 1599.63 408.124 1602.03 408.124Z" fill="#ACACAC"/>
<path d="M2001.45 408.124C2003.85 408.124 2005.8 406.176 2005.8 403.773C2005.8 401.37 2003.85 399.422 2001.45 399.422C1999.05 399.422 1997.1 401.37 1997.1 403.773C1997.1 406.176 1999.05 408.124 2001.45 408.124Z" fill="#ACACAC"/>
<path d="M2400.87 408.124C2403.27 408.124 2405.22 406.176 2405.22 403.773C2405.22 401.37 2403.27 399.422 2400.87 399.422C2398.47 399.422 2396.52 401.37 2396.52 403.773C2396.52 406.176 2398.47 408.124 2400.87 408.124Z" fill="#ACACAC"/>
<path d="M2800.29 408.124C2802.69 408.124 2804.64 406.176 2804.64 403.773C2804.64 401.37 2802.69 399.422 2800.29 399.422C2797.89 399.422 2795.94 401.37 2795.94 403.773C2795.94 406.176 2797.89 408.124 2800.29 408.124Z" fill="#ACACAC"/>
<path d="M3199.71 408.124C3202.11 408.124 3204.06 406.176 3204.06 403.773C3204.06 401.37 3202.11 399.422 3199.71 399.422C3197.31 399.422 3195.36 401.37 3195.36 403.773C3195.36 406.176 3197.31 408.124 3199.71 408.124Z" fill="#ACACAC"/>
<path d="M3599.13 408.124C3601.53 408.124 3603.48 406.176 3603.48 403.773C3603.48 401.37 3601.53 399.422 3599.13 399.422C3596.73 399.422 3594.78 401.37 3594.78 403.773C3594.78 406.176 3596.73 408.124 3599.13 408.124Z" fill="#ACACAC"/>
<path d="M3998.55 408.124C4000.95 408.124 4002.9 406.176 4002.9 403.773C4002.9 401.37 4000.95 399.422 3998.55 399.422C3996.15 399.422 3994.2 401.37 3994.2 403.773C3994.2 406.176 3996.15 408.124 3998.55 408.124Z" fill="#ACACAC"/>
<path d="M4397.97 408.124C4400.37 408.124 4402.32 406.176 4402.32 403.773C4402.32 401.37 4400.37 399.422 4397.97 399.422C4395.57 399.422 4393.62 401.37 4393.62 403.773C4393.62 406.176 4395.57 408.124 4397.97 408.124Z" fill="#ACACAC"/>
<path d="M4797.39 408.124C4799.79 408.124 4801.74 406.176 4801.74 403.773C4801.74 401.37 4799.79 399.422 4797.39 399.422C4794.99 399.422 4793.04 401.37 4793.04 403.773C4793.04 406.176 4794.99 408.124 4797.39 408.124Z" fill="#ACACAC"/>
<path d="M5196.81 408.124C5199.21 408.124 5201.16 406.176 5201.16 403.773C5201.16 401.37 5199.21 399.422 5196.81 399.422C5194.41 399.422 5192.46 401.37 5192.46 403.773C5192.46 406.176 5194.41 408.124 5196.81 408.124Z" fill="#ACACAC"/>
<path d="M5596.23 408.124C5598.63 408.124 5600.58 406.176 5600.58 403.773C5600.58 401.37 5598.63 399.422 5596.23 399.422C5593.83 399.422 5591.88 401.37 5591.88 403.773C5591.88 406.176 5593.83 408.124 5596.23 408.124Z" fill="#ACACAC"/>
<path d="M5995.65 408.124C5998.05 408.124 6000 406.176 6000 403.773C6000 401.37 5998.05 399.422 5995.65 399.422C5993.25 399.422 5991.3 401.37 5991.3 403.773C5991.3 406.176 5993.25 408.124 5995.65 408.124Z" fill="#ACACAC"/>
<path d="M4.35098 807.538C6.75396 807.538 8.70196 805.59 8.70196 803.187C8.70196 800.784 6.75396 798.836 4.35098 798.836C1.948 798.836 0 800.784 0 803.187C0 805.59 1.948 807.538 4.35098 807.538Z" fill="#ACACAC"/>
<path d="M403.771 807.538C406.174 807.538 408.122 805.59 408.122 803.187C408.122 800.784 406.174 798.836 403.771 798.836C401.368 798.836 399.42 800.784 399.42 803.187C399.42 805.59 401.368 807.538 403.771 807.538Z" fill="#ACACAC"/>
<path d="M803.191 807.538C805.594 807.538 807.542 805.59 807.542 803.187C807.542 800.784 805.594 798.836 803.191 798.836C800.788 798.836 798.84 800.784 798.84 803.187C798.84 805.59 800.788 807.538 803.191 807.538Z" fill="#ACACAC"/>
<path d="M1202.61 807.538C1205.01 807.538 1206.96 805.59 1206.96 803.187C1206.96 800.784 1205.01 798.836 1202.61 798.836C1200.21 798.836 1198.26 800.784 1198.26 803.187C1198.26 805.59 1200.21 807.538 1202.61 807.538Z" fill="#ACACAC"/>
<path d="M1602.03 807.538C1604.43 807.538 1606.38 805.59 1606.38 803.187C1606.38 800.784 1604.43 798.836 1602.03 798.836C1599.63 798.836 1597.68 800.784 1597.68 803.187C1597.68 805.59 1599.63 807.538 1602.03 807.538Z" fill="#ACACAC"/>
<path d="M2001.45 807.538C2003.85 807.538 2005.8 805.59 2005.8 803.187C2005.8 800.784 2003.85 798.836 2001.45 798.836C1999.05 798.836 1997.1 800.784 1997.1 803.187C1997.1 805.59 1999.05 807.538 2001.45 807.538Z" fill="#ACACAC"/>
<path d="M2400.87 807.538C2403.27 807.538 2405.22 805.59 2405.22 803.187C2405.22 800.784 2403.27 798.836 2400.87 798.836C2398.47 798.836 2396.52 800.784 2396.52 803.187C2396.52 805.59 2398.47 807.538 2400.87 807.538Z" fill="#ACACAC"/>
<path d="M2800.29 807.538C2802.69 807.538 2804.64 805.59 2804.64 803.187C2804.64 800.784 2802.69 798.836 2800.29 798.836C2797.89 798.836 2795.94 800.784 2795.94 803.187C2795.94 805.59 2797.89 807.538 2800.29 807.538Z" fill="#ACACAC"/>
<path d="M3199.71 807.538C3202.11 807.538 3204.06 805.59 3204.06 803.187C3204.06 800.784 3202.11 798.836 3199.71 798.836C3197.31 798.836 3195.36 800.784 3195.36 803.187C3195.36 805.59 3197.31 807.538 3199.71 807.538Z" fill="#ACACAC"/>
<path d="M3599.13 807.538C3601.53 807.538 3603.48 805.59 3603.48 803.187C3603.48 800.784 3601.53 798.836 3599.13 798.836C3596.73 798.836 3594.78 800.784 3594.78 803.187C3594.78 805.59 3596.73 807.538 3599.13 807.538Z" fill="#ACACAC"/>
<path d="M3998.55 807.538C4000.95 807.538 4002.9 805.59 4002.9 803.187C4002.9 800.784 4000.95 798.836 3998.55 798.836C3996.15 798.836 3994.2 800.784 3994.2 803.187C3994.2 805.59 3996.15 807.538 3998.55 807.538Z" fill="#ACACAC"/>
<path d="M4397.97 807.538C4400.37 807.538 4402.32 805.59 4402.32 803.187C4402.32 800.784 4400.37 798.836 4397.97 798.836C4395.57 798.836 4393.62 800.784 4393.62 803.187C4393.62 805.59 4395.57 807.538 4397.97 807.538Z" fill="#ACACAC"/>
<path d="M4797.39 807.538C4799.79 807.538 4801.74 805.59 4801.74 803.187C4801.74 800.784 4799.79 798.836 4797.39 798.836C4794.99 798.836 4793.04 800.784 4793.04 803.187C4793.04 805.59 4794.99 807.538 4797.39 807.538Z" fill="#ACACAC"/>
<path d="M5196.81 807.538C5199.21 807.538 5201.16 805.59 5201.16 803.187C5201.16 800.784 5199.21 798.836 5196.81 798.836C5194.41 798.836 5192.46 800.784 5192.46 803.187C5192.46 805.59 5194.41 807.538 5196.81 807.538Z" fill="#ACACAC"/>
<path d="M5596.23 807.538C5598.63 807.538 5600.58 805.59 5600.58 803.187C5600.58 800.784 5598.63 798.836 5596.23 798.836C5593.83 798.836 5591.88 800.784 5591.88 803.187C5591.88 805.59 5593.83 807.538 5596.23 807.538Z" fill="#ACACAC"/>
<path d="M5995.65 807.538C5998.05 807.538 6000 805.59 6000 803.187C6000 800.784 5998.05 798.836 5995.65 798.836C5993.25 798.836 5991.3 800.784 5991.3 803.187C5991.3 805.59 5993.25 807.538 5995.65 807.538Z" fill="#ACACAC"/>
<path d="M4.35098 1206.96C6.75396 1206.96 8.70196 1205.01 8.70196 1202.61C8.70196 1200.21 6.75396 1198.26 4.35098 1198.26C1.948 1198.26 0 1200.21 0 1202.61C0 1205.01 1.948 1206.96 4.35098 1206.96Z" fill="#ACACAC"/>
<path d="M403.771 1206.96C406.174 1206.96 408.122 1205.01 408.122 1202.61C408.122 1200.21 406.174 1198.26 403.771 1198.26C401.368 1198.26 399.42 1200.21 399.42 1202.61C399.42 1205.01 401.368 1206.96 403.771 1206.96Z" fill="#ACACAC"/>
<path d="M803.191 1206.96C805.594 1206.96 807.542 1205.01 807.542 1202.61C807.542 1200.21 805.594 1198.26 803.191 1198.26C800.788 1198.26 798.84 1200.21 798.84 1202.61C798.84 1205.01 800.788 1206.96 803.191 1206.96Z" fill="#ACACAC"/>
<path d="M1202.61 1206.96C1205.01 1206.96 1206.96 1205.01 1206.96 1202.61C1206.96 1200.21 1205.01 1198.26 1202.61 1198.26C1200.21 1198.26 1198.26 1200.21 1198.26 1202.61C1198.26 1205.01 1200.21 1206.96 1202.61 1206.96Z" fill="#ACACAC"/>
<path d="M1602.03 1206.96C1604.43 1206.96 1606.38 1205.01 1606.38 1202.61C1606.38 1200.21 1604.43 1198.26 1602.03 1198.26C1599.63 1198.26 1597.68 1200.21 1597.68 1202.61C1597.68 1205.01 1599.63 1206.96 1602.03 1206.96Z" fill="#ACACAC"/>
<path d="M2001.45 1206.96C2003.85 1206.96 2005.8 1205.01 2005.8 1202.61C2005.8 1200.21 2003.85 1198.26 2001.45 1198.26C1999.05 1198.26 1997.1 1200.21 1997.1 1202.61C1997.1 1205.01 1999.05 1206.96 2001.45 1206.96Z" fill="#ACACAC"/>
<path d="M2400.87 1206.96C2403.27 1206.96 2405.22 1205.01 2405.22 1202.61C2405.22 1200.21 2403.27 1198.26 2400.87 1198.26C2398.47 1198.26 2396.52 1200.21 2396.52 1202.61C2396.52 1205.01 2398.47 1206.96 2400.87 1206.96Z" fill="#ACACAC"/>
<path d="M2800.29 1206.96C2802.69 1206.96 2804.64 1205.01 2804.64 1202.61C2804.64 1200.21 2802.69 1198.26 2800.29 1198.26C2797.89 1198.26 2795.94 1200.21 2795.94 1202.61C2795.94 1205.01 2797.89 1206.96 2800.29 1206.96Z" fill="#ACACAC"/>
<path d="M3199.71 1206.96C3202.11 1206.96 3204.06 1205.01 3204.06 1202.61C3204.06 1200.21 3202.11 1198.26 3199.71 1198.26C3197.31 1198.26 3195.36 1200.21 3195.36 1202.61C3195.36 1205.01 3197.31 1206.96 3199.71 1206.96Z" fill="#ACACAC"/>
<path d="M3599.13 1206.96C3601.53 1206.96 3603.48 1205.01 3603.48 1202.61C3603.48 1200.21 3601.53 1198.26 3599.13 1198.26C3596.73 1198.26 3594.78 1200.21 3594.78 1202.61C3594.78 1205.01 3596.73 1206.96 3599.13 1206.96Z" fill="#ACACAC"/>
<path d="M3998.55 1206.96C4000.95 1206.96 4002.9 1205.01 4002.9 1202.61C4002.9 1200.21 4000.95 1198.26 3998.55 1198.26C3996.15 1198.26 3994.2 1200.21 3994.2 1202.61C3994.2 1205.01 3996.15 1206.96 3998.55 1206.96Z" fill="#ACACAC"/>
<path d="M4397.97 1206.96C4400.37 1206.96 4402.32 1205.01 4402.32 1202.61C4402.32 1200.21 4400.37 1198.26 4397.97 1198.26C4395.57 1198.26 4393.62 1200.21 4393.62 1202.61C4393.62 1205.01 4395.57 1206.96 4397.97 1206.96Z" fill="#ACACAC"/>
<path d="M4797.39 1206.96C4799.79 1206.96 4801.74 1205.01 4801.74 1202.61C4801.74 1200.21 4799.79 1198.26 4797.39 1198.26C4794.99 1198.26 4793.04 1200.21 4793.04 1202.61C4793.04 1205.01 4794.99 1206.96 4797.39 1206.96Z" fill="#ACACAC"/>
<path d="M5196.81 1206.96C5199.21 1206.96 5201.16 1205.01 5201.16 1202.61C5201.16 1200.21 5199.21 1198.26 5196.81 1198.26C5194.41 1198.26 5192.46 1200.21 5192.46 1202.61C5192.46 1205.01 5194.41 1206.96 5196.81 1206.96Z" fill="#ACACAC"/>
<path d="M5596.23 1206.96C5598.63 1206.96 5600.58 1205.01 5600.58 1202.61C5600.58 1200.21 5598.63 1198.26 5596.23 1198.26C5593.83 1198.26 5591.88 1200.21 5591.88 1202.61C5591.88 1205.01 5593.83 1206.96 5596.23 1206.96Z" fill="#ACACAC"/>
<path d="M5995.65 1206.96C5998.05 1206.96 6000 1205.01 6000 1202.61C6000 1200.21 5998.05 1198.26 5995.65 1198.26C5993.25 1198.26 5991.3 1200.21 5991.3 1202.61C5991.3 1205.01 5993.25 1206.96 5995.65 1206.96Z" fill="#ACACAC"/>
<path d="M4.35098 1606.38C6.75396 1606.38 8.70196 1604.43 8.70196 1602.03C8.70196 1599.63 6.75396 1597.68 4.35098 1597.68C1.948 1597.68 0 1599.63 0 1602.03C0 1604.43 1.948 1606.38 4.35098 1606.38Z" fill="#ACACAC"/>
<path d="M403.771 1606.38C406.174 1606.38 408.122 1604.43 408.122 1602.03C408.122 1599.63 406.174 1597.68 403.771 1597.68C401.368 1597.68 399.42 1599.63 399.42 1602.03C399.42 1604.43 401.368 1606.38 403.771 1606.38Z" fill="#ACACAC"/>
<path d="M803.191 1606.38C805.594 1606.38 807.542 1604.43 807.542 1602.03C807.542 1599.63 805.594 1597.68 803.191 1597.68C800.788 1597.68 798.84 1599.63 798.84 1602.03C798.84 1604.43 800.788 1606.38 803.191 1606.38Z" fill="#ACACAC"/>
<path d="M1202.61 1606.38C1205.01 1606.38 1206.96 1604.43 1206.96 1602.03C1206.96 1599.63 1205.01 1597.68 1202.61 1597.68C1200.21 1597.68 1198.26 1599.63 1198.26 1602.03C1198.26 1604.43 1200.21 1606.38 1202.61 1606.38Z" fill="#ACACAC"/>
<path d="M1602.03 1606.38C1604.43 1606.38 1606.38 1604.43 1606.38 1602.03C1606.38 1599.63 1604.43 1597.68 1602.03 1597.68C1599.63 1597.68 1597.68 1599.63 1597.68 1602.03C1597.68 1604.43 1599.63 1606.38 1602.03 1606.38Z" fill="#ACACAC"/>
<path d="M2001.45 1606.38C2003.85 1606.38 2005.8 1604.43 2005.8 1602.03C2005.8 1599.63 2003.85 1597.68 2001.45 1597.68C1999.05 1597.68 1997.1 1599.63 1997.1 1602.03C1997.1 1604.43 1999.05 1606.38 2001.45 1606.38Z" fill="#ACACAC"/>
<path d="M2400.87 1606.38C2403.27 1606.38 2405.22 1604.43 2405.22 1602.03C2405.22 1599.63 2403.27 1597.68 2400.87 1597.68C2398.47 1597.68 2396.52 1599.63 2396.52 1602.03C2396.52 1604.43 2398.47 1606.38 2400.87 1606.38Z" fill="#ACACAC"/>
<path d="M2800.29 1606.38C2802.69 1606.38 2804.64 1604.43 2804.64 1602.03C2804.64 1599.63 2802.69 1597.68 2800.29 1597.68C2797.89 1597.68 2795.94 1599.63 2795.94 1602.03C2795.94 1604.43 2797.89 1606.38 2800.29 1606.38Z" fill="#ACACAC"/>
<path d="M3199.71 1606.38C3202.11 1606.38 3204.06 1604.43 3204.06 1602.03C3204.06 1599.63 3202.11 1597.68 3199.71 1597.68C3197.31 1597.68 3195.36 1599.63 3195.36 1602.03C3195.36 1604.43 3197.31 1606.38 3199.71 1606.38Z" fill="#ACACAC"/>
<path d="M3599.13 1606.38C3601.53 1606.38 3603.48 1604.43 3603.48 1602.03C3603.48 1599.63 3601.53 1597.68 3599.13 1597.68C3596.73 1597.68 3594.78 1599.63 3594.78 1602.03C3594.78 1604.43 3596.73 1606.38 3599.13 1606.38Z" fill="#ACACAC"/>
<path d="M3998.55 1606.38C4000.95 1606.38 4002.9 1604.43 4002.9 1602.03C4002.9 1599.63 4000.95 1597.68 3998.55 1597.68C3996.15 1597.68 3994.2 1599.63 3994.2 1602.03C3994.2 1604.43 3996.15 1606.38 3998.55 1606.38Z" fill="#ACACAC"/>
<path d="M4397.97 1606.38C4400.37 1606.38 4402.32 1604.43 4402.32 1602.03C4402.32 1599.63 4400.37 1597.68 4397.97 1597.68C4395.57 1597.68 4393.62 1599.63 4393.62 1602.03C4393.62 1604.43 4395.57 1606.38 4397.97 1606.38Z" fill="#ACACAC"/>
<path d="M4797.39 1606.38C4799.79 1606.38 4801.74 1604.43 4801.74 1602.03C4801.74 1599.63 4799.79 1597.68 4797.39 1597.68C4794.99 1597.68 4793.04 1599.63 4793.04 1602.03C4793.04 1604.43 4794.99 1606.38 4797.39 1606.38Z" fill="#ACACAC"/>
<path d="M5196.81 1606.38C5199.21 1606.38 5201.16 1604.43 5201.16 1602.03C5201.16 1599.63 5199.21 1597.68 5196.81 1597.68C5194.41 1597.68 5192.46 1599.63 5192.46 1602.03C5192.46 1604.43 5194.41 1606.38 5196.81 1606.38Z" fill="#ACACAC"/>
<path d="M5596.23 1606.38C5598.63 1606.38 5600.58 1604.43 5600.58 1602.03C5600.58 1599.63 5598.63 1597.68 5596.23 1597.68C5593.83 1597.68 5591.88 1599.63 5591.88 1602.03C5591.88 1604.43 5593.83 1606.38 5596.23 1606.38Z" fill="#ACACAC"/>
<path d="M5995.65 1606.38C5998.05 1606.38 6000 1604.43 6000 1602.03C6000 1599.63 5998.05 1597.68 5995.65 1597.68C5993.25 1597.68 5991.3 1599.63 5991.3 1602.03C5991.3 1604.43 5993.25 1606.38 5995.65 1606.38Z" fill="#ACACAC"/>
<path d="M4.35098 2005.8C6.75396 2005.8 8.70196 2003.85 8.70196 2001.45C8.70196 1999.05 6.75396 1997.1 4.35098 1997.1C1.948 1997.1 0 1999.05 0 2001.45C0 2003.85 1.948 2005.8 4.35098 2005.8Z" fill="#ACACAC"/>
<path d="M403.771 2005.8C406.174 2005.8 408.122 2003.85 408.122 2001.45C408.122 1999.05 406.174 1997.1 403.771 1997.1C401.368 1997.1 399.42 1999.05 399.42 2001.45C399.42 2003.85 401.368 2005.8 403.771 2005.8Z" fill="#ACACAC"/>
<path d="M803.191 2005.8C805.594 2005.8 807.542 2003.85 807.542 2001.45C807.542 1999.05 805.594 1997.1 803.191 1997.1C800.788 1997.1 798.84 1999.05 798.84 2001.45C798.84 2003.85 800.788 2005.8 803.191 2005.8Z" fill="#ACACAC"/>
<path d="M1202.61 2005.8C1205.01 2005.8 1206.96 2003.85 1206.96 2001.45C1206.96 1999.05 1205.01 1997.1 1202.61 1997.1C1200.21 1997.1 1198.26 1999.05 1198.26 2001.45C1198.26 2003.85 1200.21 2005.8 1202.61 2005.8Z" fill="#ACACAC"/>
<path d="M1602.03 2005.8C1604.43 2005.8 1606.38 2003.85 1606.38 2001.45C1606.38 1999.05 1604.43 1997.1 1602.03 1997.1C1599.63 1997.1 1597.68 1999.05 1597.68 2001.45C1597.68 2003.85 1599.63 2005.8 1602.03 2005.8Z" fill="#ACACAC"/>
<path d="M2001.45 2005.8C2003.85 2005.8 2005.8 2003.85 2005.8 2001.45C2005.8 1999.05 2003.85 1997.1 2001.45 1997.1C1999.05 1997.1 1997.1 1999.05 1997.1 2001.45C1997.1 2003.85 1999.05 2005.8 2001.45 2005.8Z" fill="#ACACAC"/>
<path d="M2400.87 2005.8C2403.27 2005.8 2405.22 2003.85 2405.22 2001.45C2405.22 1999.05 2403.27 1997.1 2400.87 1997.1C2398.47 1997.1 2396.52 1999.05 2396.52 2001.45C2396.52 2003.85 2398.47 2005.8 2400.87 2005.8Z" fill="#ACACAC"/>
<path d="M2800.29 2005.8C2802.69 2005.8 2804.64 2003.85 2804.64 2001.45C2804.64 1999.05 2802.69 1997.1 2800.29 1997.1C2797.89 1997.1 2795.94 1999.05 2795.94 2001.45C2795.94 2003.85 2797.89 2005.8 2800.29 2005.8Z" fill="#ACACAC"/>
<path d="M3199.71 2005.8C3202.11 2005.8 3204.06 2003.85 3204.06 2001.45C3204.06 1999.05 3202.11 1997.1 3199.71 1997.1C3197.31 1997.1 3195.36 1999.05 3195.36 2001.45C3195.36 2003.85 3197.31 2005.8 3199.71 2005.8Z" fill="#ACACAC"/>
<path d="M3599.13 2005.8C3601.53 2005.8 3603.48 2003.85 3603.48 2001.45C3603.48 1999.05 3601.53 1997.1 3599.13 1997.1C3596.73 1997.1 3594.78 1999.05 3594.78 2001.45C3594.78 2003.85 3596.73 2005.8 3599.13 2005.8Z" fill="#ACACAC"/>
<path d="M3998.55 2005.8C4000.95 2005.8 4002.9 2003.85 4002.9 2001.45C4002.9 1999.05 4000.95 1997.1 3998.55 1997.1C3996.15 1997.1 3994.2 1999.05 3994.2 2001.45C3994.2 2003.85 3996.15 2005.8 3998.55 2005.8Z" fill="#ACACAC"/>
<path d="M4397.97 2005.8C4400.37 2005.8 4402.32 2003.85 4402.32 2001.45C4402.32 1999.05 4400.37 1997.1 4397.97 1997.1C4395.57 1997.1 4393.62 1999.05 4393.62 2001.45C4393.62 2003.85 4395.57 2005.8 4397.97 2005.8Z" fill="#ACACAC"/>
<path d="M4797.39 2005.8C4799.79 2005.8 4801.74 2003.85 4801.74 2001.45C4801.74 1999.05 4799.79 1997.1 4797.39 1997.1C4794.99 1997.1 4793.04 1999.05 4793.04 2001.45C4793.04 2003.85 4794.99 2005.8 4797.39 2005.8Z" fill="#ACACAC"/>
<path d="M5196.81 2005.8C5199.21 2005.8 5201.16 2003.85 5201.16 2001.45C5201.16 1999.05 5199.21 1997.1 5196.81 1997.1C5194.41 1997.1 5192.46 1999.05 5192.46 2001.45C5192.46 2003.85 5194.41 2005.8 5196.81 2005.8Z" fill="#ACACAC"/>
<path d="M5596.23 2005.8C5598.63 2005.8 5600.58 2003.85 5600.58 2001.45C5600.58 1999.05 5598.63 1997.1 5596.23 1997.1C5593.83 1997.1 5591.88 1999.05 5591.88 2001.45C5591.88 2003.85 5593.83 2005.8 5596.23 2005.8Z" fill="#ACACAC"/>
<path d="M5995.65 2005.8C5998.05 2005.8 6000 2003.85 6000 2001.45C6000 1999.05 5998.05 1997.1 5995.65 1997.1C5993.25 1997.1 5991.3 1999.05 5991.3 2001.45C5991.3 2003.85 5993.25 2005.8 5995.65 2005.8Z" fill="#ACACAC"/>
<path d="M4.35098 2405.22C6.75396 2405.22 8.70196 2403.27 8.70196 2400.87C8.70196 2398.47 6.75396 2396.52 4.35098 2396.52C1.948 2396.52 0 2398.47 0 2400.87C0 2403.27 1.948 2405.22 4.35098 2405.22Z" fill="#ACACAC"/>
<path d="M403.771 2405.22C406.174 2405.22 408.122 2403.27 408.122 2400.87C408.122 2398.47 406.174 2396.52 403.771 2396.52C401.368 2396.52 399.42 2398.47 399.42 2400.87C399.42 2403.27 401.368 2405.22 403.771 2405.22Z" fill="#ACACAC"/>
<path d="M803.191 2405.22C805.594 2405.22 807.542 2403.27 807.542 2400.87C807.542 2398.47 805.594 2396.52 803.191 2396.52C800.788 2396.52 798.84 2398.47 798.84 2400.87C798.84 2403.27 800.788 2405.22 803.191 2405.22Z" fill="#ACACAC"/>
<path d="M1202.61 2405.22C1205.01 2405.22 1206.96 2403.27 1206.96 2400.87C1206.96 2398.47 1205.01 2396.52 1202.61 2396.52C1200.21 2396.52 1198.26 2398.47 1198.26 2400.87C1198.26 2403.27 1200.21 2405.22 1202.61 2405.22Z" fill="#ACACAC"/>
<path d="M1602.03 2405.22C1604.43 2405.22 1606.38 2403.27 1606.38 2400.87C1606.38 2398.47 1604.43 2396.52 1602.03 2396.52C1599.63 2396.52 1597.68 2398.47 1597.68 2400.87C1597.68 2403.27 1599.63 2405.22 1602.03 2405.22Z" fill="#ACACAC"/>
<path d="M2001.45 2405.22C2003.85 2405.22 2005.8 2403.27 2005.8 2400.87C2005.8 2398.47 2003.85 2396.52 2001.45 2396.52C1999.05 2396.52 1997.1 2398.47 1997.1 2400.87C1997.1 2403.27 1999.05 2405.22 2001.45 2405.22Z" fill="#ACACAC"/>
<path d="M2400.87 2405.22C2403.27 2405.22 2405.22 2403.27 2405.22 2400.87C2405.22 2398.47 2403.27 2396.52 2400.87 2396.52C2398.47 2396.52 2396.52 2398.47 2396.52 2400.87C2396.52 2403.27 2398.47 2405.22 2400.87 2405.22Z" fill="#ACACAC"/>
<path d="M2800.29 2405.22C2802.69 2405.22 2804.64 2403.27 2804.64 2400.87C2804.64 2398.47 2802.69 2396.52 2800.29 2396.52C2797.89 2396.52 2795.94 2398.47 2795.94 2400.87C2795.94 2403.27 2797.89 2405.22 2800.29 2405.22Z" fill="#ACACAC"/>
<path d="M3199.71 2405.22C3202.11 2405.22 3204.06 2403.27 3204.06 2400.87C3204.06 2398.47 3202.11 2396.52 3199.71 2396.52C3197.31 2396.52 3195.36 2398.47 3195.36 2400.87C3195.36 2403.27 3197.31 2405.22 3199.71 2405.22Z" fill="#ACACAC"/>
<path d="M3599.13 2405.22C3601.53 2405.22 3603.48 2403.27 3603.48 2400.87C3603.48 2398.47 3601.53 2396.52 3599.13 2396.52C3596.73 2396.52 3594.78 2398.47 3594.78 2400.87C3594.78 2403.27 3596.73 2405.22 3599.13 2405.22Z" fill="#ACACAC"/>
<path d="M3998.55 2405.22C4000.95 2405.22 4002.9 2403.27 4002.9 2400.87C4002.9 2398.47 4000.95 2396.52 3998.55 2396.52C3996.15 2396.52 3994.2 2398.47 3994.2 2400.87C3994.2 2403.27 3996.15 2405.22 3998.55 2405.22Z" fill="#ACACAC"/>
<path d="M4397.97 2405.22C4400.37 2405.22 4402.32 2403.27 4402.32 2400.87C4402.32 2398.47 4400.37 2396.52 4397.97 2396.52C4395.57 2396.52 4393.62 2398.47 4393.62 2400.87C4393.62 2403.27 4395.57 2405.22 4397.97 2405.22Z" fill="#ACACAC"/>
<path d="M4797.39 2405.22C4799.79 2405.22 4801.74 2403.27 4801.74 2400.87C4801.74 2398.47 4799.79 2396.52 4797.39 2396.52C4794.99 2396.52 4793.04 2398.47 4793.04 2400.87C4793.04 2403.27 4794.99 2405.22 4797.39 2405.22Z" fill="#ACACAC"/>
<path d="M5196.81 2405.22C5199.21 2405.22 5201.16 2403.27 5201.16 2400.87C5201.16 2398.47 5199.21 2396.52 5196.81 2396.52C5194.41 2396.52 5192.46 2398.47 5192.46 2400.87C5192.46 2403.27 5194.41 2405.22 5196.81 2405.22Z" fill="#ACACAC"/>
<path d="M5596.23 2405.22C5598.63 2405.22 5600.58 2403.27 5600.58 2400.87C5600.58 2398.47 5598.63 2396.52 5596.23 2396.52C5593.83 2396.52 5591.88 2398.47 5591.88 2400.87C5591.88 2403.27 5593.83 2405.22 5596.23 2405.22Z" fill="#ACACAC"/>
<path d="M5995.65 2405.22C5998.05 2405.22 6000 2403.27 6000 2400.87C6000 2398.47 5998.05 2396.52 5995.65 2396.52C5993.25 2396.52 5991.3 2398.47 5991.3 2400.87C5991.3 2403.27 5993.25 2405.22 5995.65 2405.22Z" fill="#ACACAC"/>
<path d="M4.35098 2804.64C6.75396 2804.64 8.70196 2802.7 8.70196 2800.29C8.70196 2797.89 6.75396 2795.94 4.35098 2795.94C1.948 2795.94 0 2797.89 0 2800.29C0 2802.7 1.948 2804.64 4.35098 2804.64Z" fill="#ACACAC"/>
<path d="M403.771 2804.64C406.174 2804.64 408.122 2802.7 408.122 2800.29C408.122 2797.89 406.174 2795.94 403.771 2795.94C401.368 2795.94 399.42 2797.89 399.42 2800.29C399.42 2802.7 401.368 2804.64 403.771 2804.64Z" fill="#ACACAC"/>
<path d="M803.191 2804.64C805.594 2804.64 807.542 2802.7 807.542 2800.29C807.542 2797.89 805.594 2795.94 803.191 2795.94C800.788 2795.94 798.84 2797.89 798.84 2800.29C798.84 2802.7 800.788 2804.64 803.191 2804.64Z" fill="#ACACAC"/>
<path d="M1202.61 2804.64C1205.01 2804.64 1206.96 2802.7 1206.96 2800.29C1206.96 2797.89 1205.01 2795.94 1202.61 2795.94C1200.21 2795.94 1198.26 2797.89 1198.26 2800.29C1198.26 2802.7 1200.21 2804.64 1202.61 2804.64Z" fill="#ACACAC"/>
<path d="M1602.03 2804.64C1604.43 2804.64 1606.38 2802.7 1606.38 2800.29C1606.38 2797.89 1604.43 2795.94 1602.03 2795.94C1599.63 2795.94 1597.68 2797.89 1597.68 2800.29C1597.68 2802.7 1599.63 2804.64 1602.03 2804.64Z" fill="#ACACAC"/>
<path d="M2001.45 2804.64C2003.85 2804.64 2005.8 2802.7 2005.8 2800.29C2005.8 2797.89 2003.85 2795.94 2001.45 2795.94C1999.05 2795.94 1997.1 2797.89 1997.1 2800.29C1997.1 2802.7 1999.05 2804.64 2001.45 2804.64Z" fill="#ACACAC"/>
<path d="M2400.87 2804.64C2403.27 2804.64 2405.22 2802.7 2405.22 2800.29C2405.22 2797.89 2403.27 2795.94 2400.87 2795.94C2398.47 2795.94 2396.52 2797.89 2396.52 2800.29C2396.52 2802.7 2398.47 2804.64 2400.87 2804.64Z" fill="#ACACAC"/>
<path d="M2800.29 2804.64C2802.69 2804.64 2804.64 2802.7 2804.64 2800.29C2804.64 2797.89 2802.69 2795.94 2800.29 2795.94C2797.89 2795.94 2795.94 2797.89 2795.94 2800.29C2795.94 2802.7 2797.89 2804.64 2800.29 2804.64Z" fill="#ACACAC"/>
<path d="M3199.71 2804.64C3202.11 2804.64 3204.06 2802.7 3204.06 2800.29C3204.06 2797.89 3202.11 2795.94 3199.71 2795.94C3197.31 2795.94 3195.36 2797.89 3195.36 2800.29C3195.36 2802.7 3197.31 2804.64 3199.71 2804.64Z" fill="#ACACAC"/>
<path d="M3599.13 2804.64C3601.53 2804.64 3603.48 2802.7 3603.48 2800.29C3603.48 2797.89 3601.53 2795.94 3599.13 2795.94C3596.73 2795.94 3594.78 2797.89 3594.78 2800.29C3594.78 2802.7 3596.73 2804.64 3599.13 2804.64Z" fill="#ACACAC"/>
<path d="M3998.55 2804.64C4000.95 2804.64 4002.9 2802.7 4002.9 2800.29C4002.9 2797.89 4000.95 2795.94 3998.55 2795.94C3996.15 2795.94 3994.2 2797.89 3994.2 2800.29C3994.2 2802.7 3996.15 2804.64 3998.55 2804.64Z" fill="#ACACAC"/>
<path d="M4397.97 2804.64C4400.37 2804.64 4402.32 2802.7 4402.32 2800.29C4402.32 2797.89 4400.37 2795.94 4397.97 2795.94C4395.57 2795.94 4393.62 2797.89 4393.62 2800.29C4393.62 2802.7 4395.57 2804.64 4397.97 2804.64Z" fill="#ACACAC"/>
<path d="M4797.39 2804.64C4799.79 2804.64 4801.74 2802.7 4801.74 2800.29C4801.74 2797.89 4799.79 2795.94 4797.39 2795.94C4794.99 2795.94 4793.04 2797.89 4793.04 2800.29C4793.04 2802.7 4794.99 2804.64 4797.39 2804.64Z" fill="#ACACAC"/>
<path d="M5196.81 2804.64C5199.21 2804.64 5201.16 2802.7 5201.16 2800.29C5201.16 2797.89 5199.21 2795.94 5196.81 2795.94C5194.41 2795.94 5192.46 2797.89 5192.46 2800.29C5192.46 2802.7 5194.41 2804.64 5196.81 2804.64Z" fill="#ACACAC"/>
<path d="M5596.23 2804.64C5598.63 2804.64 5600.58 2802.7 5600.58 2800.29C5600.58 2797.89 5598.63 2795.94 5596.23 2795.94C5593.83 2795.94 5591.88 2797.89 5591.88 2800.29C5591.88 2802.7 5593.83 2804.64 5596.23 2804.64Z" fill="#ACACAC"/>
<path d="M5995.65 2804.64C5998.05 2804.64 6000 2802.7 6000 2800.29C6000 2797.89 5998.05 2795.94 5995.65 2795.94C5993.25 2795.94 5991.3 2797.89 5991.3 2800.29C5991.3 2802.7 5993.25 2804.64 5995.65 2804.64Z" fill="#ACACAC"/>
<path d="M4.35098 3204.06C6.75396 3204.06 8.70196 3202.11 8.70196 3199.71C8.70196 3197.31 6.75396 3195.36 4.35098 3195.36C1.948 3195.36 0 3197.31 0 3199.71C0 3202.11 1.948 3204.06 4.35098 3204.06Z" fill="#ACACAC"/>
<path d="M403.771 3204.06C406.174 3204.06 408.122 3202.11 408.122 3199.71C408.122 3197.31 406.174 3195.36 403.771 3195.36C401.368 3195.36 399.42 3197.31 399.42 3199.71C399.42 3202.11 401.368 3204.06 403.771 3204.06Z" fill="#ACACAC"/>
<path d="M803.191 3204.06C805.594 3204.06 807.542 3202.11 807.542 3199.71C807.542 3197.31 805.594 3195.36 803.191 3195.36C800.788 3195.36 798.84 3197.31 798.84 3199.71C798.84 3202.11 800.788 3204.06 803.191 3204.06Z" fill="#ACACAC"/>
<path d="M1202.61 3204.06C1205.01 3204.06 1206.96 3202.11 1206.96 3199.71C1206.96 3197.31 1205.01 3195.36 1202.61 3195.36C1200.21 3195.36 1198.26 3197.31 1198.26 3199.71C1198.26 3202.11 1200.21 3204.06 1202.61 3204.06Z" fill="#ACACAC"/>
<path d="M1602.03 3204.06C1604.43 3204.06 1606.38 3202.11 1606.38 3199.71C1606.38 3197.31 1604.43 3195.36 1602.03 3195.36C1599.63 3195.36 1597.68 3197.31 1597.68 3199.71C1597.68 3202.11 1599.63 3204.06 1602.03 3204.06Z" fill="#ACACAC"/>
<path d="M2001.45 3204.06C2003.85 3204.06 2005.8 3202.11 2005.8 3199.71C2005.8 3197.31 2003.85 3195.36 2001.45 3195.36C1999.05 3195.36 1997.1 3197.31 1997.1 3199.71C1997.1 3202.11 1999.05 3204.06 2001.45 3204.06Z" fill="#ACACAC"/>
<path d="M2400.87 3204.06C2403.27 3204.06 2405.22 3202.11 2405.22 3199.71C2405.22 3197.31 2403.27 3195.36 2400.87 3195.36C2398.47 3195.36 2396.52 3197.31 2396.52 3199.71C2396.52 3202.11 2398.47 3204.06 2400.87 3204.06Z" fill="#ACACAC"/>
<path d="M2800.29 3204.06C2802.69 3204.06 2804.64 3202.11 2804.64 3199.71C2804.64 3197.31 2802.69 3195.36 2800.29 3195.36C2797.89 3195.36 2795.94 3197.31 2795.94 3199.71C2795.94 3202.11 2797.89 3204.06 2800.29 3204.06Z" fill="#ACACAC"/>
<path d="M3199.71 3204.06C3202.11 3204.06 3204.06 3202.11 3204.06 3199.71C3204.06 3197.31 3202.11 3195.36 3199.71 3195.36C3197.31 3195.36 3195.36 3197.31 3195.36 3199.71C3195.36 3202.11 3197.31 3204.06 3199.71 3204.06Z" fill="#ACACAC"/>
<path d="M3599.13 3204.06C3601.53 3204.06 3603.48 3202.11 3603.48 3199.71C3603.48 3197.31 3601.53 3195.36 3599.13 3195.36C3596.73 3195.36 3594.78 3197.31 3594.78 3199.71C3594.78 3202.11 3596.73 3204.06 3599.13 3204.06Z" fill="#ACACAC"/>
<path d="M3998.55 3204.06C4000.95 3204.06 4002.9 3202.11 4002.9 3199.71C4002.9 3197.31 4000.95 3195.36 3998.55 3195.36C3996.15 3195.36 3994.2 3197.31 3994.2 3199.71C3994.2 3202.11 3996.15 3204.06 3998.55 3204.06Z" fill="#ACACAC"/>
<path d="M4397.97 3204.06C4400.37 3204.06 4402.32 3202.11 4402.32 3199.71C4402.32 3197.31 4400.37 3195.36 4397.97 3195.36C4395.57 3195.36 4393.62 3197.31 4393.62 3199.71C4393.62 3202.11 4395.57 3204.06 4397.97 3204.06Z" fill="#ACACAC"/>
<path d="M4797.39 3204.06C4799.79 3204.06 4801.74 3202.11 4801.74 3199.71C4801.74 3197.31 4799.79 3195.36 4797.39 3195.36C4794.99 3195.36 4793.04 3197.31 4793.04 3199.71C4793.04 3202.11 4794.99 3204.06 4797.39 3204.06Z" fill="#ACACAC"/>
<path d="M5196.81 3204.06C5199.21 3204.06 5201.16 3202.11 5201.16 3199.71C5201.16 3197.31 5199.21 3195.36 5196.81 3195.36C5194.41 3195.36 5192.46 3197.31 5192.46 3199.71C5192.46 3202.11 5194.41 3204.06 5196.81 3204.06Z" fill="#ACACAC"/>
<path d="M5596.23 3204.06C5598.63 3204.06 5600.58 3202.11 5600.58 3199.71C5600.58 3197.31 5598.63 3195.36 5596.23 3195.36C5593.83 3195.36 5591.88 3197.31 5591.88 3199.71C5591.88 3202.11 5593.83 3204.06 5596.23 3204.06Z" fill="#ACACAC"/>
<path d="M5995.65 3204.06C5998.05 3204.06 6000 3202.11 6000 3199.71C6000 3197.31 5998.05 3195.36 5995.65 3195.36C5993.25 3195.36 5991.3 3197.31 5991.3 3199.71C5991.3 3202.11 5993.25 3204.06 5995.65 3204.06Z" fill="#ACACAC"/>
<path d="M4.35098 3603.48C6.75396 3603.48 8.70196 3601.54 8.70196 3599.13C8.70196 3596.73 6.75396 3594.78 4.35098 3594.78C1.948 3594.78 0 3596.73 0 3599.13C0 3601.54 1.948 3603.48 4.35098 3603.48Z" fill="#ACACAC"/>
<path d="M403.771 3603.48C406.174 3603.48 408.122 3601.54 408.122 3599.13C408.122 3596.73 406.174 3594.78 403.771 3594.78C401.368 3594.78 399.42 3596.73 399.42 3599.13C399.42 3601.54 401.368 3603.48 403.771 3603.48Z" fill="#ACACAC"/>
<path d="M803.191 3603.48C805.594 3603.48 807.542 3601.54 807.542 3599.13C807.542 3596.73 805.594 3594.78 803.191 3594.78C800.788 3594.78 798.84 3596.73 798.84 3599.13C798.84 3601.54 800.788 3603.48 803.191 3603.48Z" fill="#ACACAC"/>
<path d="M1202.61 3603.48C1205.01 3603.48 1206.96 3601.54 1206.96 3599.13C1206.96 3596.73 1205.01 3594.78 1202.61 3594.78C1200.21 3594.78 1198.26 3596.73 1198.26 3599.13C1198.26 3601.54 1200.21 3603.48 1202.61 3603.48Z" fill="#ACACAC"/>
<path d="M1602.03 3603.48C1604.43 3603.48 1606.38 3601.54 1606.38 3599.13C1606.38 3596.73 1604.43 3594.78 1602.03 3594.78C1599.63 3594.78 1597.68 3596.73 1597.68 3599.13C1597.68 3601.54 1599.63 3603.48 1602.03 3603.48Z" fill="#ACACAC"/>
<path d="M2001.45 3603.48C2003.85 3603.48 2005.8 3601.54 2005.8 3599.13C2005.8 3596.73 2003.85 3594.78 2001.45 3594.78C1999.05 3594.78 1997.1 3596.73 1997.1 3599.13C1997.1 3601.54 1999.05 3603.48 2001.45 3603.48Z" fill="#ACACAC"/>
<path d="M2400.87 3603.48C2403.27 3603.48 2405.22 3601.54 2405.22 3599.13C2405.22 3596.73 2403.27 3594.78 2400.87 3594.78C2398.47 3594.78 2396.52 3596.73 2396.52 3599.13C2396.52 3601.54 2398.47 3603.48 2400.87 3603.48Z" fill="#ACACAC"/>
<path d="M2800.29 3603.48C2802.69 3603.48 2804.64 3601.54 2804.64 3599.13C2804.64 3596.73 2802.69 3594.78 2800.29 3594.78C2797.89 3594.78 2795.94 3596.73 2795.94 3599.13C2795.94 3601.54 2797.89 3603.48 2800.29 3603.48Z" fill="#ACACAC"/>
<path d="M3199.71 3603.48C3202.11 3603.48 3204.06 3601.54 3204.06 3599.13C3204.06 3596.73 3202.11 3594.78 3199.71 3594.78C3197.31 3594.78 3195.36 3596.73 3195.36 3599.13C3195.36 3601.54 3197.31 3603.48 3199.71 3603.48Z" fill="#ACACAC"/>
<path d="M3599.13 3603.48C3601.53 3603.48 3603.48 3601.54 3603.48 3599.13C3603.48 3596.73 3601.53 3594.78 3599.13 3594.78C3596.73 3594.78 3594.78 3596.73 3594.78 3599.13C3594.78 3601.54 3596.73 3603.48 3599.13 3603.48Z" fill="#ACACAC"/>
<path d="M3998.55 3603.48C4000.95 3603.48 4002.9 3601.54 4002.9 3599.13C4002.9 3596.73 4000.95 3594.78 3998.55 3594.78C3996.15 3594.78 3994.2 3596.73 3994.2 3599.13C3994.2 3601.54 3996.15 3603.48 3998.55 3603.48Z" fill="#ACACAC"/>
<path d="M4397.97 3603.48C4400.37 3603.48 4402.32 3601.54 4402.32 3599.13C4402.32 3596.73 4400.37 3594.78 4397.97 3594.78C4395.57 3594.78 4393.62 3596.73 4393.62 3599.13C4393.62 3601.54 4395.57 3603.48 4397.97 3603.48Z" fill="#ACACAC"/>
<path d="M4797.39 3603.48C4799.79 3603.48 4801.74 3601.54 4801.74 3599.13C4801.74 3596.73 4799.79 3594.78 4797.39 3594.78C4794.99 3594.78 4793.04 3596.73 4793.04 3599.13C4793.04 3601.54 4794.99 3603.48 4797.39 3603.48Z" fill="#ACACAC"/>
<path d="M5196.81 3603.48C5199.21 3603.48 5201.16 3601.54 5201.16 3599.13C5201.16 3596.73 5199.21 3594.78 5196.81 3594.78C5194.41 3594.78 5192.46 3596.73 5192.46 3599.13C5192.46 3601.54 5194.41 3603.48 5196.81 3603.48Z" fill="#ACACAC"/>
<path d="M5596.23 3603.48C5598.63 3603.48 5600.58 3601.54 5600.58 3599.13C5600.58 3596.73 5598.63 3594.78 5596.23 3594.78C5593.83 3594.78 5591.88 3596.73 5591.88 3599.13C5591.88 3601.54 5593.83 3603.48 5596.23 3603.48Z" fill="#ACACAC"/>
<path d="M5995.65 3603.48C5998.05 3603.48 6000 3601.54 6000 3599.13C6000 3596.73 5998.05 3594.78 5995.65 3594.78C5993.25 3594.78 5991.3 3596.73 5991.3 3599.13C5991.3 3601.54 5993.25 3603.48 5995.65 3603.48Z" fill="#ACACAC"/>
<path d="M4.35098 4002.91C6.75396 4002.91 8.70196 4000.96 8.70196 3998.55C8.70196 3996.15 6.75396 3994.2 4.35098 3994.2C1.948 3994.2 0 3996.15 0 3998.55C0 4000.96 1.948 4002.91 4.35098 4002.91Z" fill="#ACACAC"/>
<path d="M403.771 4002.91C406.174 4002.91 408.122 4000.96 408.122 3998.55C408.122 3996.15 406.174 3994.2 403.771 3994.2C401.368 3994.2 399.42 3996.15 399.42 3998.55C399.42 4000.96 401.368 4002.91 403.771 4002.91Z" fill="#ACACAC"/>
<path d="M803.191 4002.91C805.594 4002.91 807.542 4000.96 807.542 3998.55C807.542 3996.15 805.594 3994.2 803.191 3994.2C800.788 3994.2 798.84 3996.15 798.84 3998.55C798.84 4000.96 800.788 4002.91 803.191 4002.91Z" fill="#ACACAC"/>
<path d="M1202.61 4002.91C1205.01 4002.91 1206.96 4000.96 1206.96 3998.55C1206.96 3996.15 1205.01 3994.2 1202.61 3994.2C1200.21 3994.2 1198.26 3996.15 1198.26 3998.55C1198.26 4000.96 1200.21 4002.91 1202.61 4002.91Z" fill="#ACACAC"/>
<path d="M1602.03 4002.91C1604.43 4002.91 1606.38 4000.96 1606.38 3998.55C1606.38 3996.15 1604.43 3994.2 1602.03 3994.2C1599.63 3994.2 1597.68 3996.15 1597.68 3998.55C1597.68 4000.96 1599.63 4002.91 1602.03 4002.91Z" fill="#ACACAC"/>
<path d="M2001.45 4002.91C2003.85 4002.91 2005.8 4000.96 2005.8 3998.55C2005.8 3996.15 2003.85 3994.2 2001.45 3994.2C1999.05 3994.2 1997.1 3996.15 1997.1 3998.55C1997.1 4000.96 1999.05 4002.91 2001.45 4002.91Z" fill="#ACACAC"/>
<path d="M2400.87 4002.91C2403.27 4002.91 2405.22 4000.96 2405.22 3998.55C2405.22 3996.15 2403.27 3994.2 2400.87 3994.2C2398.47 3994.2 2396.52 3996.15 2396.52 3998.55C2396.52 4000.96 2398.47 4002.91 2400.87 4002.91Z" fill="#ACACAC"/>
<path d="M2800.29 4002.91C2802.69 4002.91 2804.64 4000.96 2804.64 3998.55C2804.64 3996.15 2802.69 3994.2 2800.29 3994.2C2797.89 3994.2 2795.94 3996.15 2795.94 3998.55C2795.94 4000.96 2797.89 4002.91 2800.29 4002.91Z" fill="#ACACAC"/>
<path d="M3199.71 4002.91C3202.11 4002.91 3204.06 4000.96 3204.06 3998.55C3204.06 3996.15 3202.11 3994.2 3199.71 3994.2C3197.31 3994.2 3195.36 3996.15 3195.36 3998.55C3195.36 4000.96 3197.31 4002.91 3199.71 4002.91Z" fill="#ACACAC"/>
<path d="M3599.13 4002.91C3601.53 4002.91 3603.48 4000.96 3603.48 3998.55C3603.48 3996.15 3601.53 3994.2 3599.13 3994.2C3596.73 3994.2 3594.78 3996.15 3594.78 3998.55C3594.78 4000.96 3596.73 4002.91 3599.13 4002.91Z" fill="#ACACAC"/>
<path d="M3998.55 4002.91C4000.95 4002.91 4002.9 4000.96 4002.9 3998.55C4002.9 3996.15 4000.95 3994.2 3998.55 3994.2C3996.15 3994.2 3994.2 3996.15 3994.2 3998.55C3994.2 4000.96 3996.15 4002.91 3998.55 4002.91Z" fill="#ACACAC"/>
<path d="M4397.97 4002.91C4400.37 4002.91 4402.32 4000.96 4402.32 3998.55C4402.32 3996.15 4400.37 3994.2 4397.97 3994.2C4395.57 3994.2 4393.62 3996.15 4393.62 3998.55C4393.62 4000.96 4395.57 4002.91 4397.97 4002.91Z" fill="#ACACAC"/>
<path d="M4797.39 4002.91C4799.79 4002.91 4801.74 4000.96 4801.74 3998.55C4801.74 3996.15 4799.79 3994.2 4797.39 3994.2C4794.99 3994.2 4793.04 3996.15 4793.04 3998.55C4793.04 4000.96 4794.99 4002.91 4797.39 4002.91Z" fill="#ACACAC"/>
<path d="M5196.81 4002.91C5199.21 4002.91 5201.16 4000.96 5201.16 3998.55C5201.16 3996.15 5199.21 3994.2 5196.81 3994.2C5194.41 3994.2 5192.46 3996.15 5192.46 3998.55C5192.46 4000.96 5194.41 4002.91 5196.81 4002.91Z" fill="#ACACAC"/>
<path d="M5596.23 4002.91C5598.63 4002.91 5600.58 4000.96 5600.58 3998.55C5600.58 3996.15 5598.63 3994.2 5596.23 3994.2C5593.83 3994.2 5591.88 3996.15 5591.88 3998.55C5591.88 4000.96 5593.83 4002.91 5596.23 4002.91Z" fill="#ACACAC"/>
<path d="M5995.65 4002.91C5998.05 4002.91 6000 4000.96 6000 3998.55C6000 3996.15 5998.05 3994.2 5995.65 3994.2C5993.25 3994.2 5991.3 3996.15 5991.3 3998.55C5991.3 4000.96 5993.25 4002.91 5995.65 4002.91Z" fill="#ACACAC"/>
<path d="M4.35098 4402.32C6.75396 4402.32 8.70196 4400.37 8.70196 4397.97C8.70196 4395.57 6.75396 4393.62 4.35098 4393.62C1.948 4393.62 0 4395.57 0 4397.97C0 4400.37 1.948 4402.32 4.35098 4402.32Z" fill="#ACACAC"/>
<path d="M403.771 4402.32C406.174 4402.32 408.122 4400.37 408.122 4397.97C408.122 4395.57 406.174 4393.62 403.771 4393.62C401.368 4393.62 399.42 4395.57 399.42 4397.97C399.42 4400.37 401.368 4402.32 403.771 4402.32Z" fill="#ACACAC"/>
<path d="M803.191 4402.32C805.594 4402.32 807.542 4400.37 807.542 4397.97C807.542 4395.57 805.594 4393.62 803.191 4393.62C800.788 4393.62 798.84 4395.57 798.84 4397.97C798.84 4400.37 800.788 4402.32 803.191 4402.32Z" fill="#ACACAC"/>
<path d="M1202.61 4402.32C1205.01 4402.32 1206.96 4400.37 1206.96 4397.97C1206.96 4395.57 1205.01 4393.62 1202.61 4393.62C1200.21 4393.62 1198.26 4395.57 1198.26 4397.97C1198.26 4400.37 1200.21 4402.32 1202.61 4402.32Z" fill="#ACACAC"/>
<path d="M1602.03 4402.32C1604.43 4402.32 1606.38 4400.37 1606.38 4397.97C1606.38 4395.57 1604.43 4393.62 1602.03 4393.62C1599.63 4393.62 1597.68 4395.57 1597.68 4397.97C1597.68 4400.37 1599.63 4402.32 1602.03 4402.32Z" fill="#ACACAC"/>
<path d="M2001.45 4402.32C2003.85 4402.32 2005.8 4400.37 2005.8 4397.97C2005.8 4395.57 2003.85 4393.62 2001.45 4393.62C1999.05 4393.62 1997.1 4395.57 1997.1 4397.97C1997.1 4400.37 1999.05 4402.32 2001.45 4402.32Z" fill="#ACACAC"/>
<path d="M2400.87 4402.32C2403.27 4402.32 2405.22 4400.37 2405.22 4397.97C2405.22 4395.57 2403.27 4393.62 2400.87 4393.62C2398.47 4393.62 2396.52 4395.57 2396.52 4397.97C2396.52 4400.37 2398.47 4402.32 2400.87 4402.32Z" fill="#ACACAC"/>
<path d="M2800.29 4402.32C2802.69 4402.32 2804.64 4400.37 2804.64 4397.97C2804.64 4395.57 2802.69 4393.62 2800.29 4393.62C2797.89 4393.62 2795.94 4395.57 2795.94 4397.97C2795.94 4400.37 2797.89 4402.32 2800.29 4402.32Z" fill="#ACACAC"/>
<path d="M3199.71 4402.32C3202.11 4402.32 3204.06 4400.37 3204.06 4397.97C3204.06 4395.57 3202.11 4393.62 3199.71 4393.62C3197.31 4393.62 3195.36 4395.57 3195.36 4397.97C3195.36 4400.37 3197.31 4402.32 3199.71 4402.32Z" fill="#ACACAC"/>
<path d="M3599.13 4402.32C3601.53 4402.32 3603.48 4400.37 3603.48 4397.97C3603.48 4395.57 3601.53 4393.62 3599.13 4393.62C3596.73 4393.62 3594.78 4395.57 3594.78 4397.97C3594.78 4400.37 3596.73 4402.32 3599.13 4402.32Z" fill="#ACACAC"/>
<path d="M3998.55 4402.32C4000.95 4402.32 4002.9 4400.37 4002.9 4397.97C4002.9 4395.57 4000.95 4393.62 3998.55 4393.62C3996.15 4393.62 3994.2 4395.57 3994.2 4397.97C3994.2 4400.37 3996.15 4402.32 3998.55 4402.32Z" fill="#ACACAC"/>
<path d="M4397.97 4402.32C4400.37 4402.32 4402.32 4400.37 4402.32 4397.97C4402.32 4395.57 4400.37 4393.62 4397.97 4393.62C4395.57 4393.62 4393.62 4395.57 4393.62 4397.97C4393.62 4400.37 4395.57 4402.32 4397.97 4402.32Z" fill="#ACACAC"/>
<path d="M4797.39 4402.32C4799.79 4402.32 4801.74 4400.37 4801.74 4397.97C4801.74 4395.57 4799.79 4393.62 4797.39 4393.62C4794.99 4393.62 4793.04 4395.57 4793.04 4397.97C4793.04 4400.37 4794.99 4402.32 4797.39 4402.32Z" fill="#ACACAC"/>
<path d="M5196.81 4402.32C5199.21 4402.32 5201.16 4400.37 5201.16 4397.97C5201.16 4395.57 5199.21 4393.62 5196.81 4393.62C5194.41 4393.62 5192.46 4395.57 5192.46 4397.97C5192.46 4400.37 5194.41 4402.32 5196.81 4402.32Z" fill="#ACACAC"/>
<path d="M5596.23 4402.32C5598.63 4402.32 5600.58 4400.37 5600.58 4397.97C5600.58 4395.57 5598.63 4393.62 5596.23 4393.62C5593.83 4393.62 5591.88 4395.57 5591.88 4397.97C5591.88 4400.37 5593.83 4402.32 5596.23 4402.32Z" fill="#ACACAC"/>
<path d="M5995.65 4402.32C5998.05 4402.32 6000 4400.37 6000 4397.97C6000 4395.57 5998.05 4393.62 5995.65 4393.62C5993.25 4393.62 5991.3 4395.57 5991.3 4397.97C5991.3 4400.37 5993.25 4402.32 5995.65 4402.32Z" fill="#ACACAC"/>
<path d="M4.35098 4801.74C6.75396 4801.74 8.70196 4799.79 8.70196 4797.39C8.70196 4794.99 6.75396 4793.04 4.35098 4793.04C1.948 4793.04 0 4794.99 0 4797.39C0 4799.79 1.948 4801.74 4.35098 4801.74Z" fill="#ACACAC"/>
<path d="M403.771 4801.74C406.174 4801.74 408.122 4799.79 408.122 4797.39C408.122 4794.99 406.174 4793.04 403.771 4793.04C401.368 4793.04 399.42 4794.99 399.42 4797.39C399.42 4799.79 401.368 4801.74 403.771 4801.74Z" fill="#ACACAC"/>
<path d="M803.191 4801.74C805.594 4801.74 807.542 4799.79 807.542 4797.39C807.542 4794.99 805.594 4793.04 803.191 4793.04C800.788 4793.04 798.84 4794.99 798.84 4797.39C798.84 4799.79 800.788 4801.74 803.191 4801.74Z" fill="#ACACAC"/>
<path d="M1202.61 4801.74C1205.01 4801.74 1206.96 4799.79 1206.96 4797.39C1206.96 4794.99 1205.01 4793.04 1202.61 4793.04C1200.21 4793.04 1198.26 4794.99 1198.26 4797.39C1198.26 4799.79 1200.21 4801.74 1202.61 4801.74Z" fill="#ACACAC"/>
<path d="M1602.03 4801.74C1604.43 4801.74 1606.38 4799.79 1606.38 4797.39C1606.38 4794.99 1604.43 4793.04 1602.03 4793.04C1599.63 4793.04 1597.68 4794.99 1597.68 4797.39C1597.68 4799.79 1599.63 4801.74 1602.03 4801.74Z" fill="#ACACAC"/>
<path d="M2001.45 4801.74C2003.85 4801.74 2005.8 4799.79 2005.8 4797.39C2005.8 4794.99 2003.85 4793.04 2001.45 4793.04C1999.05 4793.04 1997.1 4794.99 1997.1 4797.39C1997.1 4799.79 1999.05 4801.74 2001.45 4801.74Z" fill="#ACACAC"/>
<path d="M2400.87 4801.74C2403.27 4801.74 2405.22 4799.79 2405.22 4797.39C2405.22 4794.99 2403.27 4793.04 2400.87 4793.04C2398.47 4793.04 2396.52 4794.99 2396.52 4797.39C2396.52 4799.79 2398.47 4801.74 2400.87 4801.74Z" fill="#ACACAC"/>
<path d="M2800.29 4801.74C2802.69 4801.74 2804.64 4799.79 2804.64 4797.39C2804.64 4794.99 2802.69 4793.04 2800.29 4793.04C2797.89 4793.04 2795.94 4794.99 2795.94 4797.39C2795.94 4799.79 2797.89 4801.74 2800.29 4801.74Z" fill="#ACACAC"/>
<path d="M3199.71 4801.74C3202.11 4801.74 3204.06 4799.79 3204.06 4797.39C3204.06 4794.99 3202.11 4793.04 3199.71 4793.04C3197.31 4793.04 3195.36 4794.99 3195.36 4797.39C3195.36 4799.79 3197.31 4801.74 3199.71 4801.74Z" fill="#ACACAC"/>
<path d="M3599.13 4801.74C3601.53 4801.74 3603.48 4799.79 3603.48 4797.39C3603.48 4794.99 3601.53 4793.04 3599.13 4793.04C3596.73 4793.04 3594.78 4794.99 3594.78 4797.39C3594.78 4799.79 3596.73 4801.74 3599.13 4801.74Z" fill="#ACACAC"/>
<path d="M3998.55 4801.74C4000.95 4801.74 4002.9 4799.79 4002.9 4797.39C4002.9 4794.99 4000.95 4793.04 3998.55 4793.04C3996.15 4793.04 3994.2 4794.99 3994.2 4797.39C3994.2 4799.79 3996.15 4801.74 3998.55 4801.74Z" fill="#ACACAC"/>
<path d="M4397.97 4801.74C4400.37 4801.74 4402.32 4799.79 4402.32 4797.39C4402.32 4794.99 4400.37 4793.04 4397.97 4793.04C4395.57 4793.04 4393.62 4794.99 4393.62 4797.39C4393.62 4799.79 4395.57 4801.74 4397.97 4801.74Z" fill="#ACACAC"/>
<path d="M4797.39 4801.74C4799.79 4801.74 4801.74 4799.79 4801.74 4797.39C4801.74 4794.99 4799.79 4793.04 4797.39 4793.04C4794.99 4793.04 4793.04 4794.99 4793.04 4797.39C4793.04 4799.79 4794.99 4801.74 4797.39 4801.74Z" fill="#ACACAC"/>
<path d="M5196.81 4801.74C5199.21 4801.74 5201.16 4799.79 5201.16 4797.39C5201.16 4794.99 5199.21 4793.04 5196.81 4793.04C5194.41 4793.04 5192.46 4794.99 5192.46 4797.39C5192.46 4799.79 5194.41 4801.74 5196.81 4801.74Z" fill="#ACACAC"/>
<path d="M5596.23 4801.74C5598.63 4801.74 5600.58 4799.79 5600.58 4797.39C5600.58 4794.99 5598.63 4793.04 5596.23 4793.04C5593.83 4793.04 5591.88 4794.99 5591.88 4797.39C5591.88 4799.79 5593.83 4801.74 5596.23 4801.74Z" fill="#ACACAC"/>
<path d="M5995.65 4801.74C5998.05 4801.74 6000 4799.79 6000 4797.39C6000 4794.99 5998.05 4793.04 5995.65 4793.04C5993.25 4793.04 5991.3 4794.99 5991.3 4797.39C5991.3 4799.79 5993.25 4801.74 5995.65 4801.74Z" fill="#ACACAC"/>
<path d="M4.35098 5201.16C6.75396 5201.16 8.70196 5199.21 8.70196 5196.81C8.70196 5194.41 6.75396 5192.46 4.35098 5192.46C1.948 5192.46 0 5194.41 0 5196.81C0 5199.21 1.948 5201.16 4.35098 5201.16Z" fill="#ACACAC"/>
<path d="M403.771 5201.16C406.174 5201.16 408.122 5199.21 408.122 5196.81C408.122 5194.41 406.174 5192.46 403.771 5192.46C401.368 5192.46 399.42 5194.41 399.42 5196.81C399.42 5199.21 401.368 5201.16 403.771 5201.16Z" fill="#ACACAC"/>
<path d="M803.191 5201.16C805.594 5201.16 807.542 5199.21 807.542 5196.81C807.542 5194.41 805.594 5192.46 803.191 5192.46C800.788 5192.46 798.84 5194.41 798.84 5196.81C798.84 5199.21 800.788 5201.16 803.191 5201.16Z" fill="#ACACAC"/>
<path d="M1202.61 5201.16C1205.01 5201.16 1206.96 5199.21 1206.96 5196.81C1206.96 5194.41 1205.01 5192.46 1202.61 5192.46C1200.21 5192.46 1198.26 5194.41 1198.26 5196.81C1198.26 5199.21 1200.21 5201.16 1202.61 5201.16Z" fill="#ACACAC"/>
<path d="M1602.03 5201.16C1604.43 5201.16 1606.38 5199.21 1606.38 5196.81C1606.38 5194.41 1604.43 5192.46 1602.03 5192.46C1599.63 5192.46 1597.68 5194.41 1597.68 5196.81C1597.68 5199.21 1599.63 5201.16 1602.03 5201.16Z" fill="#ACACAC"/>
<path d="M2001.45 5201.16C2003.85 5201.16 2005.8 5199.21 2005.8 5196.81C2005.8 5194.41 2003.85 5192.46 2001.45 5192.46C1999.05 5192.46 1997.1 5194.41 1997.1 5196.81C1997.1 5199.21 1999.05 5201.16 2001.45 5201.16Z" fill="#ACACAC"/>
<path d="M2400.87 5201.16C2403.27 5201.16 2405.22 5199.21 2405.22 5196.81C2405.22 5194.41 2403.27 5192.46 2400.87 5192.46C2398.47 5192.46 2396.52 5194.41 2396.52 5196.81C2396.52 5199.21 2398.47 5201.16 2400.87 5201.16Z" fill="#ACACAC"/>
<path d="M2800.29 5201.16C2802.69 5201.16 2804.64 5199.21 2804.64 5196.81C2804.64 5194.41 2802.69 5192.46 2800.29 5192.46C2797.89 5192.46 2795.94 5194.41 2795.94 5196.81C2795.94 5199.21 2797.89 5201.16 2800.29 5201.16Z" fill="#ACACAC"/>
<path d="M3199.71 5201.16C3202.11 5201.16 3204.06 5199.21 3204.06 5196.81C3204.06 5194.41 3202.11 5192.46 3199.71 5192.46C3197.31 5192.46 3195.36 5194.41 3195.36 5196.81C3195.36 5199.21 3197.31 5201.16 3199.71 5201.16Z" fill="#ACACAC"/>
<path d="M3599.13 5201.16C3601.53 5201.16 3603.48 5199.21 3603.48 5196.81C3603.48 5194.41 3601.53 5192.46 3599.13 5192.46C3596.73 5192.46 3594.78 5194.41 3594.78 5196.81C3594.78 5199.21 3596.73 5201.16 3599.13 5201.16Z" fill="#ACACAC"/>
<path d="M3998.55 5201.16C4000.95 5201.16 4002.9 5199.21 4002.9 5196.81C4002.9 5194.41 4000.95 5192.46 3998.55 5192.46C3996.15 5192.46 3994.2 5194.41 3994.2 5196.81C3994.2 5199.21 3996.15 5201.16 3998.55 5201.16Z" fill="#ACACAC"/>
<path d="M4397.97 5201.16C4400.37 5201.16 4402.32 5199.21 4402.32 5196.81C4402.32 5194.41 4400.37 5192.46 4397.97 5192.46C4395.57 5192.46 4393.62 5194.41 4393.62 5196.81C4393.62 5199.21 4395.57 5201.16 4397.97 5201.16Z" fill="#ACACAC"/>
<path d="M4797.39 5201.16C4799.79 5201.16 4801.74 5199.21 4801.74 5196.81C4801.74 5194.41 4799.79 5192.46 4797.39 5192.46C4794.99 5192.46 4793.04 5194.41 4793.04 5196.81C4793.04 5199.21 4794.99 5201.16 4797.39 5201.16Z" fill="#ACACAC"/>
<path d="M5196.81 5201.16C5199.21 5201.16 5201.16 5199.21 5201.16 5196.81C5201.16 5194.41 5199.21 5192.46 5196.81 5192.46C5194.41 5192.46 5192.46 5194.41 5192.46 5196.81C5192.46 5199.21 5194.41 5201.16 5196.81 5201.16Z" fill="#ACACAC"/>
<path d="M5596.23 5201.16C5598.63 5201.16 5600.58 5199.21 5600.58 5196.81C5600.58 5194.41 5598.63 5192.46 5596.23 5192.46C5593.83 5192.46 5591.88 5194.41 5591.88 5196.81C5591.88 5199.21 5593.83 5201.16 5596.23 5201.16Z" fill="#ACACAC"/>
<path d="M5995.65 5201.16C5998.05 5201.16 6000 5199.21 6000 5196.81C6000 5194.41 5998.05 5192.46 5995.65 5192.46C5993.25 5192.46 5991.3 5194.41 5991.3 5196.81C5991.3 5199.21 5993.25 5201.16 5995.65 5201.16Z" fill="#ACACAC"/>
<path d="M4.35098 5600.58C6.75396 5600.58 8.70196 5598.63 8.70196 5596.23C8.70196 5593.82 6.75396 5591.88 4.35098 5591.88C1.948 5591.88 0 5593.82 0 5596.23C0 5598.63 1.948 5600.58 4.35098 5600.58Z" fill="#ACACAC"/>
<path d="M403.771 5600.58C406.174 5600.58 408.122 5598.63 408.122 5596.23C408.122 5593.82 406.174 5591.88 403.771 5591.88C401.368 5591.88 399.42 5593.82 399.42 5596.23C399.42 5598.63 401.368 5600.58 403.771 5600.58Z" fill="#ACACAC"/>
<path d="M803.191 5600.58C805.594 5600.58 807.542 5598.63 807.542 5596.23C807.542 5593.82 805.594 5591.88 803.191 5591.88C800.788 5591.88 798.84 5593.82 798.84 5596.23C798.84 5598.63 800.788 5600.58 803.191 5600.58Z" fill="#ACACAC"/>
<path d="M1202.61 5600.58C1205.01 5600.58 1206.96 5598.63 1206.96 5596.23C1206.96 5593.82 1205.01 5591.88 1202.61 5591.88C1200.21 5591.88 1198.26 5593.82 1198.26 5596.23C1198.26 5598.63 1200.21 5600.58 1202.61 5600.58Z" fill="#ACACAC"/>
<path d="M1602.03 5600.58C1604.43 5600.58 1606.38 5598.63 1606.38 5596.23C1606.38 5593.82 1604.43 5591.88 1602.03 5591.88C1599.63 5591.88 1597.68 5593.82 1597.68 5596.23C1597.68 5598.63 1599.63 5600.58 1602.03 5600.58Z" fill="#ACACAC"/>
<path d="M2001.45 5600.58C2003.85 5600.58 2005.8 5598.63 2005.8 5596.23C2005.8 5593.82 2003.85 5591.88 2001.45 5591.88C1999.05 5591.88 1997.1 5593.82 1997.1 5596.23C1997.1 5598.63 1999.05 5600.58 2001.45 5600.58Z" fill="#ACACAC"/>
<path d="M2400.87 5600.58C2403.27 5600.58 2405.22 5598.63 2405.22 5596.23C2405.22 5593.82 2403.27 5591.88 2400.87 5591.88C2398.47 5591.88 2396.52 5593.82 2396.52 5596.23C2396.52 5598.63 2398.47 5600.58 2400.87 5600.58Z" fill="#ACACAC"/>
<path d="M2800.29 5600.58C2802.69 5600.58 2804.64 5598.63 2804.64 5596.23C2804.64 5593.82 2802.69 5591.88 2800.29 5591.88C2797.89 5591.88 2795.94 5593.82 2795.94 5596.23C2795.94 5598.63 2797.89 5600.58 2800.29 5600.58Z" fill="#ACACAC"/>
<path d="M3199.71 5600.58C3202.11 5600.58 3204.06 5598.63 3204.06 5596.23C3204.06 5593.82 3202.11 5591.88 3199.71 5591.88C3197.31 5591.88 3195.36 5593.82 3195.36 5596.23C3195.36 5598.63 3197.31 5600.58 3199.71 5600.58Z" fill="#ACACAC"/>
<path d="M3599.13 5600.58C3601.53 5600.58 3603.48 5598.63 3603.48 5596.23C3603.48 5593.82 3601.53 5591.88 3599.13 5591.88C3596.73 5591.88 3594.78 5593.82 3594.78 5596.23C3594.78 5598.63 3596.73 5600.58 3599.13 5600.58Z" fill="#ACACAC"/>
<path d="M3998.55 5600.58C4000.95 5600.58 4002.9 5598.63 4002.9 5596.23C4002.9 5593.82 4000.95 5591.88 3998.55 5591.88C3996.15 5591.88 3994.2 5593.82 3994.2 5596.23C3994.2 5598.63 3996.15 5600.58 3998.55 5600.58Z" fill="#ACACAC"/>
<path d="M4397.97 5600.58C4400.37 5600.58 4402.32 5598.63 4402.32 5596.23C4402.32 5593.82 4400.37 5591.88 4397.97 5591.88C4395.57 5591.88 4393.62 5593.82 4393.62 5596.23C4393.62 5598.63 4395.57 5600.58 4397.97 5600.58Z" fill="#ACACAC"/>
<path d="M4797.39 5600.58C4799.79 5600.58 4801.74 5598.63 4801.74 5596.23C4801.74 5593.82 4799.79 5591.88 4797.39 5591.88C4794.99 5591.88 4793.04 5593.82 4793.04 5596.23C4793.04 5598.63 4794.99 5600.58 4797.39 5600.58Z" fill="#ACACAC"/>
<path d="M5196.81 5600.58C5199.21 5600.58 5201.16 5598.63 5201.16 5596.23C5201.16 5593.82 5199.21 5591.88 5196.81 5591.88C5194.41 5591.88 5192.46 5593.82 5192.46 5596.23C5192.46 5598.63 5194.41 5600.58 5196.81 5600.58Z" fill="#ACACAC"/>
<path d="M5596.23 5600.58C5598.63 5600.58 5600.58 5598.63 5600.58 5596.23C5600.58 5593.82 5598.63 5591.88 5596.23 5591.88C5593.83 5591.88 5591.88 5593.82 5591.88 5596.23C5591.88 5598.63 5593.83 5600.58 5596.23 5600.58Z" fill="#ACACAC"/>
<path d="M5995.65 5600.58C5998.05 5600.58 6000 5598.63 6000 5596.23C6000 5593.82 5998.05 5591.88 5995.65 5591.88C5993.25 5591.88 5991.3 5593.82 5991.3 5596.23C5991.3 5598.63 5993.25 5600.58 5995.65 5600.58Z" fill="#ACACAC"/>
<path d="M4.35098 6000C6.75396 6000 8.70196 5998.05 8.70196 5995.65C8.70196 5993.24 6.75396 5991.3 4.35098 5991.3C1.948 5991.3 0 5993.24 0 5995.65C0 5998.05 1.948 6000 4.35098 6000Z" fill="#ACACAC"/>
<path d="M403.771 6000C406.174 6000 408.122 5998.05 408.122 5995.65C408.122 5993.24 406.174 5991.3 403.771 5991.3C401.368 5991.3 399.42 5993.24 399.42 5995.65C399.42 5998.05 401.368 6000 403.771 6000Z" fill="#ACACAC"/>
<path d="M803.191 6000C805.594 6000 807.542 5998.05 807.542 5995.65C807.542 5993.24 805.594 5991.3 803.191 5991.3C800.788 5991.3 798.84 5993.24 798.84 5995.65C798.84 5998.05 800.788 6000 803.191 6000Z" fill="#ACACAC"/>
<path d="M1202.61 6000C1205.01 6000 1206.96 5998.05 1206.96 5995.65C1206.96 5993.24 1205.01 5991.3 1202.61 5991.3C1200.21 5991.3 1198.26 5993.24 1198.26 5995.65C1198.26 5998.05 1200.21 6000 1202.61 6000Z" fill="#ACACAC"/>
<path d="M1602.03 6000C1604.43 6000 1606.38 5998.05 1606.38 5995.65C1606.38 5993.24 1604.43 5991.3 1602.03 5991.3C1599.63 5991.3 1597.68 5993.24 1597.68 5995.65C1597.68 5998.05 1599.63 6000 1602.03 6000Z" fill="#ACACAC"/>
<path d="M2001.45 6000C2003.85 6000 2005.8 5998.05 2005.8 5995.65C2005.8 5993.24 2003.85 5991.3 2001.45 5991.3C1999.05 5991.3 1997.1 5993.24 1997.1 5995.65C1997.1 5998.05 1999.05 6000 2001.45 6000Z" fill="#ACACAC"/>
<path d="M2400.87 6000C2403.27 6000 2405.22 5998.05 2405.22 5995.65C2405.22 5993.24 2403.27 5991.3 2400.87 5991.3C2398.47 5991.3 2396.52 5993.24 2396.52 5995.65C2396.52 5998.05 2398.47 6000 2400.87 6000Z" fill="#ACACAC"/>
<path d="M2800.29 6000C2802.69 6000 2804.64 5998.05 2804.64 5995.65C2804.64 5993.24 2802.69 5991.3 2800.29 5991.3C2797.89 5991.3 2795.94 5993.24 2795.94 5995.65C2795.94 5998.05 2797.89 6000 2800.29 6000Z" fill="#ACACAC"/>
<path d="M3199.71 6000C3202.11 6000 3204.06 5998.05 3204.06 5995.65C3204.06 5993.24 3202.11 5991.3 3199.71 5991.3C3197.31 5991.3 3195.36 5993.24 3195.36 5995.65C3195.36 5998.05 3197.31 6000 3199.71 6000Z" fill="#ACACAC"/>
<path d="M3599.13 6000C3601.53 6000 3603.48 5998.05 3603.48 5995.65C3603.48 5993.24 3601.53 5991.3 3599.13 5991.3C3596.73 5991.3 3594.78 5993.24 3594.78 5995.65C3594.78 5998.05 3596.73 6000 3599.13 6000Z" fill="#ACACAC"/>
<path d="M3998.55 6000C4000.95 6000 4002.9 5998.05 4002.9 5995.65C4002.9 5993.24 4000.95 5991.3 3998.55 5991.3C3996.15 5991.3 3994.2 5993.24 3994.2 5995.65C3994.2 5998.05 3996.15 6000 3998.55 6000Z" fill="#ACACAC"/>
<path d="M4397.97 6000C4400.37 6000 4402.32 5998.05 4402.32 5995.65C4402.32 5993.24 4400.37 5991.3 4397.97 5991.3C4395.57 5991.3 4393.62 5993.24 4393.62 5995.65C4393.62 5998.05 4395.57 6000 4397.97 6000Z" fill="#ACACAC"/>
<path d="M4797.39 6000C4799.79 6000 4801.74 5998.05 4801.74 5995.65C4801.74 5993.24 4799.79 5991.3 4797.39 5991.3C4794.99 5991.3 4793.04 5993.24 4793.04 5995.65C4793.04 5998.05 4794.99 6000 4797.39 6000Z" fill="#ACACAC"/>
<path d="M5196.81 6000C5199.21 6000 5201.16 5998.05 5201.16 5995.65C5201.16 5993.24 5199.21 5991.3 5196.81 5991.3C5194.41 5991.3 5192.46 5993.24 5192.46 5995.65C5192.46 5998.05 5194.41 6000 5196.81 6000Z" fill="#ACACAC"/>
<path d="M5596.23 6000C5598.63 6000 5600.58 5998.05 5600.58 5995.65C5600.58 5993.24 5598.63 5991.3 5596.23 5991.3C5593.83 5991.3 5591.88 5993.24 5591.88 5995.65C5591.88 5998.05 5593.83 6000 5596.23 6000Z" fill="#ACACAC"/>
<path d="M5995.65 6000C5998.05 6000 6000 5998.05 6000 5995.65C6000 5993.24 5998.05 5991.3 5995.65 5991.3C5993.25 5991.3 5991.3 5993.24 5991.3 5995.65C5991.3 5998.05 5993.25 6000 5995.65 6000Z" fill="#ACACAC"/>
</svg>
